<?xml version="1.0" encoding="UTF-8" standalone="no"?>
<svg
   width="1024pt"
   height="1024pt"
   viewBox="0 0 1024 1024"
   version="1.1"
   id="svg264"
   sodipodi:docname="action-stic-advanced-security-groups.svg"
   inkscape:version="1.1.2 (0a00cf5339, 2022-02-04)"
   xmlns:inkscape="http://www.inkscape.org/namespaces/inkscape"
   xmlns:sodipodi="http://sodipodi.sourceforge.net/DTD/sodipodi-0.dtd"
   xmlns="http://www.w3.org/2000/svg"
   xmlns:svg="http://www.w3.org/2000/svg">
  <defs
     id="defs268" />
  <sodipodi:namedview
     id="namedview266"
     pagecolor="#ffffff"
     bordercolor="#666666"
     borderopacity="1.0"
     inkscape:pageshadow="2"
     inkscape:pageopacity="0.0"
     inkscape:pagecheckerboard="0"
     inkscape:document-units="pt"
     showgrid="false"
     inkscape:zoom="0.11791992"
     inkscape:cx="3527.8179"
     inkscape:cy="1462.8572"
     inkscape:window-width="1920"
     inkscape:window-height="1125"
     inkscape:window-x="0"
     inkscape:window-y="46"
     inkscape:window-maximized="1"
     inkscape:current-layer="surface1" />
  <g
     id="surface1">
    <path
       style="fill:#000000;fill-opacity:1;fill-rule:evenodd;stroke:none"
       d="M 512.51172,-0.511719 C 376.72656,-0.511719 246.48828,53.4375 150.47266,149.44922 54.460938,245.46484 0.511719,375.70312 0.511719,511.48828 c 0,135.78516 53.949219,266.02344 149.960941,362.03906 96.01562,96.01172 226.2539,149.96096 362.03906,149.96096 135.78515,0 266.02344,-53.94924 362.03906,-149.96096 96.01172,-96.01562 149.96092,-226.2539 149.96092,-362.03906 0,-135.78516 -53.9492,-266.02344 -149.96092,-362.03906 C 778.53516,53.4375 648.29687,-0.511719 512.51172,-0.511719 Z m 0,33.03125 c 127.03515,0 248.85547,50.457031 338.68359,140.285159 89.82813,89.82812 140.28516,211.64843 140.28516,338.68359 0,127.03516 -50.45703,248.85156 -140.28516,338.68359 C 761.36719,940 639.54687,990.45703 512.51172,990.45703 385.47656,990.45703 263.66016,940 173.82812,850.17187 84,760.33984 33.542969,638.52344 33.542969,511.48828 33.542969,384.45312 84,262.63281 173.82812,172.80469 263.66016,82.976562 385.47656,32.519531 512.51172,32.519531 Z"
       id="path261"
       sodipodi:nodetypes="scscscscsssscscscs" />
    <path
       d="m 276.76238,140.04223 c -61.0339,50.92369 -86.8673,131.53888 -66.8558,208.67597 8.0978,31.43273 25.2264,62.48462 47.9541,86.81408 39.4176,42.33548 94.898,65.76925 152.882,64.58803 5.7719,-0.083 12.544,-0.43136 15.1861,-0.64312 2.6027,-0.26911 4.8003,-0.5131 4.9939,-0.47726 0.097,0.0179 3.1203,14.243 6.7105,31.62644 6.2515,30.59043 6.499,31.68742 8.3632,32.43294 2.1763,0.95341 1.678,1.21158 15.8414,-10.13274 5.9937,-4.79731 11.4533,-9.14286 12.1989,-9.65559 l 1.2618,-0.86769 106.6078,155.03524 c 84.6788,123.1449 106.9376,155.14635 107.9844,155.44022 0.6991,0.27957 25.0416,2.63269 53.9838,5.28653 32.4806,3.00843 53.1232,4.52658 53.8115,4.05329 0.8604,-0.5916 3.8131,-15.46255 9.5354,-47.19053 4.5184,-25.49351 8.2269,-46.88209 8.1803,-47.44136 -0.086,-0.61661 -0.7351,-1.43752 -1.4736,-1.77444 -0.7207,-0.43373 -12.7989,-3.87065 -26.7737,-7.60854 -13.9747,-3.73789 -25.4902,-6.97053 -25.6085,-7.14259 -0.1183,-0.17207 1.0601,-12.21786 2.568,-26.85565 1.508,-14.63778 2.6217,-27.14603 2.3994,-27.83792 -0.3514,-1.61681 -0.8749,-1.76374 -28.6702,-9.26105 -12.8706,-3.48346 -23.8231,-6.5118 -24.2892,-6.69817 -0.6023,-0.26166 -0.2731,-6.90832 0.8946,-18.3554 3.46,-33.29801 3.7394,-36.70022 3.1872,-37.50321 -0.3155,-0.45886 -12.4726,-4.0105 -27.1071,-7.9706 -23.5506,-6.36125 -26.5191,-7.3612 -26.4224,-8.69484 0.047,-0.79229 1.2106,-12.49033 2.5824,-25.85183 2.7543,-27.32171 2.8045,-27.86305 1.3417,-28.88465 -0.6238,-0.4158 -14.4801,-2.63007 -30.9069,-5.01977 l -29.835,-4.32079 9.9554,-40.80565 c 8.0526,-33.49919 9.6615,-41.11034 8.8332,-42.31483 -0.5521,-0.80299 -4.4528,-3.52725 -8.7372,-6.07222 l -7.7118,-4.58095 2.0648,-1.41986 c 1.2045,-0.82825 7.9046,-4.84409 14.9703,-8.94242 7.123,-4.13777 13.418,-8.12849 14.0453,-8.81328 2.2977,-2.67822 1.0859,-3.70343 -27.0331,-21.62237 l -26.9896,-17.2594 3,-6.20236 c 13.6708,-28.15444 20.9561,-61.29506 20.3688,-92.73924 -1.218,-68.60288 -36.9379,-131.72825 -95.2767,-168.65578 -13.8139,-8.66373 -33.2886,-17.5743 -49.8304,-22.58823 -9.289,-2.820551 -33.2947,-7.263776 -42.9779,-7.954794 -36.9153,-2.577813 -71.9761,4.297903 -106.0681,20.813654 -9.6254,4.67575 -30.7256,18.34021 -39.139,25.39273 z m 51.7265,20.18609 c 12.013,-5.13487 22.7285,-6.50533 35.7136,-4.4523 18.732,2.91648 33.4996,12.10712 44.0087,27.26721 10.6274,15.33216 14.1637,31.65445 10.8887,49.61929 -7.8688,42.24305 -53.2315,65.83308 -92.2597,47.89722 -11.9136,-5.4087 -20.9091,-13.33077 -28.1017,-24.7735 -9.5233,-15.07773 -12.5219,-31.60082 -8.9025,-48.45076 3.0603,-14.10017 9.5589,-25.41152 20.7217,-35.95968 3.6564,-3.528 11.8477,-8.56929 17.9312,-11.14748 z m 160.9561,342.79578 c 1.5057,-0.0216 3.9293,0.67721 5.3884,1.44786 2.6853,1.4481 3.7897,3.05409 120.8527,173.53981 l 118.1495,172.18851 -15.1576,-1.40393 -15.1002,-1.44338 -112.9218,-164.46326 -112.9039,-164.56007 -0.1795,-3.08668 c -0.083,-1.71723 0.4799,-4.21604 1.1932,-5.63577 1.803,-3.52066 6.8934,-6.68312 10.6792,-6.58309 z m 43.5759,-0.14382 c 0.4482,0.28317 54.9335,79.39602 121.0967,175.73741 l 120.2399,175.22842 -15.0214,-1.32867 -15.0213,-1.32866 -115.4819,-167.9405 -115.4998,-167.84371 9.4639,-6.50769 c 7.0548,-4.85118 9.6969,-6.41449 10.2239,-6.0166 z m 69.4503,-25.53893 c 7.0737,4.5129 11.756,7.88238 11.6485,8.46317 -0.129,0.42663 -2.4046,10.01677 -5.1389,21.27399 l -4.9778,20.40283 -15.2777,-21.84931 c -8.3793,-12.06283 -15.3424,-22.31177 -15.407,-22.77423 -0.2223,-0.69189 2.011,-2.48102 8.5496,-6.97724 l 8.833,-6.07384 z"
       id="path97"
       style="fill:#000000;stroke:none;stroke-width:0.0696085" />
  </g>
</svg>
