<?xml version="1.0" encoding="UTF-8" standalone="no"?>
<svg
   xmlns:dc="http://purl.org/dc/elements/1.1/"
   xmlns:cc="http://creativecommons.org/ns#"
   xmlns:rdf="http://www.w3.org/1999/02/22-rdf-syntax-ns#"
   xmlns:svg="http://www.w3.org/2000/svg"
   xmlns="http://www.w3.org/2000/svg"
   id="svg5"
   version="1.1"
   viewBox="0 0 1024 1024"
   height="1024pt"
   width="1024pt">
  <metadata
     id="metadata11">
    <rdf:RDF>
      <cc:Work
         rdf:about="">
        <dc:format>image/svg+xml</dc:format>
        <dc:type
           rdf:resource="http://purl.org/dc/dcmitype/StillImage" />
        <dc:title></dc:title>
      </cc:Work>
    </rdf:RDF>
  </metadata>
  <defs
     id="defs9" />
  <g
     id="g10"
     transform="matrix(1.3184027,0,0,1.2223175,3.6041276,41.879562)">
    <path
       style="fill:#000000;stroke-width:0.966477"
       d="M 375.27708,799.30081 C 318.86339,796.57056 266.87405,781.91683 216.9428,754.67269 115.19218,699.15431 38.396957,596.11363 11.846095,479.48272 3.5763206,443.15639 1.68919,424.92868 1.6918074,381.40848 c 0,-39.21269 1.0608566,-51.9328 6.9749891,-83.81281 C 34.218638,159.85601 125.61655,44.829287 249.03825,-4.9183454 307.47812,-28.473664 372.89624,-35.827977 436.69634,-26.014849 c 67.54966,10.389835 133.44022,41.102264 186.11858,86.752192 9.66386,8.374437 31.83405,29.913867 35.34346,34.337925 1.2107,1.526194 5.27108,6.314372 9.02293,10.640412 21.38922,24.66173 43.78777,59.59659 59.40617,92.65509 47.63778,100.8326 55.8696,211.91819 23.58946,318.33459 -23.17395,76.39697 -67.13284,144.32289 -125.78603,194.36637 -50.55403,43.13311 -110.80725,71.39721 -176.55746,82.82092 -21.98893,3.8204 -54.81217,6.26699 -72.55637,5.40816 z m 30.24431,-27.01577 c 55.19432,-5.32833 98.89768,-18.68564 144.90353,-44.2877 95.84271,-53.33597 163.80607,-149.91996 188.12774,-267.35195 8.76839,-42.33611 9.02751,-113.4908 0.57599,-158.16878 -6.06987,-32.0881 -19.53759,-72.77316 -33.67913,-101.74245 C 687.77027,164.5176 668.72491,136.65752 641.95746,107.85645 583.06527,44.489682 506.94877,6.3485567 420.41084,-3.1582231 403.93853,-4.9678302 366.54354,-4.6782826 349.72099,-2.6108799 235.74311,11.396452 136.58058,79.683261 77.272403,185.00689 50.837198,231.95232 33.662281,285.24174 26.589631,342.26238 c -2.358423,19.0141 -2.354988,73.80714 0,92.84654 9.90809,79.90538 37.930409,147.23245 85.874749,206.32463 57.17681,70.47149 140.16475,117.70456 226.5139,128.92215 37.32448,4.8487 36.53387,4.8258 66.53738,1.92934 z m 90.26753,-143.56043 c -17.13533,-3.29782 -35.89147,-11.65521 -49.582,-22.09273 -8.5289,-6.50237 -20.77938,-19.39017 -27.11507,-28.52576 -10.13613,-14.61553 -18.28927,-35.5762 -20.60058,-52.96105 -1.78391,-13.41826 -0.70784,-35.70935 2.31147,-47.87882 8.47148,-34.14606 30.86791,-63.1275 61.48487,-79.56304 18.11161,-9.72252 33.35899,-13.53529 54.43969,-13.61327 22.46497,-0.0831 38.98881,4.06623 57.88531,14.53567 39.27901,21.76231 63.09177,62.80904 63.09177,108.75303 0,25.62009 -6.99658,48.78916 -21.12454,69.95367 -6.14397,9.20405 -18.51976,22.38738 -27.47087,29.2634 -13.68923,10.5156 -32.98144,19.02195 -50.4019,22.22314 -10.35452,1.90272 -32.79805,1.85345 -42.91815,-0.0942 z m -311.28331,-7.01355 c -3.88157,-1.81345 -8.03486,-5.88537 -9.87177,-9.67827 -3.03845,-6.27407 -39.44848,-123.62371 -39.42934,-127.0805 0.0262,-4.69584 2.72093,-10.97315 6.1438,-14.31138 4.28662,-4.18073 100.06601,-75.31258 103.54238,-76.89714 4.0733,-1.85672 12.00789,-1.84076 16.02704,0.0322 1.73434,0.80833 25.75779,18.35981 53.38505,39.00328 38.92763,29.08715 50.85716,38.49376 53.01175,41.80038 5.24752,8.0532 5.22903,8.13927 -16.44745,76.20613 -10.59155,33.25895 -19.65603,61.26347 -20.14319,62.23227 -1.52331,3.02952 -6.01997,7.11062 -9.62394,8.73441 -5.14789,2.31949 -131.62311,2.28115 -136.59433,-0.0414 z m 8.83251,-243.17829 c -6.55637,-3.21267 -11.60104,-11.38416 -11.6192,-18.82136 0,-1.16821 5.40358,-19.2799 12.0141,-40.24818 l 12.0195,-38.12416 -30.76697,-22.98784 c -17.66223,-13.19649 -31.97946,-24.60697 -33.61369,-26.78921 -5.40276,-7.21418 -4.27925,-19.96688 2.32963,-26.44453 6.06938,-5.94878 5.28825,-5.84605 48.5905,-6.39082 l 39.89181,-0.50187 11.54788,-36.61326 c 6.35139,-20.1373 12.44138,-38.01963 13.53332,-39.7385 7.96125,-12.53191 26.78839,-12.05872 33.68207,0.84651 1.9048,3.56582 7.47835,20.47625 22.63118,68.66282 l 2.2673,7.21001 39.71972,0.31808 c 38.97376,0.3121 39.79218,0.35995 43.5846,2.54738 9.71113,5.60124 13.68104,17.59163 9.09065,27.45665 -1.99772,4.29349 -7.10537,8.53598 -37.28817,30.97232 l -28.93938,21.51218 3.04892,9.60396 c 16.41211,51.69747 20.90926,66.59769 20.90926,69.27651 0,6.89804 -4.77917,14.55713 -11.3627,18.20971 -3.83757,2.12916 -12.03929,2.57284 -16.179,0.87522 -1.39523,-0.57219 -16.48197,-11.42098 -33.52618,-24.10843 l -30.98928,-23.06811 -30.50703,22.75634 c -16.77888,12.516 -31.85711,23.36479 -33.5072,24.10846 -4.20875,1.89675 -12.13761,1.64785 -16.56164,-0.51988 z m 215.89766,-30.11238 c -7.49896,-3.67455 -12.50257,-13.12874 -11.17932,-21.12309 0.52462,-3.16932 87.96276,-184.56352 97.4048,-202.07045 4.86767,-9.02552 9.80846,-12.32049 18.47428,-12.32049 8.68577,0 13.62182,3.29865 18.43715,12.32077 8.15477,15.27933 96.2538,197.26462 97.10445,200.58797 2.08948,8.16212 -2.99314,18.75943 -10.84184,22.60529 -3.53477,1.73205 -9.02358,1.82788 -104.69976,1.82788 -95.67618,0 -101.16499,-0.0959 -104.69976,-1.82788 z"
       id="path1158" />
  </g>
</svg>
