<?xml version="1.0" encoding="UTF-8" standalone="no"?>
<svg
   xmlns:dc="http://purl.org/dc/elements/1.1/"
   xmlns:cc="http://creativecommons.org/ns#"
   xmlns:rdf="http://www.w3.org/1999/02/22-rdf-syntax-ns#"
   xmlns:svg="http://www.w3.org/2000/svg"
   xmlns="http://www.w3.org/2000/svg"
   xmlns:sodipodi="http://sodipodi.sourceforge.net/DTD/sodipodi-0.dtd"
   xmlns:inkscape="http://www.inkscape.org/namespaces/inkscape"
   width="1024pt"
   height="1024pt"
   viewBox="0 0 1024 1024"
   version="1.1"
   id="svg5"
   sodipodi:docname="action-create-stic-web-forms.svg"
   inkscape:version="0.92.5 (2060ec1f9f, 2020-04-08)">
  <sodipodi:namedview
     pagecolor="#ffffff"
     bordercolor="#666666"
     borderopacity="1"
     objecttolerance="10"
     gridtolerance="10"
     guidetolerance="10"
     inkscape:pageopacity="0"
     inkscape:pageshadow="2"
     inkscape:window-width="1874"
     inkscape:window-height="1015"
     id="namedview6778"
     showgrid="false"
     inkscape:zoom="0.17285156"
     inkscape:cx="676.88136"
     inkscape:cy="682.66667"
     inkscape:window-x="46"
     inkscape:window-y="36"
     inkscape:window-maximized="1"
     inkscape:current-layer="text6782" />
  <metadata
     id="metadata11">
    <rdf:RDF>
      <cc:Work
         rdf:about="">
        <dc:format>image/svg+xml</dc:format>
        <dc:type
           rdf:resource="http://purl.org/dc/dcmitype/StillImage" />
        <dc:title></dc:title>
      </cc:Work>
    </rdf:RDF>
  </metadata>
  <defs
     id="defs9" />
  <g
     aria-label="M182"
     transform="matrix(0.64926404,-0.56499853,0.77951492,0.86186079,0,0)"
     style="font-style:normal;font-weight:normal;font-size:431.86886597px;line-height:1.25;font-family:sans-serif;letter-spacing:0px;word-spacing:0px;fill:#000000;fill-opacity:1;stroke:none;stroke-width:10.79672146"
     id="text6782">
    <path
       style="fill:#000000;stroke-width:46.95996857"
       d="M -395.19774,915.93181 C -481.64306,844.41001 -533.40416,744.85573 -536.9267,643.33883 -541.9546,498.43974 -457.76276,367.38852 -302.92204,279.0924 -98.99128,162.80327 186.96927,159.47954 390.14755,271.03685 585.27053,378.17129 667.60877,561.82742 599.36825,737.70543 487.43057,1026.205 30.625743,1150.4606 -296.14843,981.29506 c -42.29168,-21.89371 -63.1313,-35.64589 -99.04919,-65.36337 z m 103.62247,33.12339 c 201.255551,107.7186 464.69334,104.2557 667.47144,-8.77379 C 419.63675,915.9002 487.64017,859.25963 515.18868,824.2636 600.46225,715.93706 616.70322,594.5881 561.08014,481.37295 510.05615,377.51878 400.52149,292.41185 264.3691,250.83254 c -302.056236,-92.24436 -651.49931,29.87374 -748.56353,261.59669 -56.08965,133.90392 -10.25862,285.16084 117.23977,386.92848 15.53041,12.39621 29.75542,23.78474 31.61123,25.30791 1.85593,1.52301 21.5514,12.49847 43.76816,24.38958 z m 238.897238,1.25282 c -1.227141,-3.2739 9.34202,-15.11926 29.077507,-32.58843 L 7.4050089,890.27464 -28.38608,864.28825 l -35.791207,-25.98639 28.819055,-24.00358 28.8190564,-24.0036 39.1816216,23.16244 39.181527,23.16245 33.182537,-26.01777 c 21.12126,-16.5607 35.77816,-25.72637 40.3234,-25.21611 11.54334,1.29591 56.30611,32.2343 56.78156,39.24535 0.27267,4.02067 -11.09781,15.93911 -31.10161,32.60042 l -31.5314,26.26275 37.63228,24.67009 37.63231,24.67011 -30.74977,23.99952 -30.74974,23.99954 -37.51958,-23.15181 -37.519563,-23.15181 -31.408637,26.1605 c -19.90827,16.58179 -34.545408,26.32152 -39.9756115,26.6003 -9.477106,0.48654 -56.3814905,-28.66807 -59.4981805,-36.98263 z M -486.20332,636.45362 c -9.6071,-9.53544 -9.6998,-30.89057 -0.18587,-42.83524 10.64552,-13.36542 80.68954,-71.70561 97.37973,-81.1084 7.08368,-3.99068 20.95647,-7.67047 30.82853,-8.1773 l 17.94918,-0.92148 167.6661,109.91468 167.6662146,109.91466 0.9270156,13.67004 c 1.183928,17.45777 -11.9741292,32.27426 -66.8535702,75.2799 -28.628088,22.43409 -47.29851,34.69134 -55.43423,36.39286 -28.74553,6.01188 -27.35205,6.74431 -195.40351,-102.70292 -86.84337,-56.55877 -160.88634,-105.80066 -164.53959,-109.4268 z m 346.2775,194.07753 c 5.9149,-0.30366 24.58864,-13.78443 60.321952,-43.54693 47.698562,-39.72854 51.461677,-43.70876 48.013842,-50.78374 -5.12404,-10.51459 -308.136774,-209.15653 -322.875384,-211.6631 -9.91729,-1.68659 -14.81697,1.54854 -62.51553,41.27708 -35.73332,29.7625 -51.62199,45.06906 -51.32517,49.44479 0.61801,9.11379 316.06081,215.90436 328.38029,215.2719 z M -328.53466,492.14681 c -10.7413,-20.21967 -0.45191,-34.41679 59.37304,-81.92204 49.19505,-39.06441 49.52406,-39.25362 70.73887,-40.68043 l 21.31401,-1.4335 167.2858219,109.66535 167.2858981,109.66535 0.61845,15.87301 0.6184,15.87302 -54.87495,45.70577 C 42.624497,715.8676 31.478289,721.05012 1.9926823,712.24131 -7.8951282,709.28732 -67.067374,672.38998 -167.27598,606.69253 -306.44647,515.45333 -322.03786,504.37627 -328.53466,492.14681 Z M 22.816909,694.98147 C 28.704583,694.6792 47.00155,681.53354 81.320661,652.94889 122.19716,618.90254 131.15541,609.8503 130.69466,603.05677 130.2011,595.77859 110.99305,582.21087 -25.415131,492.78758 -125.46888,427.19666 -184.80107,390.16484 -191.72267,388.98771 c -9.91729,-1.68659 -14.81698,1.54854 -62.51554,41.27708 -35.73331,29.7625 -51.62198,45.06905 -51.32517,49.44478 0.61801,9.11378 316.060809,215.90437 328.380289,215.2719 z M -165.79192,356.59712 c -10.76463,-20.26354 -0.49169,-34.38553 59.8936,-82.3341 l 49.945543,-39.65903 22.025559,-0.21368 22.025441,-0.2137 164.821617,108.04991 164.82162,108.0499 2.33721,16.18481 2.33724,16.18484 -47.3375,41.36877 c -57.23197,50.01574 -74.98317,59.2353 -103.49323,53.75204 C 154.36896,574.45571 137.5745,564.29463 -3.0314339,472.1195 -143.63732,379.94438 -159.29145,368.83356 -165.79192,356.59712 Z m 351.35156,202.83467 c 5.88762,-0.30226 24.18464,-13.44792 58.50376,-42.03258 40.87649,-34.04635 49.83472,-43.09857 49.374,-49.89211 C 292.94369,460.22663 273.6121,446.58012 135.96748,356.34627 -1.6771387,266.11242 -22.31691,253.55549 -32.158193,254.06073 c -9.183137,0.47144 -20.279028,8.12237 -61.155443,42.16872 -34.319104,28.58466 -49.802394,43.57487 -49.507004,47.93045 0.61801,9.11378 316.06075,215.90435 328.38028,215.27189 z"
       id="path7734"
       inkscape:connector-curvature="0" />
  </g>
</svg>
