<?xml version="1.0" encoding="UTF-8" standalone="no"?>
<svg
   xmlns:dc="http://purl.org/dc/elements/1.1/"
   xmlns:cc="http://creativecommons.org/ns#"
   xmlns:rdf="http://www.w3.org/1999/02/22-rdf-syntax-ns#"
   xmlns:svg="http://www.w3.org/2000/svg"
   xmlns="http://www.w3.org/2000/svg"
   width="1024pt"
   height="1024pt"
   viewBox="0 0 1024 1024"
   version="1.1"
   id="svg5">
  <metadata
     id="metadata11">
    <rdf:RDF>
      <cc:Work
         rdf:about="">
        <dc:format>image/svg+xml</dc:format>
        <dc:type
           rdf:resource="http://purl.org/dc/dcmitype/StillImage" />
        <dc:title></dc:title>
      </cc:Work>
    </rdf:RDF>
  </metadata>
  <defs
     id="defs9" />
  <path
     style="font-style:normal;font-weight:normal;font-size:431.86886597px;line-height:1.25;font-family:sans-serif;letter-spacing:0px;word-spacing:0px;fill:#000000;fill-opacity:1;stroke:none;stroke-width:46.95996857"
     d="M 455.80456,1010.6672 C 343.92638,997.86686 232.71568,941.30992 151.29467,855.80662 35.079217,733.76452 -12.414486,573.24832 19.289916,409.66456 61.045716,194.219 244.11888,29.787116 462.99576,11.138566 673.19494,-6.770684 869.81692,104.99436 962.61037,295.13251 1114.823,607.02362 915.09517,972.20872 571.06534,1011.0386 c -44.52495,5.0254 -68.77539,4.9472 -115.26081,-0.3715 z m 93.09848,-29.99874 c 214.63633,-20.87074 382.97758,-172.69724 426.52588,-384.68224 9.39375,-45.7266 9.39375,-132.96471 0,-178.69128 C 946.35187,275.7531 862.30327,161.99106 737.93623,95.842324 623.85233,35.162966 486.39332,23.699586 365.58278,64.789916 97.562721,155.94938 -34.125384,458.63302 83.485816,713.18712 c 67.963164,147.0971 215.626664,251.5651 377.736154,267.23824 19.74636,1.9092 37.85973,3.6873 40.25198,3.9516 2.39217,0.264 23.73528,-1.4046 47.42909,-3.7085 z"
     id="path7734" />
  <path
     d="m 388.80642,814.21526 -193.56395,-143.48793 -0.91695,0.84106 17.20196,18.62004 q 11.46796,12.41193 24.58706,26.74897 12.84495,14.01699 23.02793,25.88694 l 91.38005,106.51507 -30.94902,28.39299 -196.52006,-229.07006 47.22502,-43.32593 189.02302,139.62698 0.68802,-0.63106 -109.24502,-212.81901 47.22494,-43.32603 196.52005,229.07008 -32.32299,29.65596 -93.03104,-108.44001 q -9.35795,-10.908 -21.23993,-25.235 -11.65109,-14.53701 -22.15611,-27.26 l -15.82698,-19.88001 -0.91662,0.84233 111.67697,218.04008 z M 609.80145,611.46729 575.1855,643.22534 461.51146,510.72434 q -7.15597,-8.34204 -18.48701,-22.02706 -11.10105,-13.89499 -19.67997,-24.37195 0.50597,2.97694 1.01199,11.68495 0.46002,8.17801 0.55395,14.97205 l -0.63196,38.42098 -41.78201,-13.84201 2.35797,-107.08502 28.42701,-26.08003 z m -96.982,-325.55001 q 14.21298,-13.04002 31.13499,-17.67005 17.15002,-4.84092 34.71598,0.83006 17.79503,5.461 33.75907,24.06998 17.61491,20.53201 20.69296,41.78902 3.03202,20.72503 -2.14602,40.95498 14.21705,-1.57595 29.44205,-0.0639 15.17995,0.97996 29.90297,8.11298 14.67701,6.60197 27.88802,22.00201 16.23992,18.92799 21.01401,39.77506 5.00396,20.63594 -1.45801,40.32392 -6.23199,19.478 -23.19601,35.042 -27.51003,25.23801 -56.67804,22.75701 -28.93797,-2.69103 -53.43399,-31.24503 -20.36799,-23.73998 -23.58396,-46.58998 -3.21498,-22.84993 2.14503,-43.82198 -19.26005,0.47007 -38.61507,-5.85301 -19.4,-6.85503 -37.01598,-27.38796 -15.68901,-18.28707 -18.81204,-37.21002 -3.12291,-18.91998 3.56803,-35.95306 6.921,-17.24299 20.67601,-29.86199 z m 30.04699,35.50096 q -8.48198,7.78204 -8.98401,19.13605 -0.272,11.14305 9.36102,22.37199 10.18397,11.87002 22.47503,13.78106 12.28993,1.91095 24.99299,0.004 3.39094,-12.28401 3.29597,-24.80996 -0.37002,-12.84799 -11.10401,-25.36002 -9.633,-11.23006 -20.59393,-12.06699 -10.73203,-1.04798 -19.44301,6.94398 z m 91.20899,158.84501 q 10.734,12.51203 23.80399,14.85401 13.29998,2.13201 25.68,-9.22499 12.83806,-11.77793 12.65004,-25.36695 -0.18599,-13.58897 -11.195,-26.42199 -7.43201,-8.662 -16.60498,-11.71406 -9.44802,-3.37194 -19.35304,-3.45693 -9.95198,-0.61707 -19.53701,0.14999 l -4.90696,0.48798 q -4.49,16.73302 -3.15599,32.13597 1.33395,15.40302 12.61895,28.55697 z M 900.94652,344.36129 786.55141,449.31127 757.65146,415.62425 748.86845,319.90724 q -3.03399,-29.32397 -5.65201,-48.13499 -2.89402,-19.13195 -7.71305,-31.91097 -5.09299,-13.10001 -14.72696,-24.32999 -11.83495,-13.79496 -23.11695,-15.485 -11.05299,-1.89996 -20.223,6.51301 -9.39899,8.62302 -13.11006,22.92098 -3.71093,14.29799 -3.93494,34.57104 l -45.49706,-13.87406 q -0.32495,-15.18196 1.14005,-29.71199 1.69295,-14.73995 8.15499,-28.69596 6.417,-14.48701 21.08999,-27.94798 16.04695,-14.72206 34.66498,-16.89707 18.57301,-2.70495 36.87301,5.73203 18.254,7.90698 33.392,25.55198 16.24003,18.93005 24.22401,39.69704 8.21406,20.558 11.11003,45.42196 3.12401,24.65399 4.64498,56.51198 l 2.58,46.94008 1.92587,2.24606 71.297,-65.41006 z"
     style="font-style:normal;font-weight:700;font-size:431.86898804px;line-height:1.25;font-family:sans-serif;-inkscape-font-specification:'sans-serif Bold';letter-spacing:0;word-spacing:0;fill:#000000;fill-opacity:1;stroke:none;stroke-width:10.79699993"
     font-weight="700"
     id="path2" />
</svg>
