<?xml version="1.0" encoding="UTF-8" standalone="no"?>
<svg
   xmlns:dc="http://purl.org/dc/elements/1.1/"
   xmlns:cc="http://creativecommons.org/ns#"
   xmlns:rdf="http://www.w3.org/1999/02/22-rdf-syntax-ns#"
   xmlns:svg="http://www.w3.org/2000/svg"
   xmlns="http://www.w3.org/2000/svg"
   width="1024pt"
   height="1024pt"
   viewBox="0 0 1024 1024"
   version="1.1"
   id="svg5">
  <metadata
     id="metadata11">
    <rdf:RDF>
      <cc:Work
         rdf:about="">
        <dc:format>image/svg+xml</dc:format>
        <dc:type
           rdf:resource="http://purl.org/dc/dcmitype/StillImage" />
        <dc:title></dc:title>
      </cc:Work>
    </rdf:RDF>
  </metadata>
  <defs
     id="defs9" />
  <path
     style="font-style:normal;font-weight:normal;font-size:431.86886597px;line-height:1.25;font-family:sans-serif;letter-spacing:0px;word-spacing:0px;fill:#000000;fill-opacity:1;stroke:none;stroke-width:46.95996857"
     d="M 455.80456,1010.6672 C 343.92638,997.86686 232.71568,941.30992 151.29467,855.80662 35.079217,733.76452 -12.414486,573.24832 19.289916,409.66456 61.045716,194.219 244.11888,29.787116 462.99576,11.138566 673.19494,-6.770684 869.81692,104.99436 962.61037,295.13251 1114.823,607.02362 915.09517,972.20872 571.06534,1011.0386 c -44.52495,5.0254 -68.77539,4.9472 -115.26081,-0.3715 z m 93.09848,-29.99874 c 214.63633,-20.87074 382.97758,-172.69724 426.52588,-384.68224 9.39375,-45.7266 9.39375,-132.96471 0,-178.69128 C 946.35187,275.7531 862.30327,161.99106 737.93623,95.842324 623.85233,35.162966 486.39332,23.699586 365.58278,64.789916 97.562721,155.94938 -34.125384,458.63302 83.485816,713.18712 c 67.963164,147.0971 215.626664,251.5651 377.736154,267.23824 19.74636,1.9092 37.85973,3.6873 40.25198,3.9516 2.39217,0.264 23.73528,-1.4046 47.42909,-3.7085 z"
     id="path7734" />
  <path
     id="path6293"
     d="m 211.04304,527.08159 0.248,-305.735 25.13306,-15.01464 25.13309,-15.01465 250.09888,-0.0669 250.09885,-0.0669 0.0105,222.00894 c 0.0105,222.58657 0.15086,232.79529 3.52095,255.51976 6.34118,42.75843 22.49752,82.08101 42.89328,104.39732 l 5.0252,5.49828 h -37.55212 -37.55211 v 27.10433 27.10433 h -263.6529 -263.6526 z m 492.56083,261.38253 v -9.85611 H 508.58921 313.57455 l -5.05595,-2.71048 c -18.9092,-10.1369 -33.92598,-38.37694 -41.01125,-77.124 -4.9257,-26.93754 -4.79866,-21.01405 -5.39373,-251.49449 l -0.55643,-215.51961 -7.8849,4.64171 -7.88488,4.6417 -0.24812,278.63868 -0.24811,278.63873 H 474.44753 703.60387 Z M 416.41921,738.93709 C 404.68876,720.56653 396.3521,693.23433 392.89539,661.81307 l -1.30115,-11.82738 -47.03114,-0.25589 -47.0311,-0.25601 0.0105,5.18406 c 0.017,8.34649 2.75916,31.93142 5.00542,43.05085 3.69346,18.28353 9.08462,31.92312 16.49069,41.72126 l 3.53861,4.68163 h 48.57302 48.57298 l -3.30411,-5.1745 z m 118.6451,4.61293 c 0,-0.30892 -1.27091,-2.41563 -2.82424,-4.68175 -11.61816,-16.94863 -20.9424,-48.63903 -24.33943,-82.72245 l -0.66309,-6.65289 h -50.15134 -50.15134 l 0.0105,4.18886 c 0.0281,11.3201 6.34705,42.31268 11.32109,55.52741 4.06259,10.79334 11.09544,23.39555 16.34006,29.27986 l 5.01124,5.62253 h 47.72331 c 26.2478,0 47.72329,-0.25278 47.72329,-0.56157 z m 115.31005,-0.17764 c -0.005,-0.40654 -0.91441,-2.06981 -2.02403,-3.69598 -10.75131,-15.75679 -20.47166,-46.82107 -23.59326,-75.39929 -0.6217,-5.69193 -1.32851,-11.34685 -1.57065,-12.56659 l -0.44026,-2.21759 h -50.24737 c -43.21781,0 -50.24741,0.19975 -50.24741,1.4279 0,0.78543 0.68386,6.6446 1.51965,13.0204 4.55308,34.73305 14.10141,60.68507 28.26057,76.81152 l 2.94914,3.35884 h 47.70006 c 26.235,0 47.6971,-0.33267 47.69356,-0.73921 z m 94.62516,0.41899 c 0,-0.176 -1.12679,-3.61333 -2.50397,-7.63841 -7.98515,-23.33838 -12.07837,-45.20596 -14.79322,-79.03154 l -0.61385,-7.64844 -44.49474,0.25635 -44.49472,0.25636 0.26509,4.43529 c 0.53238,8.90588 5.30071,34.85732 8.20391,44.64913 5.32623,17.96389 12.15004,31.35947 20.69976,40.63476 l 4.06197,4.40672 h 36.83487 c 20.25921,0 36.8349,-0.14408 36.8349,-0.32022 z M 390.17944,586.41378 V 538.11881 H 343.85575 297.532 v 48.29497 48.29496 h 46.32375 46.32369 z m 116.06514,0.24643 -0.25578,-48.04852 -50.5126,-0.25543 -50.51255,-0.25531 v 48.30384 48.30395 h 50.76833 50.76837 z m 115.55355,-0.24643 v -48.29497 h -50.2662 -50.26615 v 48.29497 48.29496 h 50.26615 50.2662 z m 105.46038,0 V 538.11881 H 681.9204 636.58229 v 48.29497 48.29496 h 45.33811 45.33811 z M 390.17944,475.03972 V 426.74476 H 343.85575 297.532 v 48.29496 48.29493 h 46.32375 46.32369 z m 116.06514,0.2464 -0.25578,-48.04855 -50.5126,-0.25536 -50.51255,-0.25535 v 48.30391 48.30388 h 50.76833 50.76837 z m 115.55355,-0.2464 v -48.29496 h -50.2662 -50.26615 v 48.29496 48.29493 h 50.26615 50.2662 z m 105.22338,0.2464 -0.25582,-48.04855 -45.0917,-0.25635 -45.0917,-0.25635 v 48.30489 48.30489 h 45.34747 45.34752 z M 390.17944,363.66564 V 315.37069 H 343.85575 297.532 v 48.29495 48.29495 h 46.32375 46.32369 z m 116.06514,0.2464 -0.25578,-48.04855 -50.5126,-0.25534 -50.51255,-0.25537 v 48.3039 48.30391 h 50.76833 50.76837 z m 115.55355,-0.2464 v -48.29495 h -50.2662 -50.26615 v 48.29495 48.29495 h 50.26615 50.2662 z m 105.22338,0.2464 -0.25582,-48.04855 -45.0917,-0.25635 -45.0917,-0.25634 v 48.3049 48.30489 h 45.34747 45.34752 z"
     style="fill:#000000;stroke-width:0.985609" />
</svg>
