<?xml version="1.0" encoding="UTF-8"?>
<!-- Created with Inkscape (http://www.inkscape.org/) -->
<svg width="1365.3" height="1365.3" version="1.1" viewBox="0 0 1365.3 1365.3" xmlns="http://www.w3.org/2000/svg">
 <path d="m1337.1 682.67a654.47 661.27 0 0 1-654.47 661.27 654.47 661.27 0 0 1-654.47-661.27 654.47 661.27 0 0 1 654.47-661.27 654.47 661.27 0 0 1 654.47 661.27z" color="#000000" fill-opacity="0" stroke-width="46.667" style="-inkscape-stroke:none"/>
 <path d="m682.67-1.9395c-179.82-1.4e-6 -352.28 72.197-479.36 200.6-127.08 128.4-198.44 302.51-198.44 484 1.36e-5 181.5 71.356 355.6 198.44 484.01 127.08 128.4 299.54 200.6 479.36 200.6 179.82 0 352.28-72.197 479.37-200.6 127.08-128.4 198.44-302.51 198.44-484.01 0-181.5-71.356-355.6-198.44-484-127.08-128.4-299.55-200.6-479.37-200.6zm0 46.666c167.33 0 327.81 67.141 446.2 186.76s184.94 281.91 184.94 451.18c0 169.26-66.549 331.56-184.94 451.18-118.39 119.62-278.86 186.76-446.2 186.76-167.33 0-327.81-67.143-446.2-186.76-118.39-119.62-184.94-281.91-184.94-451.18-1e-6 -169.26 66.551-331.56 184.94-451.18 118.39-119.62 278.86-186.76 446.2-186.76z" color="#000000" fill-rule="evenodd" style="-inkscape-stroke:none"/>
 <g transform="matrix(1.0171 0 0 1.0171 -156.42 -106.82)" stroke-width=".98319" style="shape-inside:url(#rect3153);white-space:pre" aria-label="N43">
  <path d="m271.3 557.22h79.688l193.95 365.92v-365.92h57.422v437.4h-79.688l-193.95-365.92v365.92h-57.422z"/>
  <path d="m889 608.78-149.41 233.5h149.41zm-15.527-51.562h74.414v285.06h62.402v49.219h-62.402v103.12h-58.887v-103.12h-197.46v-57.129z"/>
  <path d="m1288.4 758.78q42.48 9.082 66.211 37.793 24.024 28.711 24.024 70.898 0 64.746-44.531 100.2-44.531 35.449-126.56 35.449-27.539 0-56.836-5.5664-29.004-5.2734-60.059-16.113v-57.129q24.609 14.355 53.906 21.68 29.297 7.3242 61.23 7.3242 55.664 0 84.668-21.973 29.297-21.973 29.297-63.867 0-38.672-27.246-60.352-26.953-21.973-75.293-21.973h-50.977v-48.633h53.32q43.652 0 66.797-17.285 23.145-17.578 23.145-50.391 0-33.691-24.024-51.562-23.73-18.164-68.262-18.164-24.316 0-52.148 5.2734-27.832 5.2734-61.23 16.406v-52.734q33.691-9.375 62.988-14.062 29.59-4.6875 55.664-4.6875 67.383 0 106.64 30.762 39.258 30.469 39.258 82.617 0 36.328-20.801 61.523-20.801 24.902-59.18 34.57z"/>
 </g>
</svg>
