<?xml version="1.0" encoding="UTF-8" standalone="no"?>
<svg
   xmlns:dc="http://purl.org/dc/elements/1.1/"
   xmlns:cc="http://creativecommons.org/ns#"
   xmlns:rdf="http://www.w3.org/1999/02/22-rdf-syntax-ns#"
   xmlns:svg="http://www.w3.org/2000/svg"
   xmlns="http://www.w3.org/2000/svg"
   xmlns:xlink="http://www.w3.org/1999/xlink"
   xmlns:sodipodi="http://sodipodi.sourceforge.net/DTD/sodipodi-0.dtd"
   xmlns:inkscape="http://www.inkscape.org/namespaces/inkscape"
   id="svg5"
   version="1.1"
   viewBox="0 0 1024 1024"
   height="1024pt"
   width="1024pt"
   sodipodi:docname="action-payments-aggregated.svg"
   inkscape:version="1.0.1 (3bc2e813f5, 2020-09-07)">
  <sodipodi:namedview
     pagecolor="#ffffff"
     bordercolor="#666666"
     borderopacity="1"
     objecttolerance="10"
     gridtolerance="10"
     guidetolerance="10"
     inkscape:pageopacity="0"
     inkscape:pageshadow="2"
     inkscape:window-width="1251"
     inkscape:window-height="908"
     id="namedview8"
     showgrid="false"
     inkscape:zoom="0.63134766"
     inkscape:cx="682.66667"
     inkscape:cy="682.66667"
     inkscape:window-x="2203"
     inkscape:window-y="51"
     inkscape:window-maximized="0"
     inkscape:current-layer="svg5"
     inkscape:document-rotation="0" />
  <metadata
     id="metadata11">
    <rdf:RDF>
      <cc:Work
         rdf:about="">
        <dc:format>image/svg+xml</dc:format>
        <dc:type
           rdf:resource="http://purl.org/dc/dcmitype/StillImage" />
        <dc:title></dc:title>
      </cc:Work>
    </rdf:RDF>
  </metadata>
  <defs
     id="defs9">
    <linearGradient
       inkscape:collect="always"
       id="linearGradient1016">
      <stop
         style="stop-color:#000000;stop-opacity:1;"
         offset="0"
         id="stop1012" />
      <stop
         style="stop-color:#000000;stop-opacity:0;"
         offset="1"
         id="stop1014" />
    </linearGradient>
    <linearGradient
       inkscape:collect="always"
       xlink:href="#linearGradient1016"
       id="linearGradient1018"
       x1="487.1834"
       y1="-765.92902"
       x2="771.48083"
       y2="-765.92902"
       gradientUnits="userSpaceOnUse" />
  </defs>
  <path
     id="path866"
     d="m 259.47201,665.78934 c -18.9051,-4.60862 -34.16183,-20.33365 -38.15696,-39.32829 -0.91042,-4.32842 -1.26999,-66.29119 -1.2603,-217.15547 0.0141,-226.78948 -0.25733,-215.93438 5.71778,-228.27732 5.95771,-12.30703 21.01317,-23.73149 35.18441,-26.69884 8.34527,-1.74744 104.2238,-1.73221 112.46542,0.0179 19.71118,4.18555 35.95969,20.89527 39.74921,40.87732 0.64162,3.38326 1.16487,14.69597 1.16268,25.13936 v 18.98798 l -19.71153,0.13576 c -16.95242,0.11679 -21.58641,0.56365 -33.10571,3.19249 -7.36682,1.68121 -16.31923,4.06312 -19.89439,5.29312 -3.57552,1.23002 -6.67727,2.23641 -6.89319,2.23641 -0.21586,0 -0.39249,-3.36355 -0.39249,-7.47453 0,-9.66567 -2.88732,-15.62108 -9.11326,-18.79732 -2.48096,-1.26569 -6.2028,-2.29278 -8.27081,-2.28243 -5.22391,0.0261 -12.2582,4.35901 -14.78459,9.10674 -2.037,3.82817 -2.11905,10.77898 -2.11905,179.45684 0,168.67786 0.082,175.62869 2.11905,179.45683 2.52639,4.74774 9.56068,9.08063 14.78459,9.10676 2.06801,0.0103 5.78985,-1.01676 8.27081,-2.28243 6.22594,-3.17624 9.11326,-9.13167 9.11326,-18.79733 0,-4.11098 0.17663,-7.47454 0.39249,-7.47454 0.21592,0 3.31767,1.00639 6.89277,2.2364 3.57508,1.23002 12.52758,3.61193 19.89432,5.29313 11.5193,2.62884 16.15327,3.07572 33.10569,3.19248 l 19.71154,0.13578 v 20.04676 c 0.007,21.7781 -1.11545,28.61774 -6.38827,39.02315 -6.14575,12.12797 -20.58486,22.97491 -34.52361,25.93472 -8.67589,1.84229 -106.21505,1.5843 -113.95036,-0.30139 z m 483.73303,-80.95927 c -2.62719,-1.52273 -5.17946,-4.31593 -6.57181,-7.19214 -2.23531,-4.61752 -2.27646,-7.23083 -2.27646,-144.56044 0,-137.52406 0.0381,-139.9367 2.28594,-144.58004 1.4569,-3.00951 3.89678,-5.62748 6.72743,-7.2184 4.13828,-2.32583 5.9417,-2.49625 26.41727,-2.49625 20.47555,0 22.27898,0.17042 26.41726,2.49625 2.83063,1.59092 5.27053,4.20889 6.7274,7.2184 2.24781,4.64334 2.28596,7.05598 2.28596,144.58004 0,137.52407 -0.0381,139.93671 -2.28596,144.58004 -1.45687,3.00952 -3.89677,5.62748 -6.7274,7.2184 -4.14666,2.33054 -5.91066,2.4945 -26.57289,2.46999 -20.63242,-0.0244 -22.42232,-0.19487 -26.42674,-2.51585 z M 584.88615,551.86223 c -12.12933,-1.57583 -26.29771,-5.57159 -45.39785,-12.8031 -10.05774,-3.80795 -18.75073,-7.32856 -19.31779,-7.82358 -0.571,-0.49846 1.87451,-4.03833 5.48123,-7.934 8.81276,-9.51884 19.09898,-25.06802 26.07527,-39.41678 l 5.77339,-11.87465 7.29296,6.05345 c 15.62847,12.97227 38.0134,21.82829 58.58138,23.17618 9.87602,0.64722 11.5358,0.46567 15.84592,-1.73317 5.38062,-2.745 9.41684,-9.1732 9.41684,-14.99753 0,-5.56724 -4.04606,-12.26242 -8.87303,-14.68258 -2.66408,-1.33573 -7.93675,-2.3887 -14.01637,-2.79909 -23.52849,-1.58823 -44.38118,-15.19547 -56.5713,-36.91507 -3.67597,-6.54966 -6.61544,-10.35933 -9.00155,-11.66638 -3.16238,-1.73229 -9.86803,-2.00224 -62.40368,-2.51229 -58.36582,-0.56666 -58.9011,-0.59313 -63.68622,-3.15005 -7.56845,-4.04421 -12.52956,-9.03182 -15.98685,-16.0721 -4.27221,-8.69962 -4.5406,-22.15663 -0.5905,-29.60606 3.96779,-7.48281 8.64105,-12.13027 15.8919,-15.80421 l 6.65406,-3.37154 58.07074,-0.31613 58.07073,-0.31613 -0.78933,-2.54118 c -1.68001,-5.40863 -9.74874,-20.28521 -16.59877,-30.6037 -12.90607,-19.44096 -38.12055,-42.58315 -58.59588,-53.78017 l -5.68997,-3.11155 4.48177,-1.1764 c 2.46502,-0.64703 19.39699,-4.6759 37.62658,-8.95306 32.83182,-7.70325 33.29586,-7.77612 49.14572,-7.71736 28.35051,0.10503 34.75934,2.67052 94.86265,37.97328 l 38.8594,22.82479 0.29073,126.4362 0.29071,126.4362 -54.00812,-0.14493 c -29.70448,-0.0797 -57.23762,-0.56449 -61.18477,-1.07731 z m -201.97835,-5.242 c -14.20613,-1.6868 -29.53883,-5.79171 -40.85957,-10.93902 l -7.71469,-3.50777 V 410.20591 288.23836 l 6.83336,-3.06663 c 35.07376,-15.74018 75.45085,-15.89788 110.74243,-0.43252 11.99761,5.25754 27.16187,14.93124 36.14744,23.05949 l 5.71459,5.16938 -26.39015,0.0512 c -22.42553,0.0436 -27.71635,0.3904 -35.21803,2.30899 -12.83814,3.28345 -21.67149,8.38203 -31.66395,18.27638 -17.67943,17.50589 -24.25121,40.80876 -18.19099,64.50391 3.30203,12.91093 8.37649,21.67865 18.27636,31.5786 9.89995,9.89993 18.66765,14.97432 31.57858,18.27638 8.03732,2.05562 12.75051,2.25779 52.63091,2.25779 h 43.80308 l -2.33107,6.00034 c -14.04446,36.15146 -38.53139,62.78829 -72.24367,78.58638 -20.06267,9.40167 -49.80689,14.3422 -71.11463,11.81217 z"
     style="fill:#000000;stroke-width:1.14292" />
  <g
     aria-label="+"
     transform="matrix(1.1270544,0,0,-1.1270544,-167.41063,-89.256407)"
     id="text833"
     style="font-style:normal;font-weight:normal;font-size:574.872px;line-height:1.25;font-family:sans-serif;fill:#000000;fill-opacity:1;stroke:url(#linearGradient1018);stroke-width:19.96354331;stroke-miterlimit:4;stroke-dasharray:none;stroke-opacity:1;stroke-dashoffset:0">
    <path
       d="m 650.02751,-786.04955 h 114.39953 v 40.81592 H 650.02751 V -626.81 H 608.63672 V -745.23363 H 494.23719 v -40.81592 h 114.39953 v -118.9985 h 41.39079 z"
       style="stroke:url(#linearGradient1018);stroke-width:19.96354331;stroke-miterlimit:4;stroke-dasharray:none;stroke-opacity:1;stroke-dashoffset:0"
       id="path932" />
  </g>
  <path
     style="font-style:normal;font-weight:400;font-size:431.869px;line-height:1.25;font-family:sans-serif;letter-spacing:0;word-spacing:0;fill:#000000;fill-opacity:1;stroke:none;stroke-width:47.5032"
     d="M 454.84546,1016.5873 C 341.67233,1003.6391 229.17493,946.42791 146.81314,859.93589 29.252845,736.4822 -18.790522,574.10849 13.281212,408.63331 55.520207,190.69521 240.71085,24.361201 462.11964,5.4974973 674.75006,-12.619671 873.64541,100.43813 967.51267,292.7765 c 153.97363,315.49767 -48.06452,684.90784 -396.07399,724.1871 -45.04003,5.0831 -69.57052,5.0042 -116.59322,-0.3763 z m 94.17486,-30.34619 c 217.11866,-21.11134 387.4079,-174.69453 431.45963,-389.13162 9.50273,-46.25492 9.50273,-134.502 0,-180.75793 C 951.06671,273.17233 866.0455,158.09339 740.23993,91.180268 624.83628,29.799385 485.78727,18.203791 363.57984,59.769084 92.459596,151.98354 -40.751646,458.16772 78.219776,715.66619 146.96892,864.46464 296.33998,970.14106 460.32512,985.99533 c 19.97439,1.93211 38.29792,3.73072 40.7176,3.99775 2.41966,0.26704 24.00954,-1.42127 47.9776,-3.75197 z"
     id="path2" />
</svg>
