<?xml version="1.0" encoding="UTF-8" standalone="no"?>
<!-- Created with Inkscape (http://www.inkscape.org/) -->

<svg
   width="210mm"
   height="210mm"
   viewBox="0 0 210 210"
   version="1.1"
   id="svg1"
   xml:space="preserve"
   sodipodi:docname="admin-stic-messages.svg"
   inkscape:version="1.3.1 (9b9bdc1480, 2023-11-25, custom)"
   xmlns:inkscape="http://www.inkscape.org/namespaces/inkscape"
   xmlns:sodipodi="http://sodipodi.sourceforge.net/DTD/sodipodi-0.dtd"
   xmlns="http://www.w3.org/2000/svg"
   xmlns:svg="http://www.w3.org/2000/svg"><sodipodi:namedview
     id="namedview1"
     pagecolor="#ffffff"
     bordercolor="#000000"
     borderopacity="0.25"
     inkscape:showpageshadow="2"
     inkscape:pageopacity="0.0"
     inkscape:pagecheckerboard="0"
     inkscape:deskcolor="#d1d1d1"
     inkscape:document-units="mm"
     inkscape:zoom="1.0431888"
     inkscape:cx="396.38079"
     inkscape:cy="331.19604"
     inkscape:window-width="2490"
     inkscape:window-height="1371"
     inkscape:window-x="70"
     inkscape:window-y="32"
     inkscape:window-maximized="1"
     inkscape:current-layer="layer1"
     showgrid="false" /><defs
     id="defs1"><linearGradient
       id="swatch1"
       inkscape:swatch="solid"><stop
         style="stop-color:#000000;stop-opacity:1;"
         offset="0"
         id="stop1" /></linearGradient></defs><g
     inkscape:label="Layer 1"
     inkscape:groupmode="layer"
     id="layer1"><path
       style="fill:#000000;stroke-width:3.16496;fill-opacity:1"
       d="m 45.398597,179.27699 c -4.111749,-1.72429 -7.897229,-4.72934 -9.935699,-7.88731 -2.557202,-3.9616 -2.816415,-126.869397 -0.276015,-130.88301 5.897831,-9.318093 6.841849,-9.493741 51.017984,-9.493741 44.483353,0 46.038233,0.311006 51.267243,10.25439 1.56121,2.968826 1.78919,21.542574 0.27371,22.289012 -3.42539,1.686972 -5.57516,-0.346322 -5.57516,-5.273148 0,-4.844639 0,-4.844639 -45.965651,-4.844639 H 40.239184 V 102.7749 152.11124 H 86.204848 132.1705 v -17.84898 c 0,-19.27816 0.3347,-20.63713 4.63043,-18.8051 2.46301,1.05041 3.06557,50.25228 0.67116,54.80546 -1.85592,3.52921 -5.97864,7.12783 -10.07256,8.79213 -4.98836,2.02793 -77.228239,2.22369 -82.000933,0.22235 z m 79.276863,-5.67453 c 5.3419,-2.89715 6.92879,-5.28691 7.33741,-11.04982 0.36937,-5.20875 0.36937,-5.20875 -45.702165,-5.20875 -46.071521,0 -46.071521,0 -46.071521,4.60631 0,5.57209 2.965486,10.22801 7.698455,12.08681 5.607353,2.20222 72.575251,1.82298 76.737821,-0.43455 z m -47.147802,-5.10565 c -1.895984,-0.87999 -2.148734,-2.97461 -0.515942,-4.27573 0.72693,-0.57926 4.481912,-0.89703 10.600259,-0.89703 9.748902,0 11.725929,0.52491 11.725929,3.11329 0,2.662 -17.044391,4.27146 -21.810246,2.05947 z M 131.8079,45.776457 c -0.74998,-3.051268 -3.14412,-5.685922 -7.13244,-7.84898 -3.07978,-1.670273 -3.34431,-1.681913 -38.233053,-1.681913 -39.803544,0 -39.782551,-0.0027 -43.890029,5.582459 -5.063557,6.885193 -8.545154,6.377858 43.769732,6.377858 46.08293,0 46.08293,0 45.48579,-2.429424 z m -19.70563,78.989153 c -0.31307,-0.65035 -0.56941,-3.67779 -0.56941,-6.72768 0,-5.54527 0,-5.54527 -6.13485,-5.54527 -15.337954,0 -19.193162,-4.72974 -19.193162,-23.546886 0,-22.874582 0.586176,-23.173156 45.496622,-23.173156 43.86569,0 43.62049,-0.130245 43.62049,23.197025 0,21.580577 -2.22865,23.523017 -26.98911,23.523017 -14.20177,0 -14.20177,0 -22.8314,6.72768 -8.62731,6.7259 -12.13217,8.17636 -13.39918,5.54527 z m 33.02214,-17.50559 c 23.05051,0 23.63101,-0.45688 23.63101,-18.59768 0,-18.120518 1.78673,-17.283305 -36.88605,-17.283305 -40.747834,0 -38.628947,-0.990032 -38.628947,18.048872 0,16.176043 1.517184,17.832113 16.336717,17.832113 8.61095,0 9.46034,0.54734 9.46034,6.09629 0,3.20451 0,3.20451 5.8882,-1.44589 5.88822,-4.6504 5.88822,-4.6504 20.19873,-4.6504 z"
       id="path1" /><path
       style="fill:#000000;fill-opacity:1;fill-rule:evenodd;stroke:none;stroke-width:0.203904"
       d="m 105.16276,-0.08824889 c -27.622499,0 -54.116606,11.02623089 -73.648868,30.64927089 C 11.982424,50.184858 1.0076427,76.80318 1.0076427,104.55518 c 0,27.752 10.9747813,54.37033 30.5062493,73.99416 19.532262,19.62305 46.026369,30.64928 73.648868,30.64928 27.62249,0 54.11661,-11.02623 73.64886,-30.64928 19.53147,-19.62383 30.50625,-46.24216 30.50625,-73.99416 0,-27.752 -10.97478,-54.370322 -30.50625,-73.994158 -19.53225,-19.62304 -46.02637,-30.64927089 -73.64886,-30.64927089 z m 0,6.75098129 c 25.8425,0 50.62416,10.3124946 68.89771,28.6717196 18.27355,18.359225 28.53792,43.257068 28.53792,69.220728 0,25.96366 -10.26437,50.86071 -28.53792,69.22073 -18.27355,18.35923 -43.05521,28.67172 -68.89771,28.67172 -25.842505,0 -50.623366,-10.31249 -68.897714,-28.67172 C 17.991495,155.41589 7.7271218,130.51884 7.7271218,104.55518 7.7271218,78.59152 17.991495,53.693677 36.265046,35.334452 54.539394,16.975227 79.320255,6.6627324 105.16276,6.6627324 Z"
       id="path261" /></g></svg>
