<?xml version="1.0" encoding="UTF-8" standalone="no"?>
<svg
   id="svg5"
   version="1.1"
   viewBox="0 0 1024 1024"
   height="1024pt"
   width="1024pt"
   xmlns="http://www.w3.org/2000/svg"
   xmlns:svg="http://www.w3.org/2000/svg"
   xmlns:rdf="http://www.w3.org/1999/02/22-rdf-syntax-ns#"
   xmlns:cc="http://creativecommons.org/ns#"
   xmlns:dc="http://purl.org/dc/elements/1.1/">
  <metadata
     id="metadata11">
    <rdf:RDF>
      <cc:Work
         rdf:about="">
        <dc:format>image/svg+xml</dc:format>
        <dc:type
           rdf:resource="http://purl.org/dc/dcmitype/StillImage" />
      </cc:Work>
    </rdf:RDF>
  </metadata>
  <defs
     id="defs9" />
  <path
     style="fill:#000000;fill-opacity:1;fill-rule:nonzero;stroke:none;stroke-width:1"
     d="M 512.00196,9.9999982e-8 C 229.42631,9.9999982e-8 2.45e-6,229.42545 2.45e-6,512.00003 2.45e-6,794.57463 229.42631,1024 512.00196,1024 794.57365,1024 1024,794.57463 1024,512.00003 1024,229.42545 794.57364,9.9999982e-8 512.00196,9.9999982e-8 Z M 512.00196,33.034692 c 264.72296,0 478.96713,214.243368 478.96713,478.965338 0,264.72198 -214.24417,478.96932 -478.96713,478.96932 -264.72694,0 -478.971104,-214.24734 -478.971104,-478.96932 0,-264.72197 214.244164,-478.965338 478.971104,-478.965338 z m 0,0"
     id="path3754" />
  <path
     d="M 299.27273,334.27273 V 617.9091 H 724.72728 V 334.27273 H 299.27273 m 0,-47.27273 h 425.45455 c 26,0 47.27273,21.03637 47.27273,47.27273 V 617.9091 c 0,12.52727 -4.96364,24.58182 -13.94546,33.32727 -8.74545,8.98178 -20.8,13.94548 -33.32727,13.94548 H 559.27273 v 47.2727 h 47.27273 v 47.2727 H 417.45455 v -47.2727 h 47.27273 v -47.2727 H 299.27273 c -12.52727,0 -24.58182,-4.9637 -33.32727,-13.94548 C 256.96364,642.49092 252,630.43637 252,617.9091 V 334.27273 C 252,308.03637 273.03636,287 299.27273,287 m 185.30909,163.80001 c 7.32727,-7.09091 17.25455,-11.34546 27.41818,-11.34546 10.16364,0.25212 20.09091,4.25455 27.41819,11.58182 7.09091,7.09091 11.34545,17.01818 11.34545,27.18182 0,10.4 -4.25454,20.09091 -11.34545,27.41818 -7.32728,7.32727 -17.25455,11.34546 -27.41819,11.34546 -10.16363,0 -20.09091,-4.25455 -27.41818,-11.34546 -7.09091,-7.32727 -11.34545,-17.01818 -11.34545,-27.41818 0,-10.16364 4.25454,-20.09091 11.34545,-27.41818 m -18.2,72.56363 c 12.05455,12.52728 28.6,19.38182 45.61818,19.38182 17.01819,0 33.56364,-6.85454 45.61819,-19.38182 12.05454,-11.81818 18.90909,-28.12727 18.90909,-45.14545 0,-17.01818 -6.85455,-33.56364 -18.90909,-45.61818 -12.05455,-12.05455 -28.6,-18.90909 -45.61819,-18.90909 -17.01818,0 -33.56363,6.85454 -45.61818,18.90909 -12.05454,12.05454 -18.90909,28.6 -18.90909,45.61818 0,17.01818 6.85455,33.32727 18.90909,45.14545 m -96.2,-45.14545 C 392.4,421.72728 447.47273,381.54546 512,381.54546 c 64.52728,0 119.60001,40.18182 141.81819,96.67273 -22.21818,56.96364 -77.29091,96.67273 -141.81819,96.67273 -64.52727,0 -119.6,-39.70909 -141.81818,-96.67273 z"
     id="path823"
     style="stroke-width:0.750001" />
</svg>
