<?xml version="1.0" encoding="UTF-8" standalone="no"?>
<svg
   width="1024pt"
   height="1024pt"
   viewBox="0 0 1024 1024"
   version="1.1"
   id="svg264"
   xmlns="http://www.w3.org/2000/svg"
   xmlns:svg="http://www.w3.org/2000/svg">
  <defs
     id="defs268">
    <rect
       x="107.73531"
       y="503.51931"
       width="1118.9871"
       height="329.65057"
       id="rect26683" />
    <rect
       x="179.55207"
       y="377.57731"
       width="489.66884"
       height="108.74868"
       id="rect3854" />
    <rect
       x="179.55206"
       y="377.5773"
       width="489.66885"
       height="108.74868"
       id="rect3854-3" />
    <rect
       x="179.55206"
       y="377.5773"
       width="489.66885"
       height="108.74868"
       id="rect3854-7" />
    <rect
       x="179.55206"
       y="377.5773"
       width="489.66885"
       height="108.74868"
       id="rect3854-7-3" />
  </defs>
  <g
     id="surface1">
    <path
       style="fill:#000000;fill-opacity:1;fill-rule:evenodd;stroke:none"
       d="M 512.51172,-0.511719 C 376.72656,-0.511719 246.48828,53.4375 150.47266,149.44922 54.460938,245.46484 0.511719,375.70312 0.511719,511.48828 c 0,135.78516 53.949219,266.02344 149.960941,362.03906 96.01562,96.01172 226.2539,149.96096 362.03906,149.96096 135.78515,0 266.02344,-53.94924 362.03906,-149.96096 96.01172,-96.01562 149.96092,-226.2539 149.96092,-362.03906 0,-135.78516 -53.9492,-266.02344 -149.96092,-362.03906 C 778.53516,53.4375 648.29687,-0.511719 512.51172,-0.511719 Z m 0,33.03125 c 127.03515,0 248.85547,50.457031 338.68359,140.285159 89.82813,89.82812 140.28516,211.64843 140.28516,338.68359 0,127.03516 -50.45703,248.85156 -140.28516,338.68359 C 761.36719,940 639.54687,990.45703 512.51172,990.45703 385.47656,990.45703 263.66016,940 173.82812,850.17187 84,760.33984 33.542969,638.52344 33.542969,511.48828 33.542969,384.45312 84,262.63281 173.82812,172.80469 263.66016,82.976562 385.47656,32.519531 512.51172,32.519531 Z"
       id="path261" />
    <g
       aria-label="MENU"
       id="text35553"
       style="font-size:296.947px;line-height:1.25;stroke-width:0.927957">
      <path
         d="M 176.9823,607.58429 125.90741,441.29397 h -1.18779 q 0.29695,5.93894 0.89085,17.81682 0.59389,11.87788 1.18778,25.53745 0.5939,13.36261 0.5939,24.34965 v 98.5864 H 87.304304 V 395.56414 h 61.171076 l 50.18405,162.13306 h 0.89084 l 53.15351,-162.13306 h 61.17108 V 607.58429 H 272.00533 V 507.21621 q 0,-10.0962 0.29695,-23.16187 0.59389,-13.06567 0.89084,-24.6466 0.59389,-11.87788 0.89084,-17.81682 h -1.18779 l -54.63824,165.99337 z"
         style="font-weight:bold;-inkscape-font-specification:'sans-serif Bold'"
         id="path39581" />
      <path
         d="M 489.37021,607.58429 H 367.32499 V 395.56414 h 122.04522 v 36.82142 h -77.20622 v 46.62068 h 71.86117 v 36.82143 h -71.86117 v 54.63825 h 77.20622 z"
         style="font-weight:bold;-inkscape-font-specification:'sans-serif Bold'"
         id="path39583" />
      <path
         d="M 726.22787,606.45032 H 669.21405 L 576.86353,446.09894 h -1.18778 q 0.59389,15.1443 1.18778,30.2886 0.89085,15.14429 1.48474,30.28859 v 99.77419 H 538.26043 V 394.43017 h 56.71687 l 92.05357,158.86664 h 0.89084 q -0.29695,-14.84735 -0.89084,-29.39775 -0.5939,-14.55041 -1.18779,-29.10081 V 394.43017 h 40.38479 z"
         style="font-weight:bold;-inkscape-font-specification:'sans-serif Bold'"
         id="path39585" />
      <path
         d="m 947.55914,532.75365 q 0,21.97408 -9.79925,39.79089 -9.5023,17.51988 -29.1008,27.91302 -19.30156,10.0962 -48.99626,10.0962 -42.16647,0 -64.14055,-21.38018 -21.97407,-21.67713 -21.97407,-57.01383 V 395.56414 h 44.83899 v 129.76583 q 0,26.13134 10.69009,36.82143 10.6901,10.69009 31.77333,10.69009 21.97408,0 31.77333,-11.58093 10.0962,-11.58093 10.0962,-36.22753 V 395.56414 h 44.83899 z"
         style="font-weight:bold;-inkscape-font-specification:'sans-serif Bold'"
         id="path39587" />
    </g>
  </g>
</svg>
