<?xml version="1.0" encoding="UTF-8" standalone="no"?>
<svg
   xmlns:dc="http://purl.org/dc/elements/1.1/"
   xmlns:cc="http://creativecommons.org/ns#"
   xmlns:rdf="http://www.w3.org/1999/02/22-rdf-syntax-ns#"
   xmlns:svg="http://www.w3.org/2000/svg"
   xmlns="http://www.w3.org/2000/svg"
   width="1024pt"
   height="1024pt"
   viewBox="0 0 1024 1024"
   version="1.1"
   id="svg5">
  <metadata
     id="metadata11">
    <rdf:RDF>
      <cc:Work
         rdf:about="">
        <dc:format>image/svg+xml</dc:format>
        <dc:type
           rdf:resource="http://purl.org/dc/dcmitype/StillImage" />
        <dc:title></dc:title>
      </cc:Work>
    </rdf:RDF>
  </metadata>
  <defs
     id="defs9" />
  <path
     style="fill:#000000;stroke-width:0.68516213"
     d="m 293.04674,845.04614 c -29.5885,-4.68666 -61.9626,-32.44105 -74.35425,-63.74403 -2.72642,-6.88723 -4.74788,-15.89432 -4.76713,-21.24127 l -0.015,-4.11221 70.74301,-70.66535 70.743,-70.66535 4.79615,-0.41954 c 10.53452,-0.92151 26.74288,-6.50253 38.36906,-13.21163 25.01136,-14.43325 40.093,-35.47973 41.89424,-58.46365 l 0.40274,-5.13872 8.30316,-8.39323 c 4.56679,-4.61628 8.51562,-8.39324 8.7752,-8.39324 0.25951,0 7.85786,4.62485 16.88508,10.27744 9.02723,5.65259 16.72853,10.27743 17.11395,10.27743 0.38541,0 56.52609,-55.75541 124.75698,-123.90091 l 124.05624,-123.90091 4.30764,-17.2868 4.30772,-17.28681 42.9228,-30.00936 42.9228,-30.00935 12.81057,12.8239 12.81058,12.82391 -29.97934,42.86839 -29.97926,42.8684 -17.18952,4.28817 -17.18951,4.28818 -124.18564,124.00903 c -68.30211,68.20499 -124.18563,124.2368 -124.18563,124.51514 0,0.27836 4.77319,8.16505 10.6071,17.52598 l 10.60709,17.01988 -8.72295,8.64243 -8.72287,8.64243 -6.39854,0.43282 c -23.17021,1.5673 -45.89212,19.41931 -59.638,46.85599 -6.04536,12.06664 -9.26584,22.02548 -10.40462,32.17541 l -0.676,6.02524 -70.72355,70.74299 c -67.68143,67.70008 -70.8267,70.74009 -73.12286,70.67521 -1.31958,-0.0371 -4.86587,-0.45848 -7.8806,-0.93601 z m 517.64005,-16.58078 c -23.99629,-1.03176 -45.84008,-4.19334 -63.18315,-9.14487 -38.64268,-11.03268 -60.85769,-32.24401 -69.70489,-66.55572 -3.34105,-12.95729 -5.49256,-31.14094 -5.53241,-46.7587 -0.0292,-11.31673 -3.12317,-18.13091 -16.10106,-35.45795 -14.73273,-19.6699 -32.62705,-39.20714 -85.75756,-93.63119 l -17.94394,-18.38079 34.26552,-34.21398 34.26545,-34.21395 3.89072,4.17027 c 6.65072,7.12854 47.16235,46.64978 59.74871,58.28804 23.25491,21.5031 41.73048,35.87612 53.36635,41.51615 l 5.76475,2.79425 11.02166,0.55056 c 28.95107,1.44619 48.08327,5.36195 67.20028,13.75384 27.40392,12.02957 49.37104,33.59266 64.59512,63.40694 4.50356,8.81953 12.49032,27.70609 12.49032,29.53614 0,0.45166 -0.92019,2.64423 -2.04499,4.87235 l -2.04499,4.05112 -44.94213,-25.687 -44.94212,-25.687 -3.20103,1.87494 c -15.84634,9.28185 -30.73476,24.35173 -39.16747,39.64482 -8.04985,14.59875 -13.58767,37.08141 -12.9076,52.40254 l 0.22757,5.12636 44.67905,25.58349 44.67906,25.58349 -4.24178,8.51569 -4.24176,8.51567 -7.89209,-0.13201 c -4.34065,-0.0726 -9.89615,-0.21818 -12.34559,-0.3235 z M 478.71988,485.80096 c -45.01977,-44.59149 -73.92057,-68.56925 -90.62073,-75.18416 -3.30339,-1.30844 -5.77259,-1.62705 -15.57356,-2.00949 -30.22067,-1.17919 -55.50787,-7.70135 -76.33985,-19.68987 -10.34688,-5.95449 -16.37021,-10.6291 -25.82569,-20.04303 -16.0292,-15.95873 -27.53952,-34.53341 -36.8383,-59.44778 -1.36521,-3.65773 -2.48217,-6.981 -2.48217,-7.38504 0,-0.40405 0.92026,-2.55763 2.04499,-4.78576 l 2.045,-4.05112 44.93706,25.68409 44.93706,25.6841 4.57642,-2.87691 c 24.80591,-15.59398 40.02201,-35.8014 47.06113,-62.49873 2.27563,-8.63077 3.1298,-14.38175 3.65652,-24.61786 l 0.44979,-8.74016 -45.03509,-25.72841 -45.0351,-25.72838 4.10196,-8.1828 4.1019,-8.18278 h 14.6297 c 29.18776,0 59.12646,4.62273 79.49974,12.27529 35.01139,13.15088 53.91823,35.12142 61.01339,70.90015 2.14089,10.79576 3.06607,19.7253 3.70108,35.72025 0.5029,12.6679 0.57862,13.16848 2.6651,17.62726 8.41147,17.97489 33.45064,47.31999 89.54747,104.94674 l 19.13968,19.66165 -33.86806,33.87324 c -18.62743,18.63028 -34.17755,33.86198 -34.55583,33.84824 -0.37829,-0.0137 -10.24842,-9.49467 -21.93361,-21.06873 z"
     id="path6363" />
  <path
     style="font-style:normal;font-weight:normal;font-size:431.86886597px;line-height:1.25;font-family:sans-serif;letter-spacing:0px;word-spacing:0px;fill:#000000;fill-opacity:1;stroke:none;stroke-width:46.95996857"
     d="M 457.2005,1010.6672 C 345.32232,997.86685 234.11162,941.30991 152.69061,855.80661 36.475155,733.76451 -11.018548,573.24831 20.685854,409.66455 62.441654,194.21899 245.51482,29.787106 464.3917,11.138556 674.59088,-6.7706939 871.21286,104.99435 964.00631,295.1325 c 152.21259,311.89111 -47.5152,677.07621 -391.54503,715.9061 -44.52495,5.0254 -68.77539,4.9472 -115.26081,-0.3715 z m 93.09848,-29.99875 c 214.63633,-20.87074 382.97758,-172.69724 426.52588,-384.68224 9.39375,-45.7266 9.39375,-132.96471 0,-178.69128 C 947.74781,275.75309 863.69921,161.99105 739.33217,95.842314 625.24827,35.162956 487.78926,23.699576 366.97872,64.789906 98.958659,155.94937 -32.729446,458.63301 84.881754,713.18711 c 67.963166,147.0971 215.626666,251.5651 377.736156,267.23824 19.74636,1.9092 37.85973,3.6873 40.25198,3.9516 2.39217,0.264 23.73528,-1.4046 47.42909,-3.7085 z m 11.28867,-465.88814 c 935.85145,711.28249 467.92575,355.6412 0,0 z"
     id="path7734" />
</svg>
