<?xml version="1.0" encoding="UTF-8"?>
<svg width="1024" height="1024" fill="none" stroke-linecap="square" stroke-miterlimit="10" version="1.1" viewBox="0 0 1024 1024" xmlns="http://www.w3.org/2000/svg" xmlns:cc="http://creativecommons.org/ns#" xmlns:dc="http://purl.org/dc/elements/1.1/" xmlns:rdf="http://www.w3.org/1999/02/22-rdf-syntax-ns#">
 <metadata>
  <rdf:RDF>
   <cc:Work rdf:about="">
    <dc:format>image/svg+xml</dc:format>
    <dc:type rdf:resource="http://purl.org/dc/dcmitype/StillImage"/>
    <dc:title/>
   </cc:Work>
  </rdf:RDF>
 </metadata>
 <clipPath>
  <path d="m0 0h960v960h-960z"/>
 </clipPath>
 <g fill="#000" aria-label="!">
  <path d="m21.398 1018.4c-16.78-10.898-24.98-34.737-19.911-57.892 1.9696-8.998 8.9344-19.001 45.14-64.828l42.811-54.188-4.6658-9.0923c-34.326-66.891-41.424-157.39-18.266-232.88 21.402-69.761 66.645-125.92 124.14-154.1 45.936-22.512 104.5-23.367 151.62-2.2138 63.081 28.321 114.81 95.849 133.36 174.09 6.8256 28.791 8.8756 52.5 7.6668 88.667-1.7438 52.172-11.337 88.784-34.712 132.48-25.93 48.468-64.001 84.85-110.1 105.22-56.038 24.76-125.91 16.544-177.48-20.866l-13.677-9.9238-40.333 51.085c-26.755 33.887-43.035 52.595-48.36 55.571-11.388 6.3641-26.388 5.9071-37.23-1.1343zm277.92-143.43c28.687-7.2894 51.298-21.958 73.105-47.429 33.538-39.17 49.195-87.677 46.896-145.28-3.2496-81.432-49.303-149.95-114.39-170.19-30.109-9.3617-68.528-5.4546-96.084 9.7717-45.202 24.976-76.417 71.07-88.142 130.16-5.1493 25.95-3.4756 73.407 3.4433 97.638 13.585 47.579 34.544 79.121 70.018 105.38 10.448 7.7327 37.06 19.647 49.547 22.182 12.376 2.5121 41.545 1.3423 55.604-2.2298zm206.17-112.41c4.103-19.27 4.8896-29.017 5.1155-63.392 0.14692-22.341-0.48919-46.403-1.4135-53.471l-1.6805-12.851 121.75-0.68887c115.77-0.65498 122.03-0.91861 127.36-5.3626 15.74-13.124 15.74-43.998 0-57.122-5.3431-4.4549-11.754-4.7057-136.88-5.3568l-131.27-0.68302-7.5716-16.992c-6.9229-15.536-16.998-32.678-34.736-59.099l-6.6721-9.9381h154.36c128.27 0 155.27-0.58158 159.77-3.4407 17.526-11.149 20.592-37.685 6.301-54.529l-6.1662-7.2682-406.98-2.7003-19.011-6.823c-23.66-8.4914-66.436-11.467-93.81-6.5248-51.738 9.3403-98.211 37.862-137.83 84.589l-8.5051 10.031v-237.01c0-244.29-0.02979-243.34 7.8314-250.76 2.4696-2.3326 87.716-3.0163 383.63-3.0772l380.46-0.07819 10.409 12.804 0.66048 347.48c0.60584 318.76 0.9421 348.63 4.0675 361.32 4.7478 19.274 12.549 40.335 19.628 52.993l5.9974 10.723h-399.66zm246.49-439.44c19.633-12.134 21.112-44.126 2.7249-58.946-4.9812-4.015-10.913-4.442-61.721-4.442-50.808 0-56.739 0.42693-61.721 4.442-18.959 15.282-16.91 48.522 3.6856 59.783 4.487 2.4533 19.148 3.3058 58.035 3.375 45.643 0.0812 52.886-0.4359 58.996-4.2118zm-533.35-2.1935c12.749-5.3437 23.665-19.094 28.314-35.665 3.283-11.701 3.7132-21.608 3.7429-86.191 0.0404-87.686 1.2342-83.355-22.98-83.355-24.009 0-22.812-4.0904-24.014 82.109l-1.0006 71.755h-4.9889c-4.3586 0-5.2528-1.53-7.0774-12.111-2.9855-17.312-8.4879-21.812-23.939-19.578-8.6608 1.2522-13.163 3.3244-16.714 7.6927-4.4135 5.4292-4.7537 7.3724-3.7021 21.142 1.6756 21.941 6.6538 34.364 18.766 46.83 11.031 11.353 35.926 14.777 53.594 7.3714zm161.54-5.2367c24.386-14.768 40.142-42.655 44.336-78.47 5.8238-49.73-11.612-94.868-44.29-114.66-11.084-6.7124-15.716-8.0256-31.229-8.8524-23.045-1.2283-36.968 3.47-52.817 17.823-21.669 19.624-32.438 49.016-32.438 88.538 0 42.772 15.214 76.754 42.025 93.87 13.806 8.8135 22.68 10.983 42.183 10.315 16.939-0.58047 20.689-1.5773 32.229-8.5663zm-43.436-44.766c-20.433-5.8216-30.923-35.019-25.061-69.753 2.8509-16.893 9.1181-26.833 20.43-32.401 18.357-9.0358 37.866 2.7719 43.63 26.408 3.3595 13.776 3.0172 40.273-0.65913 51.015-3.3357 9.747-12.305 20.971-18.286 22.882-9.4323 3.0133-14.37 3.4688-20.054 1.8495zm202.68 44.457c18.928-10.439 30.504-33.065 30.504-59.624 0-15.702-3.7382-29.668-10.209-38.141l-4.0146-5.257 4.1102-15.009c5.0012-18.263 5.0825-23.204 0.65932-40.052-4.4277-16.865-14.744-29.623-29.414-36.375-10.05-4.6257-15.527-5.2063-49.114-5.2063h-37.803l-4.1476 6.4866c-4.025 6.2948-4.1477 9.1587-4.1477 96.91 0 88.651 0.0839 90.554 4.2801 97.117l4.2801 6.6937 42.248-0.87011c39.232-0.80799 42.999-1.2842 52.769-6.6725zm-57.549-59.341v-12.309h17.868c18.903 0 24.157 2.6853 24.157 12.345 0 8.586-7.6483 12.273-25.46 12.273h-16.565zm0-77.547v-8.6164h15.609c15.974 0 20.412 2.1908 20.412 10.076 0 5.791-4.0404 7.1565-21.176 7.1565h-14.845zm270.12-3.0811c9.1602-5.6615 16.05-18.605 16.05-30.153 0-11.548-6.8893-24.492-16.05-30.153-6.0964-3.7678-13.449-4.3043-58.996-4.3043-45.546 0-52.899 0.53649-58.996 4.3043-21.507 13.293-20.944 49.167 0.96067 61.144 4.487 2.4533 19.148 3.3058 58.035 3.375 45.643 0.0812 52.886-0.43593 58.996-4.2118zm175.21 596.99c-5.0897-7.1085-12.375-20.679-16.191-30.157-13.077-32.485-12.815-26.643-12.854-287.42l-0.0346-235.72h43.634c42.936 0 43.8 0.10194 54.036 6.3766 5.7212 3.5072 13.095 10.396 16.387 15.308 12.704 18.96 12.297 10.2 11.5 247.05-0.6635 197.17-1.018 216.23-4.2745 229.68-9.7885 40.424-24.807 56.785-59.016 64.291-22.763 4.9949-22.901 4.9558-33.186-9.4093z" fill="#000" stroke-width="29.697"/>
 </g>
 <text fill="#000000" font-family="sans-serif" font-size="40px" letter-spacing="0px" word-spacing="0px" style="line-height:1.25;shape-inside:url(#rect886);white-space:pre" xml:space="preserve"/>
</svg>
