<?xml version="1.0" encoding="UTF-8" standalone="no"?>
<svg
   xmlns:dc="http://purl.org/dc/elements/1.1/"
   xmlns:cc="http://creativecommons.org/ns#"
   xmlns:rdf="http://www.w3.org/1999/02/22-rdf-syntax-ns#"
   xmlns:svg="http://www.w3.org/2000/svg"
   xmlns="http://www.w3.org/2000/svg"
   width="1024pt"
   height="1024pt"
   viewBox="0 0 1024 1024"
   version="1.1"
   id="svg5">
  <metadata
     id="metadata11">
    <rdf:RDF>
      <cc:Work
         rdf:about="">
        <dc:format>image/svg+xml</dc:format>
        <dc:type
           rdf:resource="http://purl.org/dc/dcmitype/StillImage" />
        <dc:title></dc:title>
      </cc:Work>
    </rdf:RDF>
  </metadata>
  <defs
     id="defs9" />
  <path
     id="path19"
     d="m 34.835236,972.84683 -5.510258,-5.51023 v -268.76901 -268.769 h 92.484512 92.48438 l -1.20968,8.95413 c -13.45473,99.59478 -51.71978,164.52511 -122.472809,207.81927 -15.700378,9.60714 -17.791044,12.051 -17.869662,20.88911 -0.04781,5.3183 2.164769,9.67649 10.485733,20.65989 35.830028,47.29399 59.047138,138.16343 64.183698,251.20895 l 1.24659,27.43398 -5.79657,5.79656 -5.79658,5.79659 H 88.705041 40.345495 Z m 850.907954,1.8339 c -3.30342,-2.01422 -6.90864,-5.34843 -8.01159,-7.40935 -6.59297,-12.31906 4.57084,-121.22675 17.89721,-174.59475 11.95305,-47.8684 26.74618,-81.97983 46.46677,-107.14762 7.66653,-9.78417 9.2565,-18.89194 4.72177,-27.04764 -1.26137,-2.26859 -11.19868,-10.05942 -22.08289,-17.31294 -24.04931,-16.02708 -39.46203,-29.71588 -54.48596,-48.39171 -31.39376,-39.02468 -51.05311,-89.8766 -59.54569,-154.024 l -1.18545,-8.95413 h 92.48447 92.48442 v 265.89 c 0,292.09623 0.7433,273.60762 -11.24875,279.80894 -4.46968,2.31138 -13.76873,2.85818 -48.5089,2.85248 -39.23198,-0.005 -43.50287,-0.32634 -48.98541,-3.66928 z M 29.324978,698.56759 C 25.081363,694.32403 112.75961,588.65064 123.86711,575.1366 161.90533,528.85697 202.912,511.23057 213.08419,438.75272 l 1.20968,-8.95413 h 104.86793 44.12204 l -1.25668,6.12652 c -3.22597,15.72826 -17.30354,53.69378 -28.13402,75.87449 -30.39573,62.24976 -68.65797,105.91829 -119.65983,136.56722 -16.44565,9.88282 -181.085028,54.02407 -184.908332,50.20077 z M 816.23408,652.56508 C 763.45817,623.4589 718.97905,573.21361 687.3708,506.99615 678.59075,488.60253 664.64147,449.85636 661.78402,435.92511 l -1.25656,-6.12652 h 44.13199 104.85791 l 29.02106,29.59711 c 50.84549,51.85476 29.62194,145.20989 90.27496,150.32352 99.63992,8.40059 59.11297,105.06288 54.88012,109.29575 -3.38665,3.38665 -156.9352,-60.64573 -167.45942,-66.44989 z M 41.118655,367.5366 c -2.326253,-0.93524 -5.928312,-4.4867 -8.004503,-7.89211 -3.582538,-5.87595 -3.775496,-9.48862 -3.782136,-70.84929 -0.01328,-70.97491 0.26799,-72.90185 11.241762,-78.57666 4.898981,-2.53329 58.662283,-2.85944 471.331802,-2.85944 512.12212,0 473.43511,-0.90716 479.72117,11.24876 4.2499,8.21845 4.2499,131.40091 0,139.61936 -6.28784,12.15936 32.47935,11.26069 -480.09885,11.1293 C 239.18146,369.28662 43.589526,368.53 41.118655,367.5366 Z M 40.573778,210.21854 C 43.165762,209.16331 271.31142,118.00468 353.9536,87.503368 460.14663,48.310189 506.47606,32.046606 511.93134,32.046606 c 5.45648,0 51.75246,16.257474 157.952,55.467386 82.62813,30.507018 319.15141,130.044348 321.74341,131.093868 3.2071,1.29851 -263.56274,-71.81035 -479.72117,-71.81035 -217.29393,0 -474.555648,64.73362 -471.331802,63.42103 z"
     style="fill:#000000;stroke-width:1.8850807" />
</svg>
