<?xml version="1.0" encoding="UTF-8" standalone="no"?>
<svg
   id="svg5"
   version="1.1"
   viewBox="0 0 1024 1024"
   height="1024pt"
   width="1024pt"
   xml:space="preserve"
   xmlns="http://www.w3.org/2000/svg"
   xmlns:svg="http://www.w3.org/2000/svg"
   xmlns:rdf="http://www.w3.org/1999/02/22-rdf-syntax-ns#"
   xmlns:cc="http://creativecommons.org/ns#"
   xmlns:dc="http://purl.org/dc/elements/1.1/"><metadata
     id="metadata11"><rdf:RDF><cc:Work
         rdf:about=""><dc:format>image/svg+xml</dc:format><dc:type
           rdf:resource="http://purl.org/dc/dcmitype/StillImage" /></cc:Work></rdf:RDF></metadata><defs
     id="defs9"><rect
       x="40.497175"
       y="80.99435"
       width="433.89831"
       height="856.22599"
       id="rect3702" /></defs><g
     id="g3646" /><rect
     style="fill:#000000;stroke:none;stroke-width:0;stroke-dasharray:none"
     id="rect3970"
     width="846.10168"
     height="73.762711"
     x="-936.10168"
     y="56.406784"
     ry="0"
     transform="scale(-1,1)" /><rect
     style="fill:#000000;stroke:none;stroke-width:0;stroke-dasharray:none"
     id="rect3970-6"
     width="420.88135"
     height="73.762711"
     x="-510.88132"
     y="598.2373"
     ry="0"
     transform="scale(-1,1)" /><rect
     style="fill:#000000;stroke:none;stroke-width:0;stroke-dasharray:none"
     id="rect3970-6-8"
     width="364.47455"
     height="73.762711"
     x="-454.47455"
     y="778.84747"
     ry="0"
     transform="scale(-1,1)" /><rect
     style="fill:#000000;stroke:none;stroke-width:0;stroke-dasharray:none"
     id="rect3970-2"
     width="607.45758"
     height="73.762711"
     x="-697.45758"
     y="417.62714"
     ry="0"
     transform="scale(-1,1)" /><rect
     style="fill:#000000;stroke:none;stroke-width:0;stroke-dasharray:none"
     id="rect3970-61"
     width="846.10168"
     height="73.762711"
     x="-936.10168"
     y="237.01695"
     ry="0"
     transform="scale(-1,1)" /><path
     d="M 847.09704,421.34972 A 81.978814,82.521186 17.576279 0 0 744.026,475.26291 c -24.91936,78.66876 72.10762,224.81967 -136.29693,158.8048 a 54.652542,55.014124 17.576279 0 0 -68.714,35.94214 l -16.6129,52.44583 416.80901,132.0297 16.6129,-52.44583 A 54.652542,55.014124 17.576279 0 0 920.33589,733.09001 C 711.93134,667.07515 875.41001,603.44281 900.32937,524.77405 916.94226,472.32824 890.34097,435.0478 847.09704,421.34972 m -289.20668,370.05549 -16.61291,52.44583 312.60683,99.02231 16.6129,-52.44584 z"
     id="path4151"
     style="stroke-width:27.4165" /></svg>
