<?xml version="1.0" encoding="UTF-8" standalone="no"?>
<svg
   xmlns:dc="http://purl.org/dc/elements/1.1/"
   xmlns:cc="http://creativecommons.org/ns#"
   xmlns:rdf="http://www.w3.org/1999/02/22-rdf-syntax-ns#"
   xmlns:svg="http://www.w3.org/2000/svg"
   xmlns="http://www.w3.org/2000/svg"
   id="svg5"
   version="1.1"
   viewBox="0 0 1024 1024"
   height="1024pt"
   width="1024pt">
  <metadata
     id="metadata11">
    <rdf:RDF>
      <cc:Work
         rdf:about="">
        <dc:format>image/svg+xml</dc:format>
        <dc:type
           rdf:resource="http://purl.org/dc/dcmitype/StillImage" />
        <dc:title></dc:title>
      </cc:Work>
    </rdf:RDF>
  </metadata>
  <defs
     id="defs9" />
  <g
     transform="matrix(0.84671272,0,0,0.84671272,185.13882,49.876405)"
     id="g4652">
    <path
       id="path4837"
       d="m 224.12071,382.52021 c -33.29541,-4.1817 -65.5793,-17.427 -91.23521,-37.4315 -7.23,-5.6375 -20.6258,-18.8498 -26.9112,-26.5426 C 65.606804,269.13944 52.518704,194.60647 73.247105,132.17454 98.891105,54.937451 174.1829,0.866611 256.08901,0.866611 c 49.6626,0 94.8417,17.42461 143.3421,55.28399 17.5594,13.70685 33.3989,28.085 60.8256,55.213739 14.9008,14.73886 27.466,26.79793 27.9228,26.79793 0.4568,0 4.01,-3.22938 7.896,-7.17641 14.6658,-14.89609 47.009,-45.438499 59.3122,-56.009819 78.5439,-67.48744 150.554,-88.53382 227.6593,-66.53794 64.9529,18.52916 106.7167,62.75256 123.8719,131.167139 12.0068,47.88296 7.7202,93.68593 -12.6727,135.40986 -27.9257,57.13591 -81.6677,96.46391 -145.4755,106.45791 -15.3643,2.4064 -44.4416,2.1661 -59.4684,-0.4916 -59.0869,-10.4501 -102.9802,-38.2934 -178.0593,-112.95 -12.0601,-11.99228 -22.3637,-21.80414 -22.8968,-21.80414 -0.5332,0 -12.3751,11.26046 -26.3155,25.02324 -32.6701,32.2538 -53.0087,49.9819 -75.3696,65.6956 -36.4985,25.6485 -72.09,40.0331 -111.8749,45.2153 -11.419,1.4874 -40.0642,1.6902 -50.6655,0.3588 z m 514.1623,-78.3765 c 22.5183,-4.069 41.8282,-13.9809 58.3578,-29.95551 12.9655,-12.53017 22.7886,-27.73133 28.8104,-44.58375 8.3526,-23.37493 8.3918,-51.54212 0.1071,-76.88783 -12.7889,-39.12577 -42.9497,-65.676979 -82.3714,-72.513369 -9.3073,-1.61405 -30.3049,-1.84161 -39.6903,-0.43014 -35.3057,5.30966 -69.9112,24.128929 -109.9916,59.816009 -11.3537,10.10916 -42.6538,40.78553 -48.4976,47.53116 l -4.4941,5.18758 23.3883,22.80679 c 28.4683,27.76044 39.4929,37.90084 52.9358,48.69023 37.3112,29.94623 71.5244,43.65313 105.0909,42.10263 4.8717,-0.225 12.2314,-1.0187 16.3547,-1.7638 z m -455.7009,-1.1633 c 28.6536,-6.6347 55.718,-21.03791 86.0656,-45.80261 14.3167,-11.68293 39.7695,-35.5897 55.6189,-52.24061 l 12.1688,-12.78407 -22.0084,-21.51 c -30.2802,-29.59453 -39.6521,-38.265 -53.0106,-49.04325 -37.4692,-30.231769 -68.16,-43.003599 -103.1932,-42.943339 -30.634,0.0527 -58.1821,11.46544 -79.78911,33.055359 -15.46359,15.45135 -26.0888,35.0964 -31.0738,57.45263 -2.8664,12.85475 -2.8459,33.29884 0.047,46.94628 9.04291,42.66078 33.4275,71.62311 70.86221,84.16491 13.3618,4.4765 19.8393,5.289 39.068,4.9 13.4115,-0.2713 19.0547,-0.7621 25.2447,-2.1953 z"
       style="fill:#000000;stroke-width:0.88577855" />
    <g
       transform="matrix(1.1578059,0,0,1.1578059,3175.6156,919.6478)"
       id="g4980">
      <path
         id="path4994"
         d="m -2853.663,139.19547 c -20.2875,-12.36999 -26.4809,-28.16643 -26.4809,-67.539812 0,-40.027067 13.1248,-84.600653 35.9981,-122.254105 22.3063,-36.720174 71.2428,-80.579763 110.6356,-99.157743 l 33.3102,-15.70937 -18.3445,-16.14748 c -11,-9.68258 -23.877,-27.38548 -32.163,-44.21673 -12.5262,-25.44426 -13.8184,-31.61609 -13.8184,-65.99625 0,-33.00997 1.523,-41.02847 11.7477,-61.84979 43.7026,-88.99448 159.1888,-111.35422 231.901,-44.89929 13.6824,12.50494 27.6962,30.63798 34.6995,44.89929 10.223,20.81772 11.7478,28.84223 11.7478,61.82437 0,34.34626 -1.2963,40.53699 -13.8185,65.99625 -8.4305,17.14043 -21.1448,34.54361 -32.6087,44.6345 l -18.7902,16.53985 22.1675,8.99713 c 91.0205,36.94252 158.6678,133.867663 158.6678,227.339368 0,39.373382 -6.1934,55.169822 -26.4809,67.539812 -12.8983,7.86463 -22.6672,8.20694 -234.185,8.20694 -211.5179,0 -221.2867,-0.34223 -234.1851,-8.20694 z"
         style="fill:#d1d1d1;stroke-width:4.20428991" />
      <path
         id="path4992"
         d="m -2853.663,139.19547 c -20.1189,-12.26723 -26.4809,-28.23576 -26.4809,-66.466961 0,-63.5307291 25.2733,-119.345619 77.541,-171.245601 31.2552,-31.035228 56.4128,-47.656148 92.1007,-60.848258 l 11.9808,-4.42874 -21.1992,-19.91512 c -12.7735,-11.99969 -25.8905,-29.94131 -33.0023,-45.14087 -10.258,-21.92361 -11.7804,-30.17892 -11.6301,-63.06434 0.148,-32.38029 1.8244,-41.25091 11.6213,-61.49357 13.4747,-27.84206 45.5339,-59.38051 73.4804,-72.28684 28.4304,-13.1298 91.1163,-13.1298 119.5467,0 27.9465,12.90633 60.0057,44.44478 73.4805,72.28684 9.8021,20.25354 11.4731,29.10656 11.6212,61.56776 0.1577,34.54468 -1.0546,40.40769 -13.6455,65.99625 -8.5575,17.39157 -21.1513,34.53814 -33.0792,45.03743 l -19.2607,16.95398 12.0577,4.45798 c 35.7737,13.22622 60.9018,29.82177 92.1776,60.877498 52.2677,51.899982 77.541,107.7148719 77.541,171.245601 0,38.231201 -6.3619,54.199731 -26.4809,66.466961 -12.8983,7.86463 -22.6672,8.20694 -234.185,8.20694 -211.5179,0 -221.2867,-0.34223 -234.1851,-8.20694 z"
         style="fill:#b4b4b4;stroke-width:4.20428991" />
      <path
         id="path4990"
         d="m -2853.663,139.19547 c -19.7482,-12.04117 -26.4809,-28.37513 -26.4809,-64.244573 0,-90.122736 57.8114,-179.309077 143.715,-221.710677 l 36.5055,-18.01899 -20.9337,-20.39011 c -74.5813,-72.64442 -52.9098,-196.83081 42.0045,-240.7023 27.8135,-12.85603 90.9358,-12.85603 118.7493,0 94.9143,43.87149 116.5858,168.05788 42.0045,240.7023 l -20.9337,20.39011 36.5056,18.01899 c 85.9035,42.4016 143.7149,131.587941 143.7149,221.710677 0,35.869443 -6.7326,52.203403 -26.4809,64.244573 -12.8983,7.86463 -22.6672,8.20694 -234.185,8.20694 -211.5179,0 -221.2867,-0.34223 -234.1851,-8.20694 z"
         style="fill:#8c8c8c;stroke-width:4.20428991" />
      <path
         id="path4988"
         d="m -2849.6366,140.51923 c -22.0312,-10.86094 -30.5154,-28.98252 -30.4574,-65.054527 0.1454,-90.460046 58.184,-180.168433 143.8622,-222.363413 l 36.7027,-18.07541 -20.5598,-20.23809 c -11.308,-11.13094 -25.9221,-31.17882 -32.4759,-44.55084 -10.2346,-20.88218 -11.9192,-29.35526 -11.9386,-60.04923 -0.019,-29.9411 1.7913,-39.60582 11.1626,-59.59642 14.925,-31.83784 39.9246,-58.11022 69.5773,-73.11968 21.8389,-11.05432 28.4561,-12.32276 64.2856,-12.32276 35.8294,0 42.4466,1.26844 64.2856,12.32276 29.6527,15.00946 54.6523,41.28184 69.5772,73.11968 9.4115,20.0764 11.1659,29.52682 11.0636,59.59642 -0.1518,44.62233 -12.5752,74.47568 -43.5473,104.6434 l -20.9337,20.39011 36.5056,17.97774 c 85.6933,42.20103 143.5734,131.965155 143.6373,222.761965 0.025,34.875005 -6.2955,49.286845 -27.8443,63.493645 -11.3894,7.50895 -23.467,7.9203 -230.6419,7.85584 -191.7744,-0.0597 -220.2979,-0.89366 -232.2608,-6.79119 z"
         style="fill:#6f6f6f;stroke-width:4.20428991" />
      <path
         id="path4986"
         d="m -2849.6366,140.51923 c -22.0312,-10.86094 -30.5154,-28.98252 -30.4574,-65.054527 0.1456,-90.544342 57.8495,-179.630953 144.0045,-222.322443 l 36.5604,-18.11638 -20.5713,-20.24939 c -11.3142,-11.13716 -25.8638,-31.18503 -32.3323,-44.55084 -10.0196,-20.70318 -11.7721,-29.59291 -11.8361,-60.03793 -0.063,-29.80257 1.7494,-39.65982 10.9129,-59.36462 14.8439,-31.91992 35.9954,-54.26358 67.5833,-71.39257 24.7098,-13.39929 28.8456,-14.29081 66.2947,-14.29081 37.449,0 41.5848,0.89152 66.2946,14.29081 31.5879,17.12899 52.7394,39.47265 67.5833,71.39257 9.0953,19.55803 11.0037,29.78403 11.079,59.36462 0.079,30.85628 -1.5393,39.05662 -11.8475,60.04923 -6.5662,13.37202 -21.1905,33.4199 -32.4984,44.55084 l -20.5598,20.23809 36.5603,18.11638 c 86.3794,42.80266 143.9128,131.841417 143.9768,222.818675 0.025,34.875005 -6.2955,49.286845 -27.8443,63.493645 -11.3894,7.50895 -23.467,7.9203 -230.6419,7.85584 -191.7744,-0.0597 -220.2979,-0.89366 -232.2608,-6.79119 z"
         style="fill:#4f4f4f;stroke-width:4.20428991" />
      <path
         id="path4984"
         d="m -2842.4467,143.98513 c -27.527,-12.20005 -37.6372,-31.18368 -37.6713,-70.734532 -0.076,-87.911868 61.2497,-180.611198 145.8601,-220.481348 l 37.0006,-17.43543 -26.0077,-26.34913 c -22.4211,-22.7154 -27.2804,-30.53894 -35.2359,-56.73059 -21.8595,-71.96771 10.5743,-143.64261 79.6583,-176.03538 19.7354,-9.25373 29.5304,-11.079 59.4531,-11.079 31.9433,0 38.841,1.48486 63.6629,13.70466 66.299,32.63885 96.7331,102.75254 75.2716,173.40972 -7.9555,26.19165 -12.8147,34.01519 -35.2358,56.73059 l -26.0078,26.34913 37.0006,17.43543 c 84.6209,39.87509 145.886,132.494223 145.886,220.546935 0,35.930705 -8.5707,55.109325 -29.6892,66.435305 -13.3639,7.16714 -28.8501,7.66257 -230.9111,7.38685 -119.1226,-0.16228 -219.4881,-1.58144 -223.0344,-3.15321 z"
         style="fill:#2e2e2e;stroke-width:4.20428991" />
      <path
         id="path4982"
         d="m -2849.7012,139.04799 c -21.4763,-13.09422 -30.4087,-31.43657 -30.427,-62.480208 -0.06,-101.648628 75.7375,-203.031982 177.5358,-237.464592 5.923,-2.00342 3.0854,-6.42655 -15.2441,-23.76181 -75.9155,-71.79772 -56.2027,-194.52011 38.3637,-238.83412 20.4004,-9.55966 29.9419,-11.36754 59.9949,-11.36754 30.053,0 39.5945,1.80788 59.9948,11.36754 94.1986,44.14165 114.2697,167.04546 38.9177,238.31019 l -21.9678,20.77623 25.6431,10.95694 c 91.4595,39.07947 158.1159,135.753075 158.0624,229.242564 -0.017,31.871206 -8.7598,50.044206 -30.4269,63.254806 -13.2045,8.05087 -21.5701,8.35442 -230.2233,8.35442 -208.6533,0 -217.0189,-0.30355 -230.2233,-8.35442 z"
         style="fill:#000000;stroke-width:4.20428991" />
    </g>
  </g>
</svg>
