<?xml version="1.0" encoding="UTF-8" standalone="no"?>
<svg
   xmlns:dc="http://purl.org/dc/elements/1.1/"
   xmlns:cc="http://creativecommons.org/ns#"
   xmlns:rdf="http://www.w3.org/1999/02/22-rdf-syntax-ns#"
   xmlns:svg="http://www.w3.org/2000/svg"
   xmlns="http://www.w3.org/2000/svg"
   id="svg5"
   version="1.1"
   viewBox="0 0 1024 1024"
   height="1024pt"
   width="1024pt">
  <metadata
     id="metadata11">
    <rdf:RDF>
      <cc:Work
         rdf:about="">
        <dc:format>image/svg+xml</dc:format>
        <dc:type
           rdf:resource="http://purl.org/dc/dcmitype/StillImage" />
        <dc:title></dc:title>
      </cc:Work>
    </rdf:RDF>
  </metadata>
  <defs
     id="defs9" />
  <path
     id="path6261"
     d="m 161.86702,975.81858 c -26.29017,-4.2016 -53.60048,-19.6862 -66.959483,-37.9654 -25.393376,-34.74573 -24.282995,-15.5227 -24.282995,-420.37703 0,-305.47098 1.070008,-374.79682 5.9738,-387.04559 C 86.005993,106.93194 109.8931,81.667586 133.5937,70.148986 l 21.75601,-10.57353 354.34074,-0.0443 354.3408,-0.0443 21.7345,11.30353 c 11.95395,6.21695 27.17556,17.23077 33.8258,24.47515 l 12.09142,13.171614 -18.85196,17.98538 c -60.70523,57.91504 -70.93099,65.81521 -72.37881,55.91846 l -1.38845,-9.49044 H 509.1552 179.24656 v 344.6256 344.62561 H 509.45738 839.66819 V 701.61424 541.12668 l 53.22475,-48.47327 53.22474,-48.47325 1.12722,222.60776 c 1.22011,240.96756 1.61591,236.25192 -22.61036,269.40066 -6.08617,8.3278 -21.33907,21.0821 -33.89524,28.3428 l -22.82942,13.2014 -343.24543,0.6052 c -188.78503,0.3329 -352.04385,-0.8008 -362.79743,-2.5194 z M 377.11775,644.82317 C 312.69483,567.91751 259.3555,503.02315 258.58585,500.6134 257.0549,495.82016 359.51694,399.57793 366.15091,399.57793 c 2.24974,0 34.90836,36.72983 72.57471,81.62185 37.66635,44.89201 69.57918,81.62186 70.91727,81.62186 1.33817,0 92.01848,-82.132 201.51186,-182.51555 109.4933,-100.38353 201.52426,-184.00031 204.5131,-185.81506 3.56604,-2.16516 21.68443,16.08499 52.70113,53.08439 25.99674,31.01115 47.26682,58.18703 47.26682,60.39085 0,2.20382 -49.85755,49.82911 -110.79443,105.83398 C 636.26185,660.6417 499.56731,785.00149 497.0073,784.83303 495.49096,784.73327 441.54058,721.72882 377.11775,644.82317 Z"
     style="fill:#000000;stroke-width:4.4387002" />
</svg>
