<?xml version="1.0" encoding="UTF-8"?>
<svg width="1024" height="1024" fill="none" stroke-linecap="square" stroke-miterlimit="10" version="1.1" viewBox="0 0 1024 1024" xmlns="http://www.w3.org/2000/svg" xmlns:cc="http://creativecommons.org/ns#" xmlns:dc="http://purl.org/dc/elements/1.1/" xmlns:rdf="http://www.w3.org/1999/02/22-rdf-syntax-ns#">
 <metadata>
  <rdf:RDF>
   <cc:Work rdf:about="">
    <dc:format>image/svg+xml</dc:format>
    <dc:type rdf:resource="http://purl.org/dc/dcmitype/StillImage"/>
    <dc:title/>
   </cc:Work>
  </rdf:RDF>
 </metadata>
 <clipPath>
  <path d="m0 0h960v960h-960z"/>
 </clipPath>
 <g>
  <path d="m366.6 1021.4c-7.4554-3.3277-16.066-12.36-18.877-19.8-1.3609-3.602-2.1277-31.818-2.1277-78.292v-72.66l-13.503-2.4986c-81.199-15.025-139.4-72.425-164.26-161.99l-5.2738-19.004v-161.04c0-152.6 0.19405-161.61 3.7699-172.04 10.667-31.096 34.224-52.805 65.242-60.125 12.233-2.8868 42.082-3.7115 50.354-1.3913l5.343 1.4988 0.8372-80.517c0.90341-86.897 1.1951-89.444 12.435-108.62 5.7186-9.7581 22.634-25.594 32.951-30.848 18.864-9.607 47.041-13.779 69.514-10.292 7.8208 1.2134 15.511 2.702 17.091 3.308 1.8122 0.69542 4.7271-1.6978 7.9038-6.4894 7.1959-10.854 18.642-21.425 29.736-27.463 13.088-7.1235 37.759-13.136 53.901-13.136 16.268 0 40.839 6.0263 54.183 13.289 9.2894 5.0559 25.194 20.152 31.854 30.237 2.7732 4.1987 3.5462 4.3478 10.985 2.1192 4.401-1.3185 17.454-2.4095 29.007-2.4244 30.808-0.03961 49.868 6.3199 68.701 22.923 19.356 17.064 26.781 35.205 28.652 70.006l1.2509 23.264 9.2116-1.8288c10.936-2.1711 35.112-0.58601 49.521 3.2467 28.585 7.6034 50.251 27.723 61.394 57.009 4.2413 11.148 4.2708 12.469 4.8989 220.26 0.40328 133.47-0.11801 217.37-1.4423 232.05-5.0048 55.51-24.751 101.01-57.407 132.28-24.821 23.77-53.363 38.591-87.262 45.315l-15.504 3.0754-0.044 72.201c-0.04 66.191-0.35528 72.887-3.7833 80.436-11.286 24.853-44.442 27.41-59.542 4.5917l-5.6467-8.5327v-95.168c0-106.18-0.48772-102.26 14.095-113.38 6.191-4.7221 9.8321-5.6409 28.509-7.194 34.056-2.8319 56.948-10.383 75.26-24.824 15.558-12.27 30.195-36.599 38.425-63.871 3.3546-11.116 3.6446-26.95 4.2498-231.98 0.35728-121.03 0.14203-222.11-0.47912-224.61-4.137-16.724-50.162-16.724-53.964 0-0.57053 2.5097-1.2699 36.971-1.554 76.58-0.51111 71.238-0.56652 72.097-5.1186 79.418-10.287 16.545-32.293 21.507-48.325 10.898-15.87-10.502-14.961-1.9213-16.145-152.33-0.58033-73.717-1.2555-134.23-1.5004-134.48-3.8397-3.8726-14.659-6.5529-26.451-6.5529-14.843 0-24.539 3.2937-26.764 9.0917-0.68336 1.7811-1.2477 47.5-1.2537 101.6 0 61.487-0.78578 101.15-2.0775 105.8-8.8155 31.742-50.243 34.689-64.147 4.5632-3.4604-7.4976-3.6959-15.651-3.7371-129.37-0.024-66.751-0.60315-122.82-1.2865-124.6-2.2249-5.7981-11.921-9.0917-26.764-9.0917-14.843 0-24.539 3.2937-26.764 9.0917-0.68336 1.7811-1.2477 56.952-1.2537 122.6 0 75.937-0.76298 122.07-2.0775 126.8-9.3784 33.768-56.461 33.768-65.839 0-1.2917-4.6508-2.0705-44.312-2.0775-105.8 0-54.098-0.57033-99.817-1.2537-101.6-2.2249-5.7981-11.921-9.0917-26.764-9.0917-14.843 0-24.539 3.2937-26.764 9.0917-0.68336 1.7811-1.2425 76.818-1.2425 166.75v163.51l11.503 3.5471c16.049 4.949 47.151 21.781 61.871 33.485 36.451 28.98 66.191 71.873 87.477 126.17 9.8151 25.035 11.482 37.387 6.3663 47.179-7.677 14.695-24.958 22.905-39.221 18.631-13.533-4.0547-20.648-12.114-27.981-31.695-8.2639-22.068-22.129-49.963-32.583-65.554-4.4264-6.6015-15.783-19.662-25.238-29.023-23.822-23.587-44.713-34.346-73.935-38.074-17.123-2.1847-26.146-7.0234-32.675-17.524-4.5337-7.2912-4.6095-8.3944-5.1106-74.417-0.27967-36.859-0.97903-69.069-1.554-71.579-3.4964-15.261-45.017-17.262-52.891-2.5493-1.3607 2.5424-2.0597 55.228-2.0597 155.23 0 172-0.90561 161.43 16.967 197.97 25.847 52.835 60.165 75.299 123.38 80.764 22.564 1.9505 30.538 5.678 37.161 17.371 4.4502 7.8568 4.4695 8.2951 4.5023 102.74l0.032 94.847-4.973 8.4856c-8.3614 14.268-27.33 20.602-42.038 14.036z" fill="#000" stroke-width="2.0005"/>
 </g>
</svg>
