<?xml version="1.0" encoding="UTF-8" standalone="no"?>
<!-- Created with Inkscape (http://www.inkscape.org/) -->

<svg
   width="210mm"
   height="297mm"
   viewBox="0 0 210 297"
   version="1.1"
   id="svg1"
   xml:space="preserve"
   sodipodi:docname="module-stic-messages.svg"
   inkscape:version="1.3.1 (9b9bdc1480, 2023-11-25, custom)"
   xmlns:inkscape="http://www.inkscape.org/namespaces/inkscape"
   xmlns:sodipodi="http://sodipodi.sourceforge.net/DTD/sodipodi-0.dtd"
   xmlns="http://www.w3.org/2000/svg"
   xmlns:svg="http://www.w3.org/2000/svg"><sodipodi:namedview
     id="namedview1"
     pagecolor="#ffffff"
     bordercolor="#000000"
     borderopacity="0.25"
     inkscape:showpageshadow="2"
     inkscape:pageopacity="0.0"
     inkscape:pagecheckerboard="0"
     inkscape:deskcolor="#d1d1d1"
     inkscape:document-units="mm"
     inkscape:zoom="1.0431888"
     inkscape:cx="396.38078"
     inkscape:cy="561.25984"
     inkscape:window-width="2490"
     inkscape:window-height="1371"
     inkscape:window-x="70"
     inkscape:window-y="32"
     inkscape:window-maximized="1"
     inkscape:current-layer="layer1" /><defs
     id="defs1" /><g
     inkscape:label="Layer 1"
     inkscape:groupmode="layer"
     id="layer1"><path
       style="fill:#000000;stroke-width:5.88374"
       d="m -7.736588,281.45416 c -7.849897,-3.12137 -15.0769,-8.56119 -18.968621,-14.27785 -4.882051,-7.1714 -5.376925,-229.662573 -0.526951,-236.928129 11.259772,-16.867877 13.062035,-17.185839 97.400372,-17.185839 84.924858,0 87.893328,0.562992 97.876238,18.562787 2.98057,5.374254 3.41581,38.99698 0.52255,40.348202 -6.53955,3.053804 -10.64375,-0.626922 -10.64375,-9.545602 0,-8.769903 0,-8.769903 -87.754767,-8.769903 h -87.755104 v 89.310064 89.31006 h 87.7548 87.754761 v -32.31073 c 0,-34.8979 0.63898,-37.35792 8.84014,-34.04154 4.70222,1.90148 5.85258,90.9681 1.28133,99.2104 -3.5432,6.38869 -11.41404,12.90299 -19.22991,15.91578 -9.52345,3.67101 -147.4393567,4.02538 -156.551088,0.4025 z M 143.61388,271.18195 c 10.19843,-5.2445 13.22802,-9.57051 14.00812,-20.00269 0.70518,-9.42904 0.70518,-9.42904 -87.251725,-9.42904 -87.956896,0 -87.956896,0 -87.956896,8.3385 0,10.08676 5.661521,18.51502 14.6974144,21.87988 10.7052106,3.98651 138.5561666,3.30001 146.5030866,-0.78665 z m -90.011659,-9.24237 c -3.619695,-1.59298 -4.10223,-5.38474 -0.985004,-7.74007 1.387809,-1.0486 8.556588,-1.62382 20.23736,-1.62382 18.611992,0 22.386416,0.95021 22.386416,5.63576 0,4.81883 -32.540097,7.73234 -41.638772,3.72813 z M 157.2307,39.787698 c -1.43181,-5.523492 -6.00258,-10.292816 -13.61682,-14.208445 -5.87972,-3.023577 -6.38474,-3.044648 -72.992164,-3.044648 -75.9904662,0 -75.950388,-0.0049 -83.792128,10.105526 -9.667031,12.463772 -16.31388,11.545381 83.562455,11.545381 87.978657,0 87.978657,0 86.838657,-4.397814 z M 119.60993,182.77611 c -0.59769,-1.17728 -1.08708,-6.65765 -1.08708,-12.17864 0,-10.03822 0,-10.03822 -11.71227,-10.03822 -29.282275,0 -36.642401,-8.5619 -36.642401,-42.62523 0,-41.408215 1.119087,-41.948704 86.859321,-41.948704 83.74567,0 83.27754,-0.235774 83.27754,41.991914 0,39.06577 -4.2548,42.58202 -51.52594,42.58202 -27.11314,0 -27.11314,0 -43.58829,12.17864 -16.47074,12.17543 -23.16198,14.8011 -25.58088,10.03822 z m 63.04381,-31.68912 c 44.0066,0 45.11486,-0.82705 45.11486,-33.66605 0,-32.802275 3.41114,-31.286728 -70.42053,-31.286728 -77.793252,0 -73.748008,-1.792185 -73.748008,32.672578 0,29.28234 2.896509,32.2802 31.189048,32.2802 16.43948,0 18.06108,0.99081 18.06108,11.03568 0,5.80089 0,5.80089 11.24137,-2.6174 11.24143,-8.41828 11.24143,-8.41828 38.56218,-8.41828 z"
       id="path1" /></g></svg>
