<?xml version="1.0" encoding="UTF-8" standalone="no"?>
<svg
   id="svg5"
   version="1.1"
   viewBox="0 0 1024 1024"
   height="1024pt"
   width="1024pt"
   sodipodi:docname="module-stic-registrations.svg"
   inkscape:version="1.4.3 (fcd0343856, 2026-01-01)"
   xmlns:inkscape="http://www.inkscape.org/namespaces/inkscape"
   xmlns:sodipodi="http://sodipodi.sourceforge.net/DTD/sodipodi-0.dtd"
   xmlns="http://www.w3.org/2000/svg"
   xmlns:svg="http://www.w3.org/2000/svg"
   xmlns:rdf="http://www.w3.org/1999/02/22-rdf-syntax-ns#"
   xmlns:cc="http://creativecommons.org/ns#"
   xmlns:dc="http://purl.org/dc/elements/1.1/">
  <sodipodi:namedview
     id="namedview1"
     pagecolor="#ffffff"
     bordercolor="#000000"
     borderopacity="0.25"
     inkscape:showpageshadow="2"
     inkscape:pageopacity="0.0"
     inkscape:pagecheckerboard="0"
     inkscape:deskcolor="#d1d1d1"
     inkscape:document-units="pt"
     inkscape:zoom="0.61376953"
     inkscape:cx="682.66667"
     inkscape:cy="682.66667"
     inkscape:window-width="1920"
     inkscape:window-height="1043"
     inkscape:window-x="1600"
     inkscape:window-y="0"
     inkscape:window-maximized="1"
     inkscape:current-layer="svg5" />
  <metadata
     id="metadata11">
    <rdf:RDF>
      <cc:Work
         rdf:about="">
        <dc:format>image/svg+xml</dc:format>
        <dc:type
           rdf:resource="http://purl.org/dc/dcmitype/StillImage" />
        <dc:title />
      </cc:Work>
    </rdf:RDF>
  </metadata>
  <defs
     id="defs9" />
  <path
     d="M 906.38295,28.236281 H 103.40468 c -19.971115,0 -39.115445,7.98857 -53.230556,22.22099 -14.124853,14.22267 -22.052998,33.51157 -22.052998,53.636069 v 809.09518 c 0,20.1135 7.928145,39.4034 22.052998,53.6361 14.115111,14.2226 33.258191,22.2112 53.230556,22.2112 h 802.97827 c 19.96128,0 39.10542,-7.9886 53.23052,-22.2112 14.11508,-14.2325 22.04328,-33.5216 22.04328,-53.6361 V 104.09334 c 0,-20.123229 -7.9282,-39.413399 -22.04328,-53.636049 -14.12482,-14.23244 -33.26817,-22.22101 -53.23052,-22.22101 z M 931.4803,913.1873 h -0.0134 c 0,6.70462 -2.64597,13.13462 -7.34436,17.87862 -4.70822,4.7343 -11.08969,7.4005 -17.74359,7.4005 h -802.9745 c -13.862085,0 -25.097415,-11.3212 -25.097415,-25.2786 V 179.94841 H 479.79613 c 13.86212,0 25.09744,-11.32115 25.09744,-25.27858 0,-13.9677 -11.23558,-25.2886 -25.09744,-25.2886 H 78.306995 v -25.27859 c 0,-13.967709 11.23555,-25.288629 25.097405,-25.288629 h 802.97828 c 6.65389,0 13.03523,2.66613 17.74345,7.41018 4.69854,4.73427 7.3445,11.16432 7.3445,17.878699 v 25.28862 l -301.10442,-0.009 c -13.85236,0 -25.08746,11.32115 -25.08746,25.28862 0,13.95794 11.23557,25.27858 25.08746,25.27858 H 931.47063 Z M 354.34907,306.3659 c 0,6.70455 -2.64596,13.13464 -7.35418,17.8787 -4.70817,4.73427 -11.08961,7.40037 -17.7435,7.40037 H 153.60676 c -13.86211,0 -25.09746,-11.32114 -25.09746,-25.27857 0,-13.9677 11.23557,-25.28861 25.09746,-25.28861 h 175.64463 c 6.65389,0 13.03533,2.6661 17.7435,7.41018 4.70822,4.73426 7.35418,11.16434 7.35418,17.87867 z m 0,202.27129 c 0,6.70457 -2.64596,13.13463 -7.35418,17.87869 -4.70817,4.73425 -11.08961,7.40041 -17.7435,7.40041 H 153.60676 c -13.86211,0 -25.09746,-11.32117 -25.09746,-25.2786 0,-13.9677 11.23557,-25.2886 25.09746,-25.2886 h 175.64463 c 6.65389,0 13.03533,2.66611 17.7435,7.41019 4.70822,4.73425 7.35418,11.1643 7.35418,17.87864 z m 526.95131,303.39816 c 0,6.70458 -2.64597,13.13462 -7.34436,17.8787 -4.70822,4.73427 -11.08969,7.40038 -17.74359,7.40038 H 705.6553 c -13.8621,0 -25.09745,-11.32117 -25.09745,-25.27858 0,-13.96773 11.23558,-25.28861 25.09745,-25.28861 h 150.55713 c 6.6539,0 13.03537,2.66612 17.74359,7.41016 4.69839,4.73429 7.34436,11.17415 7.34436,17.87872 z M 454.73379,306.36339 v 101.13692 c 0,6.70455 2.63626,13.1346 7.34447,17.87865 4.70819,4.7343 11.08962,7.40041 17.74352,7.40041 h 376.38675 c 6.65376,0 13.03524,-2.66611 17.74345,-7.40041 4.69854,-4.74405 7.3445,-11.1741 7.3445,-17.87865 V 306.36339 c 0,-6.71435 -2.64596,-13.1444 -7.3445,-17.87867 -4.70821,-4.74406 -11.08969,-7.41019 -17.74345,-7.41019 H 479.82178 c -13.86212,0 -25.08747,11.32115 -25.08747,25.28861 z m 50.18491,25.28861 326.20686,-0.009 v 50.56719 H 504.9187 Z m 376.38666,176.98269 v 202.27128 c 0,6.70457 -2.64597,13.13465 -7.34436,17.8787 -4.70822,4.73427 -11.08969,7.40039 -17.74359,7.40039 H 479.83074 c -13.86213,0 -25.08748,-11.32114 -25.08748,-25.27857 V 584.48095 c 0,-13.95791 11.22585,-25.27859 25.08748,-25.27859 13.86158,0 25.0974,11.32119 25.0974,25.27859 V 685.61787 H 831.13498 V 533.91375 H 555.10805 c -13.86211,0 -25.09742,-11.32115 -25.09742,-25.27858 0,-13.96769 11.23558,-25.28859 25.09742,-25.28859 h 301.10438 c 6.6539,0 13.03537,2.66611 17.74359,7.41018 4.69839,4.73426 7.34436,11.16431 7.34436,17.87868 z M 529.9962,154.64927 c 0,-10.23314 6.11873,-19.44702 15.48679,-23.36777 9.37752,-3.911 20.17556,-1.74474 27.35367,5.48908 7.16936,7.22399 9.31925,18.104 5.43783,27.552 -3.88139,9.44898 -13.03531,15.60476 -23.18139,15.60476 -13.86208,0 -25.0974,-11.32116 -25.0974,-25.27857 z m -75.27488,353.98542 c 0,-10.23313 6.10903,-19.44699 15.48682,-23.36775 9.37754,-3.91099 20.16583,-1.74474 27.34369,5.48904 7.17909,7.22403 9.32898,18.10404 5.43786,27.55199 -3.88141,9.449 -13.03532,15.60479 -23.18137,15.60479 -13.86212,0 -25.08747,-11.32116 -25.08747,-25.27856 z"
     id="path1"
     style="stroke-width:2.4998" />
</svg>
