<?xml version="1.0" encoding="UTF-8" standalone="no"?>
<svg
   id="svg5"
   version="1.1"
   viewBox="0 0 1024 1024"
   height="1024pt"
   width="1024pt"
   xml:space="preserve"
   sodipodi:docname="module-stic-signature-log.svg"
   inkscape:version="1.2.2 (b0a8486541, 2022-12-01)"
   xmlns:inkscape="http://www.inkscape.org/namespaces/inkscape"
   xmlns:sodipodi="http://sodipodi.sourceforge.net/DTD/sodipodi-0.dtd"
   xmlns="http://www.w3.org/2000/svg"
   xmlns:svg="http://www.w3.org/2000/svg"
   xmlns:rdf="http://www.w3.org/1999/02/22-rdf-syntax-ns#"
   xmlns:cc="http://creativecommons.org/ns#"
   xmlns:dc="http://purl.org/dc/elements/1.1/"><sodipodi:namedview
     id="namedview13"
     pagecolor="#ffffff"
     bordercolor="#666666"
     borderopacity="1.0"
     inkscape:showpageshadow="2"
     inkscape:pageopacity="0.0"
     inkscape:pagecheckerboard="0"
     inkscape:deskcolor="#d1d1d1"
     inkscape:document-units="pt"
     showgrid="false"
     inkscape:zoom="0.17285156"
     inkscape:cx="682.66667"
     inkscape:cy="685.55932"
     inkscape:window-width="1920"
     inkscape:window-height="1119"
     inkscape:window-x="0"
     inkscape:window-y="49"
     inkscape:window-maximized="1"
     inkscape:current-layer="svg5" /><metadata
     id="metadata11"><rdf:RDF><cc:Work
         rdf:about=""><dc:format>image/svg+xml</dc:format><dc:type
           rdf:resource="http://purl.org/dc/dcmitype/StillImage" /></cc:Work></rdf:RDF></metadata><defs
     id="defs9"><rect
       x="40.497175"
       y="80.99435"
       width="433.89831"
       height="856.22599"
       id="rect3702" /></defs><g
     id="g3646" /><g
     id="g1512"
     transform="translate(-21,79.5)"><path
       d="M 810.46747,662.06341 553.3952,919.13565 H 449.66429 V 815.40475 L 706.73654,558.3325 810.46747,662.06341 m 153.34131,-36.08032 c 0,13.53012 -13.53015,27.06024 -27.06021,40.59035 l -112.751,112.75099 -40.5904,-40.59036 117.2611,-117.26102 -27.0603,-27.06024 -31.5703,31.57028 -103.73086,-103.73091 99.22086,-94.71082 c 9.0201,-9.02008 27.0602,-9.02008 40.5904,0 l 63.1405,63.14055 c 9.02006,9.02008 9.02006,27.06024 0,40.59035 -9.0201,9.02008 -18.0402,18.04016 -18.0402,27.06024 0,9.02008 9.0201,18.04015 18.0402,27.06023 13.53006,13.53013 27.06011,27.06024 22.55021,40.59036"
       id="path222"
       style="fill:#000000;fill-opacity:1;stroke:#ffffff;stroke-width:10;stroke-dasharray:none;stroke-opacity:1"
       sodipodi:nodetypes="cccccccsccccccccscssc" /><path
       d="m 425.58079,843.7762 c -9.02008,0 -18.04016,4.51004 -22.5502,4.51004 L 380.4804,749.06538 h -67.65059 l -94.71083,76.67067 27.0602,-121.77106 h -67.6506 l -45.1004,225.50192 h 67.6506 L 330.86997,812.20592 357.9302,915.93681 h 45.10039 l 22.5502,-4.51 z"
       id="path222-2"
       style="stroke-width:45.1003"
       sodipodi:nodetypes="cccccccccccccc" /></g><path
     style="fill:#000000;stroke-width:0.899886"
     d="m 401.47665,669.33092 c -12.74011,-2.66194 -18.41683,-6.44441 -48.63633,-32.40718 -40.59278,-34.87473 -37.77698,-33.78143 -89.20343,-34.63628 -39.86556,-0.66268 -40.36482,-0.73017 -51.74346,-6.99516 -7.98991,-4.39926 -18.73335,-15.24664 -22.49919,-22.71709 -6.76222,-13.41451 -6.56041,-11.96293 -7.19297,-51.74748 -0.54389,-34.21094 -0.67407,-36.30772 -2.62767,-42.29464 -4.32701,-13.26076 -7.89392,-18.47249 -32.0447,-46.82226 -18.7895,-22.05623 -23.61433,-28.27969 -26.48929,-34.16749 -8.27715,-16.95161 -8.29551,-36.25946 -0.0504,-53.09328 2.84304,-5.80443 7.73998,-12.16762 25.27768,-32.84585 24.05971,-28.36831 25.92728,-30.83207 29.73188,-39.22304 5.58625,-12.32028 6.18521,-17.32505 6.19217,-51.74648 0,-28.25752 0.17362,-31.78143 1.82161,-38.22474 2.39718,-9.3731 7.82721,-18.64441 15.16296,-25.88937 7.28584,-7.19569 14.46705,-11.60547 23.96649,-14.71714 7.13586,-2.33743 7.51561,-2.36308 43.19454,-2.9173 l 35.99544,-0.55913 7.88408,-2.79634 c 4.33625,-1.53799 10.13176,-4.15856 12.87893,-5.82347 2.74706,-1.66491 16.40949,-13.01906 30.36096,-25.23144 13.95148,-12.212381 27.45793,-23.478847 30.01432,-25.03661 11.67597,-7.114836 29.84443,-9.94133 44.22365,-6.879954 12.89801,2.746021 17.28021,5.649965 47.03921,31.171374 27.93702,23.95898 33.06961,27.6189 44.92135,32.03271 l 6.74915,2.51349 35.5455,0.61774 c 38.76518,0.67371 40.51407,0.88941 51.79061,6.3876 11.86434,5.78484 21.05073,15.38313 26.97978,28.18958 4.80744,10.38381 5.14099,13.32281 5.77031,50.84357 0.55361,33.01212 0.67828,34.9214 2.64231,40.49487 4.16767,11.82632 7.78533,17.09176 27.21652,39.61384 25.06134,29.04783 28.99505,34.02821 32.14897,40.70377 8.20768,17.3723 7.10094,40.83108 -2.68838,56.98329 -1.6216,2.67562 -12.88889,16.38595 -25.03843,30.46742 -12.14967,14.08144 -23.45152,27.84883 -25.11535,30.5942 -1.66395,2.74536 -4.29005,8.53941 -5.83582,12.87566 l -2.81052,7.8841 -0.51618,35.54549 c -0.49049,33.78043 -0.6178,35.8583 -2.56455,41.8447 -6.011,18.4841 -19.26764,31.8971 -38.33479,38.78706 -3.9337,1.42146 -8.96851,1.6981 -40.04493,2.2003 -50.94568,0.8233 -49.16762,0.14149 -88.18885,33.8183 -14.10565,12.17381 -27.93378,23.64118 -30.72907,25.48306 -11.37912,7.49792 -30.53841,10.77342 -45.15412,7.7196 z M 387.17518,464.09997 c 4.28381,-1.77307 153.31816,-150.34885 156.01529,-155.53521 0.99804,-1.91919 2.02715,-5.56372 2.28679,-8.09898 1.65724,-16.17944 -13.0817,-28.11992 -29.06068,-23.54288 l -5.31101,1.52131 -66.36444,66.28251 -66.36456,66.2825 -29.47331,-29.40781 c -31.86569,-31.79482 -33.46941,-33.04561 -42.41728,-33.08211 -7.37834,-0.0301 -11.72455,1.65398 -16.47439,6.38365 -7.06267,7.03262 -8.77773,17.37636 -4.30626,25.97138 2.37426,4.56386 79.76027,81.50232 83.66818,83.18434 4.11692,1.77194 13.5674,1.79386 17.80167,0.0413 z"
     id="path1536" /></svg>
