<?xml version="1.0" encoding="UTF-8" standalone="no"?>
<svg
   width="1024mm"
   height="1024mm"
   viewBox="0 0 1024 1024"
   version="1.1"
   id="svg8"
   sodipodi:docname="module-stic-assessments.svg"
   inkscape:version="1.4.3 (fcd0343856, 2026-01-01)"
   xmlns:inkscape="http://www.inkscape.org/namespaces/inkscape"
   xmlns:sodipodi="http://sodipodi.sourceforge.net/DTD/sodipodi-0.dtd"
   xmlns="http://www.w3.org/2000/svg"
   xmlns:svg="http://www.w3.org/2000/svg"
   xmlns:rdf="http://www.w3.org/1999/02/22-rdf-syntax-ns#"
   xmlns:cc="http://creativecommons.org/ns#"
   xmlns:dc="http://purl.org/dc/elements/1.1/">
  <sodipodi:namedview
     id="namedview1"
     pagecolor="#ffffff"
     bordercolor="#000000"
     borderopacity="0.25"
     inkscape:showpageshadow="2"
     inkscape:pageopacity="0.0"
     inkscape:pagecheckerboard="0"
     inkscape:deskcolor="#d1d1d1"
     inkscape:document-units="mm"
     inkscape:zoom="0.21652425"
     inkscape:cx="1704.1971"
     inkscape:cy="1902.7892"
     inkscape:window-width="1920"
     inkscape:window-height="1043"
     inkscape:window-x="1600"
     inkscape:window-y="0"
     inkscape:window-maximized="1"
     inkscape:current-layer="svg8" />
  <defs
     id="defs2">
    <symbol
       id="SquaredBalloon"
       style="stroke-linejoin:miter;stroke-miterlimit:10">
      <title
         id="title955">Squared Balloon</title>
      <rect
         x="21.166666"
         y="17.197916"
         width="66.145836"
         height="37.041668"
         rx="4.4979167"
         style="stroke:none;stroke-width:0.264583"
         id="rect957" />
      <path
         d="m 33.3375,52.652083 6.614583,11.377084 7.9375,-11.377084"
         style="stroke:none;stroke-width:0.264583"
         id="path959" />
      <rect
         x="19.84375"
         y="15.875"
         width="66.145836"
         height="37.041668"
         rx="3.96875"
         style="fill:#eeeeee;stroke-width:0.926042"
         id="rect961" />
      <path
         d="m 31.75,51.59375 6.614583,11.377083 7.9375,-11.377083"
         style="fill:#eeeeee;stroke-width:0.926042"
         id="path963" />
      <rect
         x="21.166666"
         y="17.197916"
         width="62.177082"
         height="33.072918"
         rx="2.6458333"
         style="fill:#ffffff;stroke:none;stroke-width:0.264583"
         id="rect965" />
      <path
         d="M 31.220833,47.625 37.835417,59.002083 45.772917,47.625"
         style="fill:#ffffff;stroke:none;stroke-width:0.264583"
         id="path967" />
    </symbol>
  </defs>
  <metadata
     id="metadata5">
    <rdf:RDF>
      <cc:Work
         rdf:about="">
        <dc:format>image/svg+xml</dc:format>
        <dc:type
           rdf:resource="http://purl.org/dc/dcmitype/StillImage" />
        <dc:title />
      </cc:Work>
    </rdf:RDF>
  </metadata>
  <g
     id="layer1"
     transform="matrix(1.016142,0,0,1.0187106,-0.16111634,-0.37402532)">
    <path
       d="M 815.44234,19.989991 H 79.024363 c -18.315699,0 -35.873078,7.073528 -48.818183,19.675682 C 17.252147,52.25917 9.9811836,69.338579 9.9811836,87.157893 V 803.57403 c 0,17.8095 7.2709634,34.88983 20.2249964,47.49221 12.945105,12.59353 30.50135,19.66703 48.818183,19.66703 H 815.44234 c 18.3067,0 35.86386,-7.0735 48.81808,-19.66703 12.94496,-12.60215 20.2161,-29.68178 20.2161,-47.49221 V 87.157893 c 0,-17.818178 -7.27114,-34.898723 -20.2161,-47.49222 C 851.30651,27.063519 833.74993,19.989991 815.44234,19.989991 Z m 23.01685,783.582889 v 0 c 0,5.93665 -2.42659,11.63014 -6.7357,15.83074 -4.31807,4.19201 -10.17046,6.55277 -16.2728,6.55277 H 79.024183 c -12.713105,0 -23.01708,-10.02436 -23.01708,-22.38304 V 154.32403 H 424.21602 c 12.71307,0 23.01709,-10.02438 23.01709,-22.38303 0,-12.36773 -10.30429,-22.3919 -23.01709,-22.3919 H 56.007074 V 87.166142 c 0,-12.367759 10.304242,-22.391908 23.017049,-22.391908 H 815.44203 c 6.10234,0 11.95472,2.360682 16.27251,6.561369 4.3091,4.191947 6.73571,9.885463 6.73571,15.830775 v 22.391882 l -276.14519,-0.0106 c -12.70412,0 -23.00791,10.02432 -23.00791,22.39187 0,12.35912 10.30425,22.38304 23.00791,22.38304 H 838.45025 Z M 309.1675,266.26084 c 0,5.93657 -2.42663,11.6301 -6.74459,15.83073 -4.31791,4.19197 -10.17038,6.5527 -16.27268,6.5527 H 125.0651 c -12.71306,0 -23.01709,-10.02438 -23.01709,-22.38301 0,-12.36776 10.30425,-22.39189 23.01709,-22.39189 h 161.08513 c 6.1023,0 11.95477,2.36072 16.27268,6.56139 4.31796,4.19197 6.74459,9.88546 6.74459,15.83074 z m 0,179.1018 c 0,5.93656 -2.42663,11.63008 -6.74459,15.83074 -4.31791,4.19198 -10.17038,6.55268 -16.27268,6.55268 H 125.0651 c -12.71306,0 -23.01709,-10.02433 -23.01709,-22.38298 0,-12.36776 10.30425,-22.39188 23.01709,-22.39188 h 161.08513 c 6.1023,0 11.95477,2.36068 16.27268,6.56137 4.31796,4.19195 6.74459,9.88547 6.74459,15.83073 z m 92.06366,-179.10403 v 89.552 c 0,5.9366 2.41776,11.63008 6.73565,15.83075 4.31792,4.19198 10.1704,6.55269 16.27274,6.55269 h 345.18726 c 6.10233,0 11.95472,-2.36071 16.27279,-6.55269 4.30912,-4.20067 6.73571,-9.89415 6.73571,-15.83075 v -89.552 c 0,-5.94525 -2.42659,-11.63879 -6.73571,-15.83074 -4.31807,-4.20064 -10.17046,-6.56143 -16.27279,-6.56143 H 424.23955 c -12.71304,0 -23.00795,10.02439 -23.00795,22.39197 z m 46.02496,22.39187 299.16695,-0.0106 v 44.7749 H 447.25612 Z m 22.99882,-156.72767 c 0,-9.06097 5.61151,-17.2194 14.20304,-20.69107 8.60021,-3.46302 18.50314,-1.54485 25.08626,4.86033 6.57508,6.39647 8.54676,16.03024 4.98708,24.39601 -3.55967,8.36663 -11.95476,13.81731 -21.25982,13.81731 -12.71305,0 -23.01704,-10.02438 -23.01704,-22.38304 z"
       id="path1"
       style="display:inline;stroke-width:2.25265"
       sodipodi:nodetypes="sscssssscsssscscssscssscssscsccssccccssssscccccsssssccccscsscssssscccccccccccscc" />
    <path
       d="m 462.95,560.61 c -39.969,0 -72.508,-32.516 -72.508,-72.508 0,-39.969 32.516,-72.508 72.508,-72.508 39.988,0 72.508,32.516 72.508,72.508 0,39.969 -32.516,72.508 -72.508,72.508 z m 0,-117.72 c -24.938,0 -45.219,20.277 -45.219,45.219 0,24.938 20.277,45.219 45.219,45.219 24.938,0 45.219,-20.277 45.219,-45.219 0.0195,-24.941 -20.281,-45.219 -45.219,-45.219 z"
       fill="#000000"
       id="svg-el-4"
       style="display:inline"
       transform="matrix(3.1131587,0,0,2.8359277,-858.01047,-781.35753)" />
    <path
       d="m 581.27016,628.00265 c -3.5039,0 -6.9922,-1.3242 -9.6367,-3.9883 l -69.125,-69.125 c -5.332,-5.332 -5.332,-13.961 0,-19.293 5.332,-5.332 13.961,-5.332 19.293,0 l 69.125,69.125 c 5.332,5.332 5.332,13.961 0,19.293 -2.6875,2.668 -6.1719,3.9883 -9.6562,3.9883 z"
       fill="#000000"
       id="svg-el-5"
       style="display:inline"
       transform="matrix(3.1131587,0,0,2.8359277,-858.01047,-781.35753)" />
  </g>
</svg>
