<?xml version="1.0" encoding="UTF-8" standalone="no"?>
<svg
   xmlns:dc="http://purl.org/dc/elements/1.1/"
   xmlns:cc="http://creativecommons.org/ns#"
   xmlns:rdf="http://www.w3.org/1999/02/22-rdf-syntax-ns#"
   xmlns:svg="http://www.w3.org/2000/svg"
   xmlns="http://www.w3.org/2000/svg"
   id="svg5"
   version="1.1"
   viewBox="0 0 1024 1024"
   height="1024pt"
   width="1024pt">
  <metadata
     id="metadata11">
    <rdf:RDF>
      <cc:Work
         rdf:about="">
        <dc:format>image/svg+xml</dc:format>
        <dc:type
           rdf:resource="http://purl.org/dc/dcmitype/StillImage" />
        <dc:title></dc:title>
      </cc:Work>
    </rdf:RDF>
  </metadata>
  <defs
     id="defs9" />
  <path
     id="path368"
     d="m 593.7767,970.15823 c -6.76412,-2.51811 -40.23777,-28.0943 -78.20981,-59.75772 l -66.38436,-55.3555 -19.63673,21.46874 c -21.91823,23.96321 -33.05687,28.65645 -53.08018,22.36523 -21.9214,-6.88762 -38.96947,-38.34293 -32.23686,-59.48023 2.94255,-9.23821 68.02771,-97.53348 94.38716,-128.04667 14.9989,-17.36242 29.12701,-21.20891 48.32016,-13.15537 14.27516,5.98992 22.21662,16.47435 27.16,35.85723 5.15374,20.2075 0.0871,34.35064 -22.92792,64.00307 l -19.28515,24.84672 9.94299,8.87251 c 22.19539,19.80573 110.90513,91.60143 120.57135,97.58239 9.22783,5.70964 11.57729,5.99786 21.37988,2.62298 15.47345,-5.32721 31.27752,-16.31417 37.98129,-26.40451 6.95529,-10.46891 11.69671,-25.20572 10.2763,-31.93934 -0.57867,-2.7428 -28.24056,-29.60238 -61.47096,-59.68795 -33.23042,-30.08559 -63.37419,-57.73758 -66.98622,-61.44896 -8.85984,-9.10353 -9.24134,-29.79742 -0.63835,-34.62578 11.08545,-6.22164 31.80224,8.14321 90.56946,62.80018 30.77181,28.61963 59.28418,53.91263 63.36076,56.20671 4.66014,2.62255 12.35491,3.58681 20.72613,2.59733 22.41819,-2.64993 38.26416,-26.72023 38.30822,-58.19081 0.0267,-18.47992 -6.36517,-27.19071 -44.44541,-60.57788 -86.46694,-75.81051 -94.90667,-85.06592 -91.30224,-100.12648 2.34351,-9.79213 6.16262,-12.74132 16.58091,-12.80411 5.93575,-0.0353 23.50668,14.12989 73.97877,59.64112 37.54542,33.85513 68.68289,59.68802 71.94444,59.68802 9.86212,0 16.1053,-5.40973 28.24497,-24.47422 12.46654,-19.5779 20.03827,-46.11281 16.89996,-59.22564 -1.17821,-4.92316 -22.18797,-27.2894 -56.5815,-60.23485 -57.19284,-54.78477 -69.1571,-69.87869 -64.77348,-81.71665 2.78648,-7.52492 13.82147,-11.65051 23.93038,-8.94677 3.612,0.96611 28.64535,23.49843 55.62959,50.07184 54.78047,53.94649 64.38109,62.0894 73.20383,62.0894 10.01131,0 36.45904,-21.24181 44.61143,-35.83008 8.84827,-15.83364 8.37856,-35.24974 -1.16033,-47.96705 -5.19223,-6.92227 -135.78643,-137.315 -221.03009,-220.68915 -32.61497,-31.89964 -42.8725,-38.9967 -53.09906,-36.73849 -2.98164,0.65844 -27.74995,4.87956 -55.04071,9.3804 -37.49104,6.18297 -55.6374,10.7793 -74.23926,18.80415 -21.74803,9.38209 -27.02508,10.4917 -45.24139,9.51283 -22.90631,-1.23086 -40.52417,-8.95806 -56.14866,-24.62685 -21.5438,-21.60472 -16.42112,-35.9542 27.77589,-77.80561 48.41687,-45.84727 52.48823,-47.68919 128.15152,-57.976 21.27073,-2.89187 38.67408,-6.25757 38.67408,-7.47942 0,-7.01731 -97.92346,-11.38333 -140.10227,-6.24655 -60.73587,7.39674 -127.82259,20.69347 -138.1381,27.37926 -8.489,5.50195 -18.79482,24.45842 -72.09473,132.61095 l -62.18981,126.19134 6.11889,34.81592 c 3.36541,19.14875 6.75155,35.47935 7.52474,36.29015 0.77314,0.81083 8.06275,-3.32793 16.19903,-9.19724 18.75431,-13.52886 33.28217,-16.3328 49.45787,-9.54536 14.85528,6.23334 25.53991,18.96281 29.78127,35.48089 5.58326,21.74429 0.12983,31.68455 -52.65016,95.97196 -26.48813,32.26308 -51.38413,61.23701 -55.32451,64.38645 -10.86461,8.68385 -37.01584,9.5538 -49.04918,1.63177 -13.94431,-9.18011 -21.11079,-23.37069 -21.1237,-41.82766 -0.0191,-22.70326 3.98764,-31.83318 29.73572,-67.81249 25.9397,-36.24692 25.17663,-32.15825 14.39238,-77.11826 l -4.73521,-19.74145 -17.24439,-7.23552 C 123.54095,445.31167 98.585205,430.55983 77.568181,416.50943 56.551171,402.45901 35.415018,388.40977 30.59902,385.28894 17.726232,376.94726 18.031769,366.45434 32.189852,330.65152 60.481744,259.10741 133.20391,113.89266 165.97922,63.495096 c 16.99342,-26.130275 31.3448,-40.399931 40.61785,-40.386473 11.5551,0.01497 21.39505,7.519141 61.47781,46.873216 20.86202,20.482677 39.42203,36.192961 44.00542,37.248661 4.35954,1.00413 20.30382,-0.93484 35.43167,-4.30883 98.52166,-21.973464 183.12964,-26.7997 240.36784,-13.711118 11.35258,2.595981 33.87766,11.509808 50.05569,19.808508 16.17802,8.29869 32.02221,15.08858 35.20921,15.08858 7.71229,0 14.06283,-7.64496 57.28592,-68.962375 42.43854,-60.2044193 45.94001,-64.084205 55.5518,-61.5543228 3.82087,1.0056881 48.85979,42.6697148 100.08644,92.5866618 133.76183,130.342206 138.38063,135.183556 138.38063,145.049446 0,6.26174 -9.3622,19.85521 -37.49266,54.43747 -20.621,25.3504 -38.92218,49.99078 -40.66929,54.75627 -1.74714,4.76545 -5.33265,20.37255 -7.96765,34.68238 -5.20104,28.24462 -15.89593,59.17241 -26.70543,77.22745 -3.75963,6.27966 -6.83568,12.68612 -6.83568,14.23648 0,1.5504 7.88225,9.97986 17.51604,18.73221 14.58133,13.24713 18.28056,18.67133 22.07946,32.37518 5.16054,18.61612 3.72682,36.71733 -4.80021,60.60513 -10.98011,30.7599 -29.18142,49.79988 -58.79471,61.50402 -14.69581,5.80825 -14.64325,5.7191 -19.91367,33.75938 -7.32238,38.95736 -25.32034,69.00831 -52.13912,87.05584 -14.13133,9.50961 -17.78085,16.7361 -17.78085,35.20803 0,12.12527 -8.46465,36.92299 -17.47079,51.18188 -11.56659,18.31272 -27.03966,29.23449 -47.53053,33.55009 l -16.59755,3.49553 -5.97869,16.75758 c -11.93358,33.44853 -33.28601,57.25627 -61.39777,68.45802 -16.98665,6.76874 -31.70598,7.04611 -48.1937,0.90824 z M 164.50081,360.56377 c 12.59503,-26.51521 42.42977,-87.95322 66.29937,-136.5289 32.54312,-66.22657 42.73333,-89.57981 40.73689,-93.35812 -1.46423,-2.77125 -15.78332,-18.68021 -31.82015,-35.353275 L 210.55917,65.008922 194.61364,90.732113 C 171.30044,128.34079 136.76277,192.31011 114.01855,240.00688 89.378039,291.68057 60.513671,357.00601 61.768985,358.25755 c 2.61358,2.6056 76.757225,50.51574 78.176025,50.51574 0.91059,0 11.96069,-21.69425 24.5558,-48.20952 z m 786.97729,-91.66186 29.40824,-35.80013 -9.59546,-9.72532 C 857.90842,108.46012 792.48213,46.825413 785.39767,48.256204 c -5.85579,1.182612 -59.24683,73.417436 -56.41975,76.332446 4.98441,5.13948 191.91074,180.00917 192.47308,180.05879 0.34025,0.0313 13.85256,-16.0555 30.0271,-35.74553 z M 275.65357,849.96557 c -29.64429,-18.95789 -35.81558,-52.66572 -15.27814,-83.44932 17.88973,-26.81499 98.87659,-127.97228 107.77453,-134.6167 10.90442,-8.14269 30.44025,-10.7747 44.31948,-5.97109 23.68544,8.19752 36.79887,38.49673 26.27078,60.70005 -2.97348,6.27101 -29.84852,43.77109 -59.72222,83.33354 -56.01619,74.18349 -67.61033,85.71971 -86.1246,85.69433 -4.59749,-0.004 -12.35536,-2.56719 -17.23983,-5.69081 z m -67.15264,-81.2481 c -11.25306,-5.14023 -23.13998,-19.83528 -27.65818,-34.19223 -7.75951,-24.65641 4.89265,-53.40847 47.03893,-106.89603 59.48558,-75.49286 69.02286,-84.18807 92.3142,-84.16394 27.49888,0.0313 49.11301,31.85357 41.6328,61.30096 -3.15293,12.41202 -111.77445,154.26314 -124.72735,162.884 -9.49923,6.32227 -16.52223,6.58432 -28.6004,1.06724 z"
     style="fill:#000000;stroke-width:2.98901486;image-rendering:auto" />
</svg>
