<?xml version="1.0" encoding="UTF-8" standalone="no"?>
<svg
   xmlns:dc="http://purl.org/dc/elements/1.1/"
   xmlns:cc="http://creativecommons.org/ns#"
   xmlns:rdf="http://www.w3.org/1999/02/22-rdf-syntax-ns#"
   xmlns:svg="http://www.w3.org/2000/svg"
   xmlns="http://www.w3.org/2000/svg"
   id="svg5"
   version="1.1"
   viewBox="0 0 1024 1024"
   height="1024pt"
   width="1024pt">
  <metadata
     id="metadata11">
    <rdf:RDF>
      <cc:Work
         rdf:about="">
        <dc:format>image/svg+xml</dc:format>
        <dc:type
           rdf:resource="http://purl.org/dc/dcmitype/StillImage" />
        <dc:title></dc:title>
      </cc:Work>
    </rdf:RDF>
  </metadata>
  <defs
     id="defs9" />
  <path
     id="path4585"
     d="m 313.91876,876.03037 -54.52949,-45.46976 14.79041,-10.35867 c 54.15093,-37.92526 33.42027,-111.01545 -36.13196,-127.39042 -25.81572,-6.07793 -56.31665,1.64588 -78.33593,19.83726 -9.83054,8.12163 -19.06258,14.76661 -20.51565,14.76661 -1.45297,0 -25.8898,-20.24298 -54.304045,-44.98442 L 33.229767,637.44652 295.29985,415.06044 C 439.43836,292.74808 579.25019,174.25946 605.99276,151.75236 l 48.62291,-40.922 54.3557,45.51578 54.35579,45.51573 -14.7905,10.34637 c -29.81944,20.85966 -38.94397,57.48794 -21.92623,88.01812 24.73771,44.37996 94.16636,54.4095 136.20821,19.67635 9.93293,-8.20612 19.24858,-14.92022 20.70156,-14.92022 1.45298,0 25.8873,20.24075 54.29831,44.97945 l 51.65658,44.97939 -266.44636,226.02322 C 576.48326,745.2773 436.75218,863.75306 412.51526,884.24394 l -44.06702,37.25625 z"
     style="fill:#000000;stroke-width:4.08372927" />
</svg>
