<?xml version="1.0" encoding="UTF-8" standalone="no"?>
<svg
   xmlns:dc="http://purl.org/dc/elements/1.1/"
   xmlns:cc="http://creativecommons.org/ns#"
   xmlns:rdf="http://www.w3.org/1999/02/22-rdf-syntax-ns#"
   xmlns:svg="http://www.w3.org/2000/svg"
   xmlns="http://www.w3.org/2000/svg"
   xmlns:sodipodi="http://sodipodi.sourceforge.net/DTD/sodipodi-0.dtd"
   xmlns:inkscape="http://www.inkscape.org/namespaces/inkscape"
   id="svg5"
   version="1.1"
   viewBox="0 0 1024 1024"
   height="1024pt"
   width="1024pt"
   sodipodi:docname="module-stic-payments-aggregated.svg"
   inkscape:version="1.0.2 (1.0.2+r75+1)">
  <sodipodi:namedview
     pagecolor="#ffffff"
     bordercolor="#666666"
     borderopacity="1"
     objecttolerance="10"
     gridtolerance="10"
     guidetolerance="10"
     inkscape:pageopacity="0"
     inkscape:pageshadow="2"
     inkscape:window-width="1848"
     inkscape:window-height="1016"
     id="namedview8"
     showgrid="false"
     inkscape:zoom="0.63134766"
     inkscape:cx="682.66667"
     inkscape:cy="809.37974"
     inkscape:window-x="1992"
     inkscape:window-y="27"
     inkscape:window-maximized="1"
     inkscape:current-layer="svg5" />
  <metadata
     id="metadata11">
    <rdf:RDF>
      <cc:Work
         rdf:about="">
        <dc:format>image/svg+xml</dc:format>
        <dc:type
           rdf:resource="http://purl.org/dc/dcmitype/StillImage" />
        <dc:title />
      </cc:Work>
    </rdf:RDF>
  </metadata>
  <defs
     id="defs9" />
  <path
     id="path866"
     d="m 193.0856,770.7194 c -21.80749,-5.31615 -39.40649,-23.45534 -44.01496,-45.36611 -1.0502,-4.99294 -1.46497,-76.46847 -1.45379,-250.494 0.0163,-261.60706 -0.29684,-249.08545 6.5956,-263.32332 6.87235,-14.19645 24.23919,-27.37484 40.58605,-30.79775 9.62647,-2.01571 120.22463,-1.99814 129.73153,0.0207 22.73732,4.82813 41.48036,24.10318 45.85167,47.15295 0.74012,3.90268 1.3437,16.95216 1.34117,28.99885 v 21.90309 l -22.73772,0.1566 c -19.55502,0.13472 -24.90043,0.65019 -38.18822,3.68262 -8.4978,1.93931 -18.82462,4.6869 -22.94865,6.10574 -4.12445,1.41886 -7.70239,2.57975 -7.95146,2.57975 -0.249,0 -0.45275,-3.87993 -0.45275,-8.62205 0,-11.14958 -3.33059,-18.01929 -10.51236,-21.68316 -2.86184,-1.46 -7.15508,-2.64477 -9.54057,-2.63283 -6.02591,0.0301 -14.14013,5.02822 -17.05438,10.50484 -2.34973,4.41588 -2.44438,12.43381 -2.44438,207.00773 0,194.57393 0.0946,202.59187 2.44438,207.00773 2.91425,5.47663 11.02847,10.47472 17.05438,10.50486 2.38549,0.0119 6.67873,-1.17286 9.54057,-2.63284 7.18177,-3.66387 10.51236,-10.5336 10.51236,-21.68316 0,-4.74212 0.20375,-8.62206 0.45275,-8.62206 0.24907,0 3.82701,1.16089 7.95097,2.57974 4.12394,1.41885 14.45086,4.16644 22.94857,6.10575 13.28779,3.03243 18.63319,3.54791 38.18821,3.6826 l 22.73773,0.15662 v 23.12442 c 0.008,25.12155 -1.2867,33.01124 -7.36903,45.01413 -7.08926,13.9899 -23.74512,26.5021 -39.8238,29.91632 -10.00784,2.12512 -122.52159,1.82752 -131.44445,-0.34767 z m 557.99755,-93.38844 c -3.03052,-1.75651 -5.97463,-4.97853 -7.58074,-8.29631 -2.57848,-5.32641 -2.62595,-8.34093 -2.62595,-166.7539 0,-158.63728 0.044,-161.42031 2.63689,-166.77652 1.68057,-3.47154 4.49503,-6.49143 7.76025,-8.32659 4.7736,-2.6829 6.85389,-2.87949 30.47295,-2.87949 23.61903,0 25.69933,0.19659 30.47293,2.87949 3.26521,1.83516 6.07969,4.85505 7.76022,8.32659 2.5929,5.35621 2.63691,8.13924 2.63691,166.77652 0,158.63729 -0.044,161.42032 -2.63691,166.77652 -1.68053,3.47155 -4.49501,6.49143 -7.76022,8.32659 -4.78326,2.68833 -6.81808,2.87746 -30.65245,2.84919 -23.79999,-0.0281 -25.86468,-0.22479 -30.48388,-2.90209 z m -182.6246,-38.02919 c -13.99147,-1.81776 -30.33504,-6.42696 -52.3675,-14.76868 -11.60184,-4.39256 -21.62942,-8.45367 -22.28353,-9.02468 -0.65867,-0.57499 2.16229,-4.65831 6.32273,-9.15206 10.16572,-10.98021 22.03112,-28.91656 30.07844,-45.4682 l 6.65974,-13.69769 8.4126,6.9828 c 18.02782,14.96383 43.84937,25.17945 67.57502,26.73428 11.39222,0.74658 13.30682,0.53716 18.27865,-1.99926 6.20667,-3.16642 10.86255,-10.5815 10.86255,-17.3 0,-6.42195 -4.66723,-14.145 -10.23526,-16.93671 -3.07308,-1.5408 -9.15523,-2.75542 -16.16821,-3.22882 -27.14068,-1.83206 -51.19475,-17.52833 -65.25634,-42.58241 -4.24032,-7.55518 -7.63107,-11.94973 -10.3835,-13.45744 -3.64788,-1.99824 -11.38301,-2.30964 -71.98413,-2.89799 -67.32636,-0.65366 -67.94382,-0.68419 -73.46357,-3.63366 -8.73039,-4.66509 -14.45315,-10.41842 -18.44121,-18.53955 -4.9281,-10.03521 -5.23769,-25.5582 -0.68116,-34.15129 4.57694,-8.6316 9.96766,-13.99256 18.33168,-18.23053 l 7.67562,-3.88915 66.98598,-0.36467 66.98597,-0.36466 -0.91051,-2.93131 c -1.93793,-6.23899 -11.2454,-23.39948 -19.14708,-35.3021 -14.88746,-22.42561 -43.97296,-49.12067 -67.59174,-62.0367 l -6.56351,-3.58925 5.16982,-1.35701 c 2.84346,-0.74636 22.37489,-5.39376 43.40316,-10.32757 37.87228,-8.88588 38.40757,-8.96993 56.69075,-8.90215 32.70299,0.12115 40.09573,3.0805 109.42633,43.80308 l 44.82524,26.32894 0.33536,145.84716 0.33534,145.84717 -62.29965,-0.16718 c -34.26482,-0.0919 -66.02495,-0.65116 -70.57808,-1.24271 z M 335.47172,633.255 c -16.38711,-1.94576 -34.07375,-6.68087 -47.13249,-12.61842 l -8.89908,-4.0463 V 475.89784 335.20537 l 7.88245,-3.53743 c 40.45841,-18.15668 87.03434,-18.33859 127.74402,-0.49893 13.83953,6.0647 31.33187,17.22354 41.69693,26.59967 l 6.59192,5.96301 -30.44167,0.0591 c -25.86838,0.0503 -31.97146,0.45034 -40.62483,2.66348 -14.8091,3.78754 -24.99858,9.66887 -36.52512,21.08224 -20.39365,20.19346 -27.97435,47.07387 -20.98374,74.40679 3.80897,14.89307 9.66248,25.00684 21.08222,36.42667 11.41982,11.4198 21.53357,17.27323 36.42664,21.08224 9.27124,2.3712 14.70802,2.60441 60.711,2.60441 h 50.5279 l -2.68894,6.92154 c -16.20062,41.70157 -44.44688,72.42778 -83.3348,90.65126 -23.14276,10.84505 -57.45343,16.54406 -82.03241,13.62562 z"
     style="fill:#000000;stroke-width:1.31839" />
  <text
     xml:space="preserve"
     style="font-style:normal;font-weight:normal;font-size:343.429px;line-height:1.25;font-family:sans-serif;fill:#000000;fill-opacity:1;stroke:#000000;stroke-width:47.5216;stroke-miterlimit:4;stroke-dasharray:none;stroke-opacity:1"
     x="535.33014"
     y="-691.09131"
     id="text833"
     transform="scale(1,-1)"><tspan
       id="tspan831"
       x="535.33014"
       y="-691.09131"
       style="stroke:#000000;stroke-width:47.5216;stroke-miterlimit:4;stroke-dasharray:none;stroke-opacity:1">+</tspan></text>
  <path
     style="font-style:normal;font-weight:400;font-size:431.869px;line-height:1.25;font-family:sans-serif;letter-spacing:0;word-spacing:0;fill:#000000;fill-opacity:1;stroke:none;stroke-width:47.5032"
     d="M 454.84546,1016.5873 C 341.67233,1003.6391 229.17493,946.42791 146.81314,859.93589 29.252845,736.4822 -18.790522,574.10849 13.281212,408.63331 55.520207,190.69521 240.71085,24.361201 462.11964,5.4974973 674.75006,-12.619671 873.64541,100.43813 967.51267,292.7765 c 153.97363,315.49767 -48.06452,684.90784 -396.07399,724.1871 -45.04003,5.0831 -69.57052,5.0042 -116.59322,-0.3763 z m 94.17486,-30.34619 c 217.11866,-21.11134 387.4079,-174.69453 431.45963,-389.13162 9.50273,-46.25492 9.50273,-134.502 0,-180.75793 C 951.06671,273.17233 866.0455,158.09339 740.23993,91.180268 624.83628,29.799385 485.78727,18.203791 363.57984,59.769084 92.459596,151.98354 -40.751646,458.16772 78.219776,715.66619 146.96892,864.46464 296.33998,970.14106 460.32512,985.99533 c 19.97439,1.93211 38.29792,3.73072 40.7176,3.99775 2.41966,0.26704 24.00954,-1.42127 47.9776,-3.75197 z"
     id="path2" />
</svg>
