<?xml version="1.0" encoding="UTF-8" standalone="no"?>
<svg
   id="svg5"
   version="1.1"
   viewBox="0 0 1024 1024"
   height="1024pt"
   width="1024pt"
   xmlns="http://www.w3.org/2000/svg"
   xmlns:svg="http://www.w3.org/2000/svg"
   xmlns:rdf="http://www.w3.org/1999/02/22-rdf-syntax-ns#"
   xmlns:cc="http://creativecommons.org/ns#"
   xmlns:dc="http://purl.org/dc/elements/1.1/">
  <metadata
     id="metadata11">
    <rdf:RDF>
      <cc:Work
         rdf:about="">
        <dc:format>image/svg+xml</dc:format>
        <dc:type
           rdf:resource="http://purl.org/dc/dcmitype/StillImage" />
      </cc:Work>
    </rdf:RDF>
  </metadata>
  <defs
     id="defs9" />
  <g
     id="SVGRepo_iconCarrier"
     transform="matrix(10.16241,0,0,10.16241,10.647665,10.652748)">
    <g
       id="g25">
      <g
         id="g23">
        <circle
           cx="49.332001"
           cy="53.556999"
           r="10.297"
           id="circle11" />
        <path
           d="m 53.7,64.556 h -8.737 c -7.269,0 -13.183,5.916 -13.183,13.184 v 10.688 l 0.027,0.166 0.735,0.229 c 6.937,2.168 12.965,2.892 17.927,2.892 9.688,0 15.303,-2.764 15.65,-2.938 l 0.688,-0.351 0.071,0.002 V 77.739 C 66.883,70.472 60.971,64.556 53.7,64.556 Z"
           id="path13" />
        <circle
           cx="28.312"
           cy="23.563"
           r="16.611"
           id="circle15" />
        <path
           d="m 70.35,40.174 c 9.174,0 16.609,-7.44 16.609,-16.613 0,-9.17 -7.438,-16.609 -16.609,-16.609 -9.176,0 -16.61,7.437 -16.61,16.609 0,9.172 7.434,16.613 16.61,16.613 z"
           id="path17" />
        <path
           d="m 41.258,62.936 c -2.637,-2.274 -4.314,-5.632 -4.314,-9.378 0,-4.594 2.519,-8.604 6.243,-10.743 -2.425,-0.965 -5.061,-1.511 -7.826,-1.511 H 21.266 C 9.54,41.303 0,50.847 0,62.571 v 17.241 l 0.043,0.269 1.187,0.369 c 10.982,3.432 20.542,4.613 28.458,4.656 v -7.367 c 0,-7.144 4.935,-13.14 11.57,-14.803 z"
           id="path19" />
        <path
           d="M 77.398,41.303 H 63.305 c -2.765,0 -5.398,0.546 -7.824,1.511 3.727,2.139 6.246,6.147 6.246,10.743 0,3.744 -1.678,7.102 -4.313,9.376 2.656,0.661 5.101,2.02 7.088,4.008 2.888,2.89 4.479,6.726 4.478,10.8 v 7.365 c 7.916,-0.043 17.477,-1.225 28.457,-4.656 l 1.187,-0.369 0.044,-0.269 V 62.571 C 98.664,50.847 89.124,41.303 77.398,41.303 Z"
           id="path21" />
      </g>
    </g>
  </g>
</svg>
