<?xml version="1.0" encoding="UTF-8"?>
<svg width="1024" height="1024" fill="none" stroke-linecap="square" stroke-miterlimit="10" version="1.1" viewBox="0 0 1024 1024" xmlns="http://www.w3.org/2000/svg" xmlns:cc="http://creativecommons.org/ns#" xmlns:dc="http://purl.org/dc/elements/1.1/" xmlns:rdf="http://www.w3.org/1999/02/22-rdf-syntax-ns#">
 <metadata>
  <rdf:RDF>
   <cc:Work rdf:about="">
    <dc:format>image/svg+xml</dc:format>
    <dc:type rdf:resource="http://purl.org/dc/dcmitype/StillImage"/>
    <dc:title/>
   </cc:Work>
  </rdf:RDF>
 </metadata>
 <clipPath>
  <path d="m0 0h960v960h-960z"/>
 </clipPath>
 <g>
  <g transform="matrix(1.0882 0 0 1.0757 -11.248 -9.5696)" fill="#000" stroke-width="10.723" aria-label="SEPE">
   <path d="m209.78 234.5q0 40.747-29.595 65.195-29.166 24.019-83.209 24.019-48.467 0-86.64-18.443v-60.477q21.875 9.4361 45.036 17.585 23.59 7.7204 46.751 7.7204 24.019 0 33.884-9.0072 10.294-9.4361 10.294-23.59 0-11.581-8.1493-19.73-7.7204-8.1493-21.017-15.012-13.296-7.2915-30.453-15.441-10.723-5.1469-23.161-12.01-12.438-7.2915-24.019-17.585-11.152-10.723-18.443-25.735-7.2915-15.012-7.2915-36.029 0-41.176 27.879-63.908 27.879-23.161 75.917-23.161 24.019 0 45.465 5.5759 21.875 5.5759 45.465 15.87l-21.017 50.612q-21.017-8.5782-37.744-13.296t-34.313-4.718q-18.443 0-28.308 8.5782-9.865 8.5782-9.865 22.303 0 16.299 14.583 25.735 14.583 9.4361 43.32 23.161 23.59 11.152 39.889 23.161 16.728 12.01 25.735 28.308 9.0072 16.299 9.0072 40.318z"/>
   <path d="m441.82 319.43h-176.28v-306.24h176.28v53.185h-111.52v67.339h103.8v53.185h-103.8v78.92h111.52z"/>
   <path d="m603.52 13.185q59.19 0 86.211 25.735 27.45 25.306 27.45 69.913 0 26.593-11.152 50.183-11.152 23.161-37.315 37.315-25.735 14.154-70.342 14.154h-27.879v108.94h-64.766v-306.24zm-3.4313 53.185h-29.595v90.929h21.446q27.45 0 43.32-10.723 16.299-11.152 16.299-35.6 0-44.607-51.469-44.607z"/>
   <path d="m951.37 319.43h-176.28v-306.24h176.28v53.185h-111.52v67.339h103.8v53.185h-103.8v78.92h111.52z"/>
  </g>
  <text fill="#000000" font-family="sans-serif" font-size="40px" letter-spacing="0px" word-spacing="0px" style="line-height:1.25;shape-inside:url(#rect886);white-space:pre" xml:space="preserve"/>
  <g transform="matrix(1.6289 0 0 .7186 -11.248 -9.5696)" fill="#000" aria-label="!">
   <path d="m327.51 1213h-16.09l-10.727-132.29q-5.3633-67.339-20.857-168.05-24.433-164.47-24.433-216.32 0-66.147 37.543-87.005 11.918-6.5552 27.412-6.5552 49.462 0 61.38 60.784 2.9796 16.09 2.9796 36.351 0 16.686-2.3837 45.29zm-7.1511 94.752q35.159 0 54.825 29.796 10.727 17.282 10.727 37.543 0 36.351-30.988 54.229-16.09 8.9388-35.755 8.9388-37.543 0-55.421-30.392-8.3429-14.898-8.3429-32.776 0-38.139 29.796-57.209 16.09-10.131 35.159-10.131z" stroke-width="30.511"/>
  </g>
 </g>
</svg>
