<?xml version="1.0" encoding="UTF-8" standalone="no"?>
<svg
   width="1024pt"
   height="1024pt"
   viewBox="0 0 1024 1024"
   version="1.1"
   id="svg264"
   sodipodi:docname="module-stic-advanced-security-groups.svg"
   inkscape:version="1.1.2 (0a00cf5339, 2022-02-04)"
   xmlns:inkscape="http://www.inkscape.org/namespaces/inkscape"
   xmlns:sodipodi="http://sodipodi.sourceforge.net/DTD/sodipodi-0.dtd"
   xmlns="http://www.w3.org/2000/svg"
   xmlns:svg="http://www.w3.org/2000/svg">
  <defs
     id="defs268" />
  <sodipodi:namedview
     id="namedview266"
     pagecolor="#ffffff"
     bordercolor="#666666"
     borderopacity="1.0"
     inkscape:pageshadow="2"
     inkscape:pageopacity="0.0"
     inkscape:pagecheckerboard="0"
     inkscape:document-units="pt"
     showgrid="false"
     inkscape:zoom="0.11791992"
     inkscape:cx="3527.8178"
     inkscape:cy="1458.617"
     inkscape:window-width="1498"
     inkscape:window-height="884"
     inkscape:window-x="238"
     inkscape:window-y="300"
     inkscape:window-maximized="0"
     inkscape:current-layer="surface1" />
  <g
     id="surface1">
    <path
       style="fill:#000000;fill-opacity:1;fill-rule:evenodd;stroke:none"
       d="M 512.51172,-0.511719 C 376.72656,-0.511719 246.48828,53.4375 150.47266,149.44922 54.460938,245.46484 0.511719,375.70312 0.511719,511.48828 c 0,135.78516 53.949219,266.02344 149.960941,362.03906 96.01562,96.01172 226.2539,149.96096 362.03906,149.96096 135.78515,0 266.02344,-53.94924 362.03906,-149.96096 96.01172,-96.01562 149.96092,-226.2539 149.96092,-362.03906 0,-135.78516 -53.9492,-266.02344 -149.96092,-362.03906 C 778.53516,53.4375 648.29687,-0.511719 512.51172,-0.511719 Z m 0,33.03125 c 127.03515,0 248.85547,50.457031 338.68359,140.285159 89.82813,89.82812 140.28516,211.64843 140.28516,338.68359 0,127.03516 -50.45703,248.85156 -140.28516,338.68359 C 761.36719,940 639.54687,990.45703 512.51172,990.45703 385.47656,990.45703 263.66016,940 173.82812,850.17187 84,760.33984 33.542969,638.52344 33.542969,511.48828 33.542969,384.45312 84,262.63281 173.82812,172.80469 263.66016,82.976562 385.47656,32.519531 512.51172,32.519531 Z"
       id="path261"
       sodipodi:nodetypes="scscscscsssscscscs" />
    <path
       d="m 254.76769,311.45116 c -47.6534,4.2644 -86.1011,22.4729 -120.9612,57.1299 -41.2906,41.0198 -62.4097,95.1714 -60.5821,155.0766 1.5569,48.8718 16.584,89.3501 46.9766,125.9702 6.3628,7.7843 21.2545,22.6759 28.7003,28.8357 36.8908,30.4603 80.4151,45.2166 128.8808,43.592 42.6444,-1.3538 77.7752,-14.0117 111.3492,-40.0722 9.6796,-7.5135 27.6173,-25.2481 35.4693,-35.1308 20.7807,-26.1281 34.9955,-56.5884 40.6814,-87.1841 l 1.2861,-6.5658 h 140.4557 140.5233 v 46.9088 c 0,46.435 0,46.8411 1.4215,49.9548 1.6923,3.6552 5.8213,8.3935 8.4612,9.815 1.4892,0.7446 5.4829,0.9476 19.6977,0.9476 20.3068,-0.068 20.2391,-0.068 24.9097,-5.6859 4.8059,-5.8213 4.7383,-4.6706 4.7383,-56.0469 v -45.8934 h 12.5225 12.5226 v 46.8411 c 0,53.2716 -0.3385,49.6841 5.8213,55.4377 5.8213,5.4151 6.0243,5.4151 33.4386,5.2121 27.2788,-0.2031 26.4666,-0.068 32.4909,-5.9567 5.5506,-5.4152 5.4152,-3.7229 5.4152,-55.8438 v -45.4874 l 4.2644,-0.4738 c 10.4242,-1.083 19.4946,-9.2735 23.556,-21.2545 2.0983,-6.0244 2.2337,-16.9224 0.3384,-22.4729 -3.5198,-10.4919 -12.0487,-19.2238 -21.3222,-21.9314 -3.3168,-0.9477 -24.9097,-1.083 -226.1506,-1.083 h -222.4276 l -1.1508,-7.3105 c -6.2274,-39.1245 -25.5189,-76.7599 -55.3023,-107.9647 -32.0171,-33.4387 -68.6371,-52.4594 -112.703,-58.3484 -9.3411,-1.2184 -34.3862,-1.8276 -43.3212,-1.0153 z"
       id="path1722"
       style="fill:#000000;stroke:none;stroke-width:0.0676895" />
  </g>
</svg>
