<?xml version="1.0" encoding="UTF-8" standalone="no"?>
<svg
   id="svg5"
   version="1.1"
   viewBox="0 0 1024 1024"
   height="1024pt"
   width="1024pt"
   xmlns="http://www.w3.org/2000/svg"
   xmlns:svg="http://www.w3.org/2000/svg"
   xmlns:rdf="http://www.w3.org/1999/02/22-rdf-syntax-ns#"
   xmlns:cc="http://creativecommons.org/ns#"
   xmlns:dc="http://purl.org/dc/elements/1.1/">
  <metadata
     id="metadata11">
    <rdf:RDF>
      <cc:Work
         rdf:about="">
        <dc:format>image/svg+xml</dc:format>
        <dc:type
           rdf:resource="http://purl.org/dc/dcmitype/StillImage" />
      </cc:Work>
    </rdf:RDF>
  </metadata>
  <defs
     id="defs9" />
  <path
     d="m 575.09445,319.93147 c 49.75356,0 91.85271,34.58756 91.85271,80.51528 0,45.92773 -42.09915,81.64929 -91.85271,81.64929 -49.75354,0 -90.57697,-37.42259 -90.57697,-81.64929 0,-44.22669 38.90983,-80.51528 90.57697,-80.51528 m 0,-316.3910096 c 247.49203,0 446.50625,178.0408296 446.50625,396.9062896 0,158.76252 -103.97219,294.27767 -255.14644,357.78266 V 1024.1566 H 319.94805 V 854.05393 h -63.7866 c -70.80313,0 -127.57321,-50.46379 -127.57321,-113.40179 V 570.54944 H 32.908345 c -26.790372,0 -42.0991538,-28.35044 -26.790372,-45.92772 L 128.58824,381.16846 C 140.7077,170.80811 334.61898,3.5404604 575.09445,3.5404604 M 766.45426,400.44675 c 0,-9.07215 0,-14.17522 -3.82719,-22.11336 l 56.77008,-37.42259 c 3.18933,-2.26803 5.74079,-10.20616 3.18933,-15.87623 L 771.5572,247.92135 c -3.18934,-5.1031 -12.11947,-7.93814 -17.86025,-5.1031 l -63.14874,23.81439 c -11.48159,-10.77319 -26.79037,-18.71129 -41.4613,-23.81439 l -10.20585,-58.40192 c -1.91359,-7.93813 -5.10293,-10.77317 -14.03305,-10.77317 h -101.4207 c -6.37866,0 -12.11946,2.83504 -12.11946,10.77317 l -8.93013,58.40192 c -14.6709,5.1031 -29.97969,13.0412 -42.09914,23.81439 l -65.70021,-23.81439 c -5.74078,-2.83504 -10.84372,0 -14.67091,5.1031 l -51.02929,77.11322 c -3.18933,7.9381 -3.18933,13.6082 3.18934,15.87623 l 53.58074,37.42259 c 0,7.93814 -1.9136,15.87627 -1.9136,22.11336 0,7.37111 1.9136,15.30925 1.9136,23.24737 l -53.58074,36.85559 c -6.37867,2.83504 -6.37867,7.93811 -3.18934,13.6082 l 51.02929,79.38126 c 3.82719,5.6701 8.93013,5.6701 14.67091,5.6701 l 63.14874,-24.38139 c 14.67092,10.77316 26.79037,16.44326 44.65061,21.54636 l 8.93013,61.23695 c 0,5.10307 5.7408,9.63916 12.11946,9.63916 h 101.4207 c 8.93012,0 12.11946,-4.53609 14.03305,-9.63916 l 10.20585,-61.23695 c 14.67093,-5.1031 29.97971,-10.7732 41.4613,-20.97934 l 63.14874,23.81437 c 5.74078,0 14.67091,0 17.86025,-5.6701 l 51.02928,-79.38126 c 2.55146,-5.67009 0,-10.77316 -3.18933,-13.6082 l -52.94289,-36.85559 z"
     id="path346"
     style="stroke-width:60.1395" />
</svg>
