<?xml version="1.0" encoding="UTF-8" standalone="no"?>
<svg
   xmlns:dc="http://purl.org/dc/elements/1.1/"
   xmlns:cc="http://creativecommons.org/ns#"
   xmlns:rdf="http://www.w3.org/1999/02/22-rdf-syntax-ns#"
   xmlns:svg="http://www.w3.org/2000/svg"
   xmlns="http://www.w3.org/2000/svg"
   xmlns:sodipodi="http://sodipodi.sourceforge.net/DTD/sodipodi-0.dtd"
   xmlns:inkscape="http://www.inkscape.org/namespaces/inkscape"
   id="svg5"
   version="1.1"
   viewBox="0 0 1024 1024"
   height="1024pt"
   width="1024pt"
   sodipodi:docname="module-stic-resources.svg"
   inkscape:version="1.0.1 (3bc2e813f5, 2020-09-07)">
  <sodipodi:namedview
     pagecolor="#ffffff"
     bordercolor="#666666"
     borderopacity="1"
     objecttolerance="10"
     gridtolerance="10"
     guidetolerance="10"
     inkscape:pageopacity="0"
     inkscape:pageshadow="2"
     inkscape:window-width="1874"
     inkscape:window-height="1020"
     id="namedview6"
     showgrid="false"
     inkscape:zoom="0.52368164"
     inkscape:cx="682.66667"
     inkscape:cy="682.66667"
     inkscape:window-x="46"
     inkscape:window-y="36"
     inkscape:window-maximized="1"
     inkscape:current-layer="svg5" />
  <metadata
     id="metadata11">
    <rdf:RDF>
      <cc:Work
         rdf:about="">
        <dc:format>image/svg+xml</dc:format>
        <dc:type
           rdf:resource="http://purl.org/dc/dcmitype/StillImage" />
        <dc:title></dc:title>
      </cc:Work>
    </rdf:RDF>
  </metadata>
  <defs
     id="defs9" />
  <path
     style="fill:#000000;stroke-width:1.98085"
     d="M 111.70165,1008.4768 C 88.355008,1004.9882 86.106801,1001.2599 58.850894,920.83246 21.531279,810.7088 1.4023847,747.78635 1.4023847,741.24965 c 0,-3.36232 2.3390705,-10.69277 5.1979521,-16.28997 4.9522302,-9.6956 9.4311582,-13.16611 94.7570932,-73.42273 49.2575,-34.78538 97.537,-68.63633 107.28783,-75.22437 19.91649,-13.45652 30.12526,-16.27905 44.13833,-12.20349 7.94808,2.31163 43.07129,26.26765 141.6854,96.63756 72.69753,51.87608 77.02513,55.23377 81.74203,63.42177 8.76356,15.21263 8.17047,17.66503 -35.67568,147.5265 -37.34977,110.62086 -40.66899,119.45559 -47.31584,125.94036 -3.93149,3.83562 -9.54534,8.01152 -12.47515,9.27962 -5.94494,2.5731 -252.68944,4.0055 -269.0427,1.5619 z m 623.88639,-1.2453 C 698.5005,1000.8545 658.04153,984.09941 628.99817,963.09004 538.30469,897.48405 505.00192,781.49909 547.85683,680.49597 580.26322,604.11875 650.41877,550.09494 736.12474,535.51893 c 26.45293,-4.49885 69.86246,-2.79336 95.53055,3.75325 78.79202,20.09585 139.62519,70.24465 168.60971,138.99575 24.5946,58.33852 25.9846,121.42998 3.9007,177.03038 -30.69373,77.2765 -98.59369,133.47833 -181.1579,149.94699 -22.80624,4.5491 -66.71253,5.5467 -87.41976,1.9862 z M 122.20789,532.28983 C 104.42611,525.71967 92.162863,508.26171 94.357321,492.64173 94.998178,488.08 105.9665,452.41032 118.7314,413.37577 131.49623,374.3412 141.1649,341.89033 140.21723,341.26278 139.26956,340.63518 110.32187,319.92151 75.88897,295.23235 37.352158,267.60064 11.740762,247.90738 9.270354,244.00762 -2.8871121,224.81595 5.0024271,198.6746 26.124921,188.16138 c 7.741648,-3.8532 12.456177,-4.13359 89.034899,-5.29474 l 80.8604,-1.22607 24.94315,-73.18252 c 19.63044,-57.595115 26.13477,-74.406797 30.53805,-78.930625 16.94254,-17.406787 42.05646,-17.622085 59.59514,-0.510943 5.35697,5.226355 9.83638,16.683166 31.13489,79.632168 l 24.87768,73.52753 81.36362,0.80781 c 88.80904,0.88172 87.28144,0.68562 98.68218,12.66693 12.22223,12.84455 15.10768,29.47674 7.82814,45.12167 -3.98357,8.56113 -11.30281,14.21914 -102.85762,79.512 -16.3701,11.67447 -29.58028,22.46772 -29.58028,24.1684 0,2.35332 25.12775,80.91262 44.23636,138.30022 8.95089,26.88164 -16.29124,55.67389 -44.70362,50.99069 -9.26099,-1.52652 -27.50623,-13.25307 -93.7885,-60.27969 -36.57025,-25.94618 -45.81457,-31.66957 -48.77433,-30.19714 -2.00858,0.99925 -29.98445,20.12072 -62.16867,42.49217 -32.18433,22.37147 -61.43431,42.13196 -64.99999,43.9122 -8.78364,4.38537 -22.20135,5.55108 -30.13853,2.61839 z m 451.74808,-60.89851 c -14.67934,-6.34718 -23.76786,-20.15318 -23.94668,-36.37656 -0.11234,-10.16768 2.23664,-15.40058 42.59155,-94.89305 C 616.0914,293.84912 662.04871,204.63069 694.7282,141.8585 757.12165,22.010541 757.23659,21.827308 773.29534,16.581674 c 18.78057,-6.134702 34.70067,-0.049 46.37055,17.72557 4.45275,6.781948 51.9339,97.686446 105.51386,202.009966 l 97.41785,189.67911 -0.8427,11.3673 c -1.0492,14.15122 -8.716,25.66756 -21.4566,32.22981 l -8.83855,4.55248 -205.74373,-0.0768 c -166.67654,-0.062 -206.88611,-0.57052 -211.76005,-2.67797 z"
     id="path935" />
</svg>
