<?xml version="1.0" encoding="UTF-8" standalone="no"?>
<svg
   xmlns:dc="http://purl.org/dc/elements/1.1/"
   xmlns:cc="http://creativecommons.org/ns#"
   xmlns:rdf="http://www.w3.org/1999/02/22-rdf-syntax-ns#"
   xmlns:svg="http://www.w3.org/2000/svg"
   xmlns="http://www.w3.org/2000/svg"
   xmlns:sodipodi="http://sodipodi.sourceforge.net/DTD/sodipodi-0.dtd"
   xmlns:inkscape="http://www.inkscape.org/namespaces/inkscape"
   width="1024mm"
   height="1024mm"
   viewBox="0 0 1024 1024"
   version="1.1"
   id="svg8"
   sodipodi:docname="module-stic-personal-environment.svg"
   inkscape:version="1.0.1 (3bc2e813f5, 2020-09-07)">
  <defs
     id="defs2" />
  <sodipodi:namedview
     id="base"
     pagecolor="#ffffff"
     bordercolor="#666666"
     borderopacity="1.0"
     inkscape:pageopacity="0.0"
     inkscape:pageshadow="2"
     inkscape:zoom="0.175"
     inkscape:cx="2139.0131"
     inkscape:cy="1873.2834"
     inkscape:document-units="mm"
     inkscape:current-layer="g8533"
     inkscape:document-rotation="0"
     showgrid="false"
     inkscape:window-width="1874"
     inkscape:window-height="1015"
     inkscape:window-x="46"
     inkscape:window-y="36"
     inkscape:window-maximized="1" />
  <metadata
     id="metadata5">
    <rdf:RDF>
      <cc:Work
         rdf:about="">
        <dc:format>image/svg+xml</dc:format>
        <dc:type
           rdf:resource="http://purl.org/dc/dcmitype/StillImage" />
        <dc:title></dc:title>
      </cc:Work>
    </rdf:RDF>
  </metadata>
  <g
     inkscape:label="Capa 1"
     inkscape:groupmode="layer"
     id="layer1">
    <g
       id="g8533">
      <path
         style="fill:#000000;stroke-width:1.56787"
         d="m 5.2942423,939.414 c 0.5127161,-45.07495 1.6915885,-88.3069 2.6197167,-96.07099 6.4704,-54.12081 23.212485,-70.20456 81.544441,-78.33772 36.56525,-5.09827 70.34987,-6.14234 197.47198,-6.10267 127.68155,0.0399 165.78585,1.2623 188.78202,6.05647 23.58329,4.91656 48.49844,21.13589 58.37358,38.00015 14.39092,24.57599 19.18755,66.01384 19.24503,166.25636 l 0.0299,52.1527 H 278.86151 4.3622221 Z M 568.54243,844.13248 c -1.72766,-14.59894 -6.03148,-28.96949 -13.0893,-43.7047 -13.61414,-28.42346 -40.7074,-48.52275 -75.19394,-55.78306 -21.47285,-4.52061 -49.94602,-5.83878 -145.1362,-6.71903 l -96.77697,-0.89494 0.0165,-4.09434 c 0.0149,-2.25189 0.43233,-6.60521 0.93966,-9.67406 l 0.92243,-5.57973 11.2064,1.41321 c 14.39751,1.81563 43.7349,0.45093 59.79091,-2.7813 48.95832,-9.85587 96.24824,-38.57734 123.09719,-74.76294 8.42187,-11.35053 20.63454,-34.27479 25.15018,-47.2089 l 2.05356,-5.88188 68.25185,0.0245 c 80.40748,0.029 149.66096,2.21085 170.85777,5.38283 18.13292,2.71345 29.37016,6.70128 42.11591,14.94592 13.37313,8.65042 21.48931,17.6223 27.57813,30.48547 12.20114,25.776 14.86666,49.1629 16.06065,140.91099 l 0.93368,71.75915 H 678.39493 569.46906 l -0.92737,-7.83731 z M 238.34602,695.89699 c -77.66351,-15.73883 -136.34966,-90.3346 -136.34966,-173.31344 0,-94.43211 71.66302,-171.76329 163.7763,-176.73012 60.82802,-3.27989 120.99618,27.12924 154.96746,78.32097 11.43544,17.2321 19.65386,35.77869 26.66782,60.18194 9.90163,34.44983 9.90447,44.37552 0.0225,79.00836 -10.72662,37.59205 -22.70021,60.94098 -40.6062,79.1826 -26.47351,26.96996 -64.20297,46.73834 -101.69081,53.28094 -16.8852,2.94692 -52.40452,2.98347 -66.78721,0.0687 z m 565.06404,-15.28648 c -0.33578,-1.07834 -1.47199,-6.90142 -2.52482,-12.94016 -6.10139,-34.99242 -20.38229,-58.67601 -45.43022,-75.34123 -30.7706,-20.47279 -48.21476,-22.74552 -184.85454,-24.0838 l -97.95239,-0.95936 0.32064,-9.20909 c 0.17635,-5.06499 0.53997,-9.42856 0.80808,-9.69684 0.26796,-0.26827 6.11846,0.23749 13.00083,1.1239 14.47056,1.8637 39.41805,0.67024 57.4164,-2.74675 65.7721,-12.48684 123.67831,-57.94211 145.57151,-114.27079 l 5.21773,-13.42423 76.11744,0.0325 c 109.26807,0.0466 159.36469,2.43698 180.73484,8.62407 12.29575,3.55987 29.55684,13.54578 37.94667,21.95297 24.40977,24.46008 30.54357,60.54216 30.59337,179.96247 l 0.022,52.93701 H 912.20957 c -85.18045,0 -108.31838,-0.41696 -108.79922,-1.96064 z M 479.3089,527.73414 c -4.1146,-0.62383 -4.31145,-1.05727 -4.34379,-9.56816 -0.10629,-27.92459 -20.28784,-83.17058 -40.3875,-110.55835 -22.58914,-30.78004 -51.70422,-54.04585 -84.82971,-67.7873 -10.41091,-4.3187 -13.73585,-6.39777 -13.35263,-8.34901 0.28084,-1.42904 1.35373,-7.53904 2.38425,-13.57779 9.54805,-55.95124 51.92293,-107.96749 105.42069,-129.40633 24.53521,-9.83235 33.67698,-11.50003 63.71075,-11.62246 25.37757,-0.10349 28.59773,0.21393 43.09913,4.24784 59.56996,16.57079 103.92551,57.98019 124.43175,116.16678 13.62432,38.65957 15.73702,58.4379 8.98713,84.13866 -13.43376,51.15088 -29.74771,81.41672 -54.67888,101.44128 -39.93736,32.07747 -79.26933,46.32277 -126.35432,45.76326 -10.87737,-0.12929 -21.7164,-0.52905 -24.08687,-0.88842 z m 235.47749,-169.65806 -5.48524,-0.9699 -1.00238,-11.7638 c -1.1919,-13.98856 -4.08586,-26.76395 -10.85057,-47.8988 -17.77066,-55.52136 -54.27513,-98.39765 -104.04151,-122.20177 -9.52649,-4.55667 -18.80044,-8.90968 -20.60879,-9.67335 -3.21222,-1.35655 -3.23857,-1.67736 -1.14743,-13.93656 11.41762,-66.934336 60.63191,-121.438926 126.19968,-139.765719 19.51793,-5.4554109 53.47874,-6.9058851 73.5043,-3.139386 56.98244,10.717524 103.6315,46.077648 128.38273,97.314285 12.70129,26.29226 22.08915,59.19308 22.18376,77.7452 0.13024,25.56057 -17.49731,78.07853 -34.74717,103.52138 -17.35854,25.60327 -58.52881,53.90492 -93.24185,64.09713 -24.05843,7.06392 -59.85843,10.08155 -79.14553,6.67129 z"
         id="path8549" />
    </g>
  </g>
</svg>
