<?xml version="1.0" encoding="UTF-8" standalone="no"?>
<svg
   xmlns:dc="http://purl.org/dc/elements/1.1/"
   xmlns:cc="http://creativecommons.org/ns#"
   xmlns:rdf="http://www.w3.org/1999/02/22-rdf-syntax-ns#"
   xmlns:svg="http://www.w3.org/2000/svg"
   xmlns="http://www.w3.org/2000/svg"
   width="1024mm"
   height="1024mm"
   viewBox="0 0 1024 1024"
   version="1.1"
   id="svg8">
  <defs
     id="defs2">
    <symbol
       id="SquaredBalloon"
       style="stroke-linejoin:miter;stroke-miterlimit:10">
      <title
         id="title955">Squared Balloon</title>
      <rect
         x="21.166666"
         y="17.197916"
         width="66.145836"
         height="37.041668"
         rx="4.4979167"
         style="stroke:none;stroke-width:0.264583"
         id="rect957" />
      <path
         d="m 33.3375,52.652083 6.614583,11.377084 7.9375,-11.377084"
         style="stroke:none;stroke-width:0.264583"
         id="path959" />
      <rect
         x="19.84375"
         y="15.875"
         width="66.145836"
         height="37.041668"
         rx="3.96875"
         style="fill:#eeeeee;stroke-width:0.926042"
         id="rect961" />
      <path
         d="m 31.75,51.59375 6.614583,11.377083 7.9375,-11.377083"
         style="fill:#eeeeee;stroke-width:0.926042"
         id="path963" />
      <rect
         x="21.166666"
         y="17.197916"
         width="62.177082"
         height="33.072918"
         rx="2.6458333"
         style="fill:#ffffff;stroke:none;stroke-width:0.264583"
         id="rect965" />
      <path
         d="M 31.220833,47.625 37.835417,59.002083 45.772917,47.625"
         style="fill:#ffffff;stroke:none;stroke-width:0.264583"
         id="path967" />
    </symbol>
  </defs>
  <metadata
     id="metadata5">
    <rdf:RDF>
      <cc:Work
         rdf:about="">
        <dc:format>image/svg+xml</dc:format>
        <dc:type
           rdf:resource="http://purl.org/dc/dcmitype/StillImage" />
        <dc:title></dc:title>
      </cc:Work>
    </rdf:RDF>
  </metadata>
  <g
     id="layer1">
    <g
       id="g8533">
      <path
         style="fill:#000000;stroke-width:2.02173"
         d="M 58.906025,1016.4007 C 36.448338,1008.2862 17.789592,989.86586 8.8683709,967.00233 L 4.2523639,955.17227 3.722799,595.39185 C 3.3734422,358.04304 3.8807962,231.76251 5.2137192,224.30081 11.375731,189.80604 37.289802,165.0963 72.616901,160.03015 c 7.925454,-1.13656 128.770319,-1.68045 296.454549,-1.33426 262.87102,0.5427 283.78444,0.8396 293.01223,4.15985 17.54659,6.31342 17.92899,4.67576 -8.09969,34.68948 -13.03434,15.02993 -28.65003,32.81099 -34.7015,39.51347 l -11.00271,12.18633 -8.87135,-4.89358 -8.87136,-4.89357 -223.58315,-0.63984 c -162.43339,-0.46485 -226.57268,0.004 -234.51388,1.71553 -21.36394,4.60353 -40.637585,22.96909 -46.975544,44.76224 -2.233384,7.67953 -2.709609,61.11621 -2.709609,304.04238 v 294.72529 l 4.275448,11.82527 c 5.569569,15.40466 19.440095,29.63261 34.616905,35.50881 11.07498,4.28802 11.93651,4.30145 241.9896,3.75582 l 230.87504,-0.54761 8.53603,-4.71655 c 12.44854,-6.87837 22.71547,-17.23371 28.29639,-28.53999 l 4.90311,-9.93316 0.9937,-116.65155 0.9937,-116.65155 11.09044,-11.88911 c 6.09977,-6.539 22.12611,-24.84597 35.61413,-40.68219 13.48801,-15.83621 26.18256,-30.64133 28.21009,-32.90028 3.59202,-4.00197 3.67246,0.87079 3.14031,190.24018 l -0.54614,194.34729 -6.16621,13.4657 c -7.52525,16.43347 -16.4857,27.30482 -29.6071,35.92095 -21.83783,14.3398 2.04147,13.3588 -320.82321,13.1789 -259.412935,-0.1446 -292.276685,-0.5161 -300.241095,-3.3937 z M 168.25281,696.54844 c -12.99114,-6.86853 -20.38216,-17.58092 -21.46658,-31.11321 -1.52975,-19.08952 5.12731,-32.62795 20.12443,-40.92693 8.0398,-4.44898 10.20653,-4.58685 81.77835,-5.20265 78.63383,-0.67657 86.38562,0.0465 97.91235,9.13297 18.18178,14.33261 19.25174,45.31953 2.13535,61.84172 -10.95198,10.57177 -13.79232,10.89557 -95.57367,10.89557 -75.06028,0 -76.28399,-0.0667 -84.91023,-4.62747 z M 416.4862,684.88091 c -3.818,-3.95102 -5.80935,-8.1097 -5.80935,-12.1321 0,-5.54418 44.42255,-168.92597 47.42312,-174.4176 1.18647,-2.17143 136.87746,121.80878 136.05527,124.31305 -0.93835,2.858 -159.23021,68.2484 -165.21029,68.2484 -4.69948,0 -8.35301,-1.76294 -12.45875,-6.01175 z m 110.16655,-59.70952 c 11.88284,-5.14056 21.60225,-10.15396 21.59869,-11.1409 -0.006,-1.78837 -76.34969,-73.56077 -77.25214,-72.62689 -0.26108,0.27018 -4.62009,15.16887 -9.68668,33.10821 -7.63956,27.04937 -8.76135,33.07081 -6.57188,35.27574 1.45208,1.46235 9.69214,9.14575 18.31124,17.07423 l 15.67107,14.41546 8.16228,-3.3797 c 4.48925,-1.85882 17.88458,-7.5856 29.76742,-12.72615 z m 16.78655,-85.01535 c -36.83452,-34.16969 -66.79467,-63.21628 -66.5781,-64.54799 0.36552,-2.24768 282.14514,-328.32521 288.26081,-333.57761 2.22084,-1.90735 16.03662,9.943 70.59634,60.55347 37.30934,34.60871 67.8241,63.54191 67.8106,64.296 -0.0407,2.28081 -288.60551,334.51553 -290.94539,334.97564 -1.19483,0.23495 -32.30976,-27.52983 -69.14426,-61.69951 z m 20.67114,-53.08026 c 5.55559,-2.75657 169.24397,-191.50425 170.19271,-196.24778 1.38148,-6.90733 -1.97111,-13.47229 -9.52016,-18.64207 -5.10604,-3.49677 -9.164,-4.87316 -11.80749,-4.00489 -4.81209,1.58048 -169.33397,190.54346 -171.95621,197.50169 -2.27523,6.03743 2.27596,13.89832 11.3682,19.63537 7.51241,4.74021 6.12974,4.5329 11.72295,1.75768 z M 781.78662,238.78872 c 10.28471,-11.75975 11.99477,-17.18624 7.60213,-24.12383 -3.21827,-5.08282 -14.17949,-13.23189 -17.81888,-13.24736 -3.97261,-0.0165 -25.02144,24.12504 -25.02144,28.69832 0,2.7214 3.32507,8.12522 7.93494,12.89572 6.7098,6.94359 8.78107,7.99369 13.41499,6.80133 3.01403,-0.77555 9.26375,-5.73643 13.88826,-11.02418 z M 177.75118,563.484 c -19.85278,-3.99467 -32.5209,-21.74192 -31.00456,-43.43549 0.94531,-13.52408 4.19081,-19.40516 16.31299,-29.56023 l 7.50722,-6.28899 120.20789,-0.57593 120.20785,-0.5759 -1.3541,4.41503 c -0.74473,2.42827 -5.65951,20.00682 -10.9217,39.06347 -5.2622,19.05661 -10.14042,35.60748 -10.84051,36.77972 -1.46436,2.45195 -197.98661,2.61874 -210.11508,0.1783 z M 167.11301,422.53487 c -16.23669,-8.43434 -23.55453,-25.11438 -19.88896,-45.33427 2.13098,-11.75495 15.84033,-24.68795 29.19195,-27.53884 7.44632,-1.58998 61.65611,-2.11675 179.12938,-1.74069 l 168.4517,0.53927 -34.92906,39.59053 -34.92903,39.59053 H 315.54119 176.9434 Z M 850.2312,188.20532 c -37.35021,-34.71506 -67.90947,-63.96144 -67.90947,-64.99197 0,-3.35574 30.34782,-37.174315 32.80092,-36.55222 1.31127,0.332531 32.51254,28.65202 69.33618,62.93219 l 66.95205,62.32758 -6.02638,7.59852 c -3.31454,4.1792 -10.80039,13.04483 -16.63506,19.70138 l -10.60878,12.10281 z m 46.28534,-53.485 c -37.06621,-34.41693 -67.63297,-63.338571 -67.92613,-64.270329 -0.76853,-2.442475 44.33343,-54.222341 52.42183,-60.183576 8.60057,-6.3386692 26.38131,-8.1271363 36.65133,-3.6865289 9.89717,4.2793749 94.32813,82.8632139 98.27393,91.4681579 4.7699,10.401966 5.6726,20.049066 2.8519,30.475016 -1.9964,7.37897 -8.0234,15.74036 -28.16963,39.08046 -14.09642,16.33116 -25.87298,29.69302 -26.17001,29.69302 -0.29712,0 -30.86707,-28.1593 -67.93322,-62.57622 z m 77.62247,-4.39135 c 6.67353,-7.86614 10.71218,-14.25653 9.6829,-15.32129 -0.97124,-1.00465 -19.65257,-18.480857 -41.51397,-38.836014 L 902.55978,39.162303 891.40302,51.902439 c -6.13621,7.007083 -11.37971,13.550999 -11.65224,14.542045 -0.47942,1.74349 79.17381,77.102496 81.69163,77.287456 0.68628,0.0505 6.39975,-5.98091 12.6966,-13.40297 z"
         id="path8669" />
    </g>
  </g>
</svg>
