<?xml version="1.0" encoding="UTF-8" standalone="no"?>
<svg
   xmlns:dc="http://purl.org/dc/elements/1.1/"
   xmlns:cc="http://creativecommons.org/ns#"
   xmlns:rdf="http://www.w3.org/1999/02/22-rdf-syntax-ns#"
   xmlns:svg="http://www.w3.org/2000/svg"
   xmlns="http://www.w3.org/2000/svg"
   width="1024pt"
   height="1024pt"
   viewBox="0 0 1024 1024"
   version="1.1"
   id="svg5">
  <metadata
     id="metadata11">
    <rdf:RDF>
      <cc:Work
         rdf:about="">
        <dc:format>image/svg+xml</dc:format>
        <dc:type
           rdf:resource="http://purl.org/dc/dcmitype/StillImage" />
        <dc:title></dc:title>
      </cc:Work>
    </rdf:RDF>
  </metadata>
  <defs
     id="defs9" />
  <g
     id="g4652"
     transform="matrix(0.84671272,0,0,0.84671272,185.13882,49.876405)">
    <path
       style="fill:#000000;stroke-width:0.88577855"
       d="m 224.12071,382.52021 c -33.29541,-4.1817 -65.5793,-17.427 -91.23521,-37.4315 -7.23,-5.6375 -20.6258,-18.8498 -26.9112,-26.5426 C 65.606804,269.13944 52.518704,194.60647 73.247105,132.17454 98.891105,54.937451 174.1829,0.866611 256.08901,0.866611 c 49.6626,0 94.8417,17.42461 143.3421,55.28399 17.5594,13.70685 33.3989,28.085 60.8256,55.213739 14.9008,14.73886 27.466,26.79793 27.9228,26.79793 0.4568,0 4.01,-3.22938 7.896,-7.17641 14.6658,-14.89609 47.009,-45.438499 59.3122,-56.009819 78.5439,-67.48744 150.554,-88.53382 227.6593,-66.53794 64.9529,18.52916 106.7167,62.75256 123.8719,131.167139 12.0068,47.88296 7.7202,93.68593 -12.6727,135.40986 -27.9257,57.13591 -81.6677,96.46391 -145.4755,106.45791 -15.3643,2.4064 -44.4416,2.1661 -59.4684,-0.4916 -59.0869,-10.4501 -102.9802,-38.2934 -178.0593,-112.95 -12.0601,-11.99228 -22.3637,-21.80414 -22.8968,-21.80414 -0.5332,0 -12.3751,11.26046 -26.3155,25.02324 -32.6701,32.2538 -53.0087,49.9819 -75.3696,65.6956 -36.4985,25.6485 -72.09,40.0331 -111.8749,45.2153 -11.419,1.4874 -40.0642,1.6902 -50.6655,0.3588 z m 514.1623,-78.3765 c 22.5183,-4.069 41.8282,-13.9809 58.3578,-29.95551 12.9655,-12.53017 22.7886,-27.73133 28.8104,-44.58375 8.3526,-23.37493 8.3918,-51.54212 0.1071,-76.88783 -12.7889,-39.12577 -42.9497,-65.676979 -82.3714,-72.513369 -9.3073,-1.61405 -30.3049,-1.84161 -39.6903,-0.43014 -35.3057,5.30966 -69.9112,24.128929 -109.9916,59.816009 -11.3537,10.10916 -42.6538,40.78553 -48.4976,47.53116 l -4.4941,5.18758 23.3883,22.80679 c 28.4683,27.76044 39.4929,37.90084 52.9358,48.69023 37.3112,29.94623 71.5244,43.65313 105.0909,42.10263 4.8717,-0.225 12.2314,-1.0187 16.3547,-1.7638 z m -455.7009,-1.1633 c 28.6536,-6.6347 55.718,-21.03791 86.0656,-45.80261 14.3167,-11.68293 39.7695,-35.5897 55.6189,-52.24061 l 12.1688,-12.78407 -22.0084,-21.51 c -30.2802,-29.59453 -39.6521,-38.265 -53.0106,-49.04325 -37.4692,-30.231769 -68.16,-43.003599 -103.1932,-42.943339 -30.634,0.0527 -58.1821,11.46544 -79.78911,33.055359 -15.46359,15.45135 -26.0888,35.0964 -31.0738,57.45263 -2.8664,12.85475 -2.8459,33.29884 0.047,46.94628 9.04291,42.66078 33.4275,71.62311 70.86221,84.16491 13.3618,4.4765 19.8393,5.289 39.068,4.9 13.4115,-0.2713 19.0547,-0.7621 25.2447,-2.1953 z"
       id="path4837" />
    <g
       id="surface1"
       transform="matrix(0.70445921,0,0,0.70445921,-202.68803,423.3919)">
      <path
         id="path2"
         d="m 512.02344,12 c 0,0 -250.03516,249.98828 -500.02344,249.98828 0,0 0,633.50391 500.02344,750.01172 C 1012,895.49219 1012,261.98828 1012,261.98828 762.01172,261.98828 512.02344,12 512.02344,12"
         style="fill:#000000;fill-opacity:1;fill-rule:evenodd;stroke:none" />
    </g>
  </g>
</svg>
