<?xml version="1.0" encoding="UTF-8" standalone="no"?>
<svg
   id="svg5"
   version="1.1"
   viewBox="0 0 1024 1024"
   height="1024pt"
   width="1024pt"
   xmlns="http://www.w3.org/2000/svg"
   xmlns:svg="http://www.w3.org/2000/svg"
   xmlns:rdf="http://www.w3.org/1999/02/22-rdf-syntax-ns#"
   xmlns:cc="http://creativecommons.org/ns#"
   xmlns:dc="http://purl.org/dc/elements/1.1/">
  <metadata
     id="metadata11">
    <rdf:RDF>
      <cc:Work
         rdf:about="">
        <dc:format>image/svg+xml</dc:format>
        <dc:type
           rdf:resource="http://purl.org/dc/dcmitype/StillImage" />
      </cc:Work>
    </rdf:RDF>
  </metadata>
  <defs
     id="defs9" />
  <g
     transform="matrix(0.27188412,0,0,-0.22971942,-166.93179,1103.9631)"
     fill="#000000"
     stroke="none"
     id="g999">
    <path
       d="M 1161,4784 C 992,4739 860,4604 815,4433 792,4347 792,773 815,687 860,514 993,380 1165,335 c 52,-13 228,-15 1395,-15 1470,0 1390,-3 1511,61 70,38 157,126 193,197 59,116 56,43 56,1554 v 1388 h -428 c -463,0 -488,2 -594,56 -71,36 -159,123 -197,193 -59,111 -61,133 -61,603 v 428 l -912,-1 c -764,0 -922,-3 -967,-15 z m 1034,-799 c 256,-67 415,-329 350,-578 -45,-173 -178,-307 -350,-352 -251,-65 -513,94 -580,350 -89,343 237,669 580,580 z m 1411,-971 c 53,-39 69,-71 69,-134 0,-63 -16,-95 -69,-134 -25,-19 -44,-21 -224,-24 -223,-4 -256,2 -301,53 -52,59 -54,147 -4,206 47,55 67,59 295,56 191,-2 209,-4 234,-23 z M 2353,2865 c 179,-46 320,-193 357,-369 7,-34 10,-135 8,-265 -3,-230 -5,-235 -72,-285 -27,-21 -38,-21 -566,-21 -528,0 -539,0 -566,21 -67,50 -69,55 -72,285 -2,130 1,231 8,265 36,174 177,321 353,369 76,20 472,20 550,0 z m 1253,-651 c 53,-39 69,-71 69,-134 0,-63 -16,-95 -69,-134 -25,-19 -44,-21 -224,-24 -223,-4 -256,2 -301,53 -52,59 -54,147 -4,206 47,55 67,59 295,56 191,-2 209,-4 234,-23 z m 0,-800 c 53,-39 69,-71 69,-134 0,-63 -16,-95 -69,-134 -27,-21 -35,-21 -1024,-24 -681,-2 -1009,0 -1034,8 -101,29 -140,168 -71,251 52,61 -4,59 1095,56 999,-2 1007,-2 1034,-23 z"
       id="path995" />
    <path
       d="m 3360,4337 c 0,-288 3,-375 14,-400 17,-42 68,-85 109,-92 18,-3 191,-4 385,-3 l 352,3 -430,430 -430,430 z"
       id="path997" />
  </g>
</svg>
