<?xml version="1.0" encoding="UTF-8" standalone="no"?>
<svg
   viewBox="0 0 1024 1024"
   version="1.1"
   id="svg51"
   sodipodi:docname="account-clock.svg"
   width="1024"
   height="1024"
   inkscape:version="1.1.2 (0a00cf5339, 2022-02-04)"
   xmlns:inkscape="http://www.inkscape.org/namespaces/inkscape"
   xmlns:sodipodi="http://sodipodi.sourceforge.net/DTD/sodipodi-0.dtd"
   xmlns="http://www.w3.org/2000/svg"
   xmlns:svg="http://www.w3.org/2000/svg">
  <defs
     id="defs55" />
  <sodipodi:namedview
     id="namedview53"
     pagecolor="#ffffff"
     bordercolor="#666666"
     borderopacity="1.0"
     inkscape:pageshadow="2"
     inkscape:pageopacity="0.0"
     inkscape:pagecheckerboard="0"
     showgrid="false"
     scale-x="1"
     inkscape:zoom="0.28808594"
     inkscape:cx="-81.572881"
     inkscape:cy="46.861017"
     inkscape:window-width="1850"
     inkscape:window-height="1136"
     inkscape:window-x="1990"
     inkscape:window-y="27"
     inkscape:window-maximized="1"
     inkscape:current-layer="svg51" />
  <path
     d="m 428.44077,531.22845 c 71.2336,-156.71393 255.99576,-225.72149 412.70969,-154.48788 156.71394,71.2336 225.72144,255.99577 154.48788,412.7097 -50.30873,111.3025 -161.16603,182.53611 -283.59878,182.53611 -120.20671,0 -230.17359,-69.45277 -281.81795,-178.08401 H -0.2964887 V 704.86036 C 2.3747715,654.10642 37.101153,612.70188 103.88266,579.31113 c 66.7815,-33.39075 150.48099,-50.75394 251.98887,-52.53478 25.37697,0 49.41832,2.22605 72.56924,4.4521 v 0 M 355.87153,81.566318 c 49.86353,1.33563 91.71327,18.698822 125.10402,52.089572 33.39075,33.39075 49.86352,75.2405 49.86352,125.99444 0,50.75394 -16.47277,92.60369 -49.86352,125.99444 -33.39075,33.39075 -75.24049,49.86352 -125.10402,49.86352 -49.86352,0 -91.71326,-16.47277 -125.10401,-49.86352 -33.39076,-33.39075 -49.86353,-75.2405 -49.86353,-125.99444 0,-50.75394 16.47277,-92.60369 49.86353,-125.99444 33.39075,-33.39075 75.24049,-50.753942 125.10401,-52.089572 M 712.03956,882.94437 A 222.60501,222.60501 0 0 0 934.64457,660.33936 222.60501,222.60501 0 0 0 712.03956,437.73434 222.60501,222.60501 0 0 0 489.43454,660.33936 222.60501,222.60501 0 0 0 712.03956,882.94437 M 667.51855,526.77635 h 66.78151 v 125.54923 l 108.63124,62.77461 -33.39075,57.87731 -142.022,-81.91865 z"
     id="path49"
     style="stroke-width:44.521" />
</svg>
