<?xml version="1.0" encoding="UTF-8" standalone="no"?>
<svg
   xmlns:dc="http://purl.org/dc/elements/1.1/"
   xmlns:cc="http://creativecommons.org/ns#"
   xmlns:rdf="http://www.w3.org/1999/02/22-rdf-syntax-ns#"
   xmlns:svg="http://www.w3.org/2000/svg"
   xmlns="http://www.w3.org/2000/svg"
   id="svg5"
   version="1.1"
   viewBox="0 0 1024 1024"
   height="1024pt"
   width="1024pt">
  <metadata
     id="metadata11">
    <rdf:RDF>
      <cc:Work
         rdf:about="">
        <dc:format>image/svg+xml</dc:format>
        <dc:type
           rdf:resource="http://purl.org/dc/dcmitype/StillImage" />
        <dc:title></dc:title>
      </cc:Work>
    </rdf:RDF>
  </metadata>
  <defs
     id="defs9" />
  <path
     id="path866"
     d="M 103.7147,924.21824 C 73.225904,916.78578 48.620933,891.42559 42.177891,860.7924 40.709619,853.81182 40.129731,753.88269 40.145373,510.57955 40.168208,144.82969 39.730352,162.33602 49.3666,142.43022 c 9.608161,-19.8479 33.888538,-38.27246 56.74289,-43.057991 13.45866,-2.818146 168.0847,-2.793565 181.37621,0.02889 31.78877,6.750161 57.9932,33.698381 64.10468,65.924001 1.03476,5.45629 1.87862,23.70062 1.87508,40.54297 v 30.62245 l -31.78935,0.21895 c -27.33965,0.18832 -34.813,0.90901 -53.39052,5.14862 -11.88067,2.71132 -26.31849,6.5527 -32.08425,8.53637 -5.76634,1.98369 -10.76862,3.60671 -11.11685,3.60671 -0.34812,0 -0.63298,-5.42449 -0.63298,-12.0544 0,-15.58809 -4.65645,-25.19255 -14.69722,-30.31498 -4.0011,-2.0412 -10.00343,-3.69761 -13.33855,-3.68093 -8.42475,0.0421 -19.76915,7.02991 -23.84355,14.68672 -3.28512,6.17378 -3.41744,17.38355 -3.41744,289.41516 0,272.0316 0.13232,283.24139 3.41744,289.41516 4.0744,7.65681 15.4188,14.64459 23.84355,14.68673 3.33512,0.0166 9.33745,-1.63976 13.33855,-3.68094 10.04077,-5.12242 14.69722,-14.7269 14.69722,-30.31498 0,-6.62992 0.28486,-12.0544 0.63298,-12.0544 0.34823,0 5.35051,1.62302 11.11616,3.60669 5.76565,1.98369 20.20359,5.82505 32.08414,8.53637 18.57752,4.23962 26.05087,4.9603 53.39052,5.14862 l 31.78935,0.21896 v 32.32999 c 0.0114,35.12215 -1.79892,46.15265 -10.30257,62.93374 -9.9114,19.55913 -33.19778,37.0523 -55.67719,41.82569 -13.99185,2.97109 -171.29606,2.55502 -183.771,-0.48608 z M 883.84477,793.65291 c -4.23694,-2.45575 -8.35306,-6.96041 -10.59855,-11.59898 -3.60493,-7.44679 -3.67131,-11.66135 -3.67131,-233.13673 0,-221.78899 0.0615,-225.67992 3.68662,-233.16836 2.34957,-4.85354 6.28444,-9.0756 10.8495,-11.64132 6.67392,-3.75094 9.58236,-4.02577 42.60388,-4.02577 33.02151,0 35.92996,0.27483 42.60387,4.02577 4.56506,2.56572 8.49995,6.78778 10.8495,11.64132 3.62509,7.48844 3.68662,11.37937 3.68662,233.16836 0,221.78899 -0.0615,225.67992 -3.68662,233.16836 -2.34955,4.85354 -6.28444,9.0756 -10.8495,11.64132 -6.68741,3.75851 -9.53228,4.02296 -42.85483,3.98342 -33.27451,-0.0394 -36.16114,-0.31428 -42.61918,-4.05739 z M 628.51938,740.48474 c -19.5613,-2.54139 -42.41107,-8.98547 -73.21441,-20.64793 -16.22039,-6.1412 -30.23985,-11.81898 -31.15434,-12.6173 -0.92088,-0.80389 3.02307,-6.51273 8.83972,-12.79539 14.21259,-15.35131 30.80148,-40.42793 42.05233,-63.56858 l 9.31092,-19.15058 11.76156,9.76257 c 25.20449,20.92076 61.30531,35.20311 94.47587,37.37689 15.92733,1.04379 18.60412,0.75101 25.55517,-2.79515 8.67747,-4.42692 15.1868,-14.79387 15.1868,-24.18692 0,-8.97845 -6.5252,-19.77597 -14.3098,-23.67904 -4.29643,-2.15416 -12.79982,-3.85231 -22.60458,-4.51415 -37.94508,-2.56141 -71.57479,-24.50617 -91.23414,-59.53399 -5.92836,-10.56283 -10.66893,-16.70679 -14.51707,-18.81471 -5.10005,-2.7937 -15.91446,-3.22907 -100.6402,-4.05164 -94.12822,-0.91387 -94.99148,-0.95656 -102.70859,-5.08019 -12.20584,-6.5222 -20.20678,-14.56587 -25.78244,-25.91992 -6.88992,-14.03013 -7.32275,-35.73263 -0.95232,-47.74654 6.39897,-12.06773 13.93568,-19.56283 25.62933,-25.4879 l 10.73118,-5.43737 93.65234,-0.50984 93.65233,-0.50983 -1.27297,-4.09823 c -2.7094,-8.72266 -15.72206,-32.71454 -26.76931,-49.35548 -20.81401,-31.35297 -61.47811,-68.67504 -94.49927,-86.73279 l -9.17636,-5.0181 7.22787,-1.89722 c 3.97541,-1.04347 31.28207,-7.54095 60.68146,-14.43885 52.94881,-12.42325 53.6972,-12.54075 79.2587,-12.44601 45.7217,0.16939 56.05739,4.30682 152.98771,61.24061 l 62.66967,36.81017 0.46887,203.90727 0.46884,203.90729 -87.10045,-0.23373 c -47.90526,-0.12848 -92.30873,-0.91038 -98.67442,-1.73742 z m -325.73625,-8.45392 c -22.91063,-2.72033 -47.63811,-9.34045 -65.89538,-17.64168 l -12.44172,-5.65706 V 512.03155 315.331 l 11.02037,-4.94564 c 56.56444,-25.38465 121.68172,-25.63898 178.59747,-0.69756 19.34888,8.47899 43.80474,24.08005 58.29599,37.1887 l 9.21609,8.33683 -42.56014,0.0826 c -36.1663,0.0702 -44.69894,0.62961 -56.79711,3.72377 -20.70446,5.29533 -34.95024,13.51794 -51.06538,29.47486 -28.51211,28.23224 -39.11061,65.81343 -29.33712,104.02729 5.32528,20.82183 13.50901,34.96178 29.47481,50.9277 15.96592,15.96589 30.10585,24.14951 50.92769,29.47485 12.96201,3.31513 20.56311,3.6412 84.87936,3.6412 h 70.64248 l -3.75939,9.67693 c -22.6499,58.30249 -62.14067,101.26044 -116.50943,126.7385 -32.35564,15.16234 -80.32498,23.13006 -114.68859,19.04981 z"
     style="fill:#000000;stroke-width:1.84322548" />
</svg>
