<?xml version="1.0" encoding="UTF-8" standalone="no"?>
<svg
   xmlns:dc="http://purl.org/dc/elements/1.1/"
   xmlns:cc="http://creativecommons.org/ns#"
   xmlns:rdf="http://www.w3.org/1999/02/22-rdf-syntax-ns#"
   xmlns:svg="http://www.w3.org/2000/svg"
   xmlns="http://www.w3.org/2000/svg"
   width="1024mm"
   height="1024mm"
   viewBox="0 0 1024 1024"
   version="1.1"
   id="svg8">
  <defs
     id="defs2">
    <symbol
       id="SquaredBalloon"
       style="stroke-linejoin:miter;stroke-miterlimit:10">
      <title
         id="title955">Squared Balloon</title>
      <rect
         x="21.166666"
         y="17.197916"
         width="66.145836"
         height="37.041668"
         rx="4.4979167"
         style="stroke:none;stroke-width:0.264583"
         id="rect957" />
      <path
         d="m 33.3375,52.652083 6.614583,11.377084 7.9375,-11.377084"
         style="stroke:none;stroke-width:0.264583"
         id="path959" />
      <rect
         x="19.84375"
         y="15.875"
         width="66.145836"
         height="37.041668"
         rx="3.96875"
         style="fill:#eeeeee;stroke-width:0.926042"
         id="rect961" />
      <path
         d="m 31.75,51.59375 6.614583,11.377083 7.9375,-11.377083"
         style="fill:#eeeeee;stroke-width:0.926042"
         id="path963" />
      <rect
         x="21.166666"
         y="17.197916"
         width="62.177082"
         height="33.072918"
         rx="2.6458333"
         style="fill:#ffffff;stroke:none;stroke-width:0.264583"
         id="rect965" />
      <path
         d="M 31.220833,47.625 37.835417,59.002083 45.772917,47.625"
         style="fill:#ffffff;stroke:none;stroke-width:0.264583"
         id="path967" />
    </symbol>
  </defs>
  <metadata
     id="metadata5">
    <rdf:RDF>
      <cc:Work
         rdf:about="">
        <dc:format>image/svg+xml</dc:format>
        <dc:type
           rdf:resource="http://purl.org/dc/dcmitype/StillImage" />
        <dc:title></dc:title>
      </cc:Work>
    </rdf:RDF>
  </metadata>
  <g
     id="layer1">
    <g
       id="g8533">
      <path
         style="fill:#000000;stroke-width:1.5706"
         d="m 896.61811,1015.1152 c -7.98943,-2.496 -15.37373,-6.8916 -20.67447,-12.3068 -6.52889,-6.66981 -73.08501,-80.30295 -103.37706,-114.36945 -32.07762,-36.07445 -33.62467,-38.18105 -33.58247,-45.72858 0.0443,-7.91904 1.33194,-9.44626 22.48995,-26.67393 18.26685,-14.87358 27.43064,-23.8031 43.1797,-42.0758 5.57351,-6.46664 11.23012,-12.15845 12.57024,-12.64846 1.34012,-0.49002 5.60751,-0.89094 9.48308,-0.89094 8.1971,0 8.68084,0.35839 98.07865,72.66242 81.67457,66.05769 81.84047,66.23496 81.95697,87.55138 0.054,10.03231 -0.6286,13.52119 -3.7543,19.16427 -5.79418,10.46113 -66.5753,67.99319 -76.05359,71.98819 -8.35095,3.5199 -24.15053,5.2542 -30.3167,3.3277 z M 75.406192,955.75333 C 45.656427,948.89424 23.434341,929.4387 12.076593,900.30787 8.1157415,890.1489 8.0251496,888.90988 6.7811283,827.87968 5.2391184,752.22988 1.5129764,152.40288 2.2858373,104.23468 L 2.8393163,69.738893 9.4207234,56.707151 C 17.650005,40.412463 28.073369,28.186736 41.547844,19.024735 60.322606,6.2588043 61.760961,5.996882 121.09946,4.5389194 c 28.76053,-0.706654 170.6727,-2.1242977 315.36036,-3.1503182 269.2098,-1.90905277 302.39184,-1.5274808 318.1903,3.6589875 10.11753,3.321479 29.02709,17.5041713 36.86569,27.6502763 3.85423,4.988857 9.88677,14.84493 13.40561,21.902383 l 6.39789,12.831725 1.60509,139.136607 c 1.94555,168.64817 2.09552,286.63957 0.36564,287.6583 -0.70422,0.41472 -4.42708,-4.33204 -8.273,-10.54835 -15.66521,-25.32034 -26.42336,-36.81151 -70.34379,-75.13692 l -8.81072,-7.68831 -2.12738,-129.61717 -2.12737,-129.61714 -4.9116,-9.27123 c -6.64903,-12.55087 -18.56005,-24.53215 -31.86886,-32.05687 l -11.04274,-6.243489 -250.19662,1.216496 c -137.60814,0.669084 -257.85493,1.854295 -267.21508,2.633828 -12.94883,1.078392 -18.91256,2.339585 -24.93922,5.274065 -16.26325,7.91885 -28.06169,20.62746 -35.629128,38.37769 l -4.027179,9.44616 0.208964,72.05787 c 0.468287,161.47511 3.582961,516.29253 4.868196,554.57451 1.373737,40.91792 1.381596,40.98296 6.116587,50.62448 6.99569,14.24482 20.6298,27.49372 35.50549,34.50228 l 12.21122,5.75325 47.55386,0.56303 c 26.15462,0.30963 143.85139,-0.26949 261.54838,-1.28695 l 213.99453,-1.84977 10.14126,-5.34944 c 8.66276,-4.5695 10.52179,-5.05246 12.75123,-3.31253 4.33808,3.38545 66.53834,72.13168 70.87371,78.33241 3.78793,5.41779 3.87072,5.94379 1.35273,8.59497 -6.31358,6.64758 -16.58112,7.95538 -74.20218,9.45102 -71.84331,1.86471 -388.95473,4.60581 -512.46058,4.42969 -78.43276,-0.11193 -99.1872,-0.56397 -106.834558,-2.32713 z M 569.20079,822.3598 c -81.6371,-7.85566 -149.81505,-51.93009 -185.78821,-120.10494 -8.59698,-16.29267 -16.86211,-39.91005 -20.42109,-58.35273 -3.71662,-19.25961 -3.74865,-56.78116 -0.065,-76.08748 17.19916,-90.14105 92.3532,-161.09228 186.47828,-176.04992 19.75907,-3.13995 56.9355,-3.21692 75.32749,-0.15597 46.08619,7.6701 86.06034,26.87715 119.40231,57.37121 20.85704,19.07554 34.49619,36.52351 46.30718,59.23873 16.91085,32.52337 22.38804,53.31371 23.64692,89.75879 0.97834,28.32299 -1.10258,45.62779 -8.38012,69.6884 -4.87767,16.12631 -18.41727,43.80364 -28.23004,57.7072 -35.19461,49.8667 -89.83011,83.97139 -150.74245,94.09677 -14.46492,2.40448 -46.07842,3.99239 -57.53529,2.88994 z m 35.39759,-52.90612 c 79.86022,-9.32534 140.25655,-70.21371 145.06717,-146.24902 3.52772,-55.75777 -24.79227,-108.73881 -74.87393,-140.0742 -17.19159,-10.75655 -35.24055,-17.7859 -56.5169,-22.01109 -12.6967,-2.52137 -19.23637,-2.89763 -38.61556,-2.22168 -13.68931,0.47749 -27.31957,1.83646 -32.98412,3.2886 -54.97237,14.09243 -99.10737,53.12126 -116.52491,103.04366 -11.96726,34.30074 -10.25791,75.90412 4.49319,109.35802 18.72376,42.46345 59.2976,76.83882 105.8747,89.70016 23.57045,6.50851 40.73225,7.89194 64.08036,5.16555 z M 474.27088,646.21491 c -0.88494,-0.28129 -3.61835,-0.93423 -6.07424,-1.45101 -5.86091,-1.23327 -17.1762,-11.05906 -19.91543,-17.29384 -2.92989,-6.66875 -2.74289,-27.02387 0.38132,-41.50883 5.14491,-23.8537 17.13554,-45.14905 35.86424,-63.69482 27.33486,-27.06787 59.97816,-40.87777 96.62525,-40.87777 15.35201,0 17.6377,0.36892 22.73526,3.66953 17.46595,11.30904 20.93335,33.36801 7.53128,47.91268 -7.07163,7.67453 -14.55164,10.72676 -30.95764,12.6323 -23.57523,2.73823 -43.29453,14.239 -55.50646,32.37272 -6.18175,9.17937 -11.26014,23.91869 -11.27252,32.71692 -0.0226,16.10389 -9.96826,29.82773 -24.62082,33.97398 -7.8953,2.23413 -11.45864,2.60714 -14.79024,1.54814 z M 123.51293,791.29794 c -10.91268,-6.42299 -11.2137,-7.30972 -11.77078,-34.67421 -0.57836,-28.40988 0.7874,-33.93518 9.66273,-39.09129 5.21473,-3.02948 7.77985,-3.09355 122.78165,-3.06704 l 117.45565,0.0272 7.67694,12.61564 c 11.70223,19.23047 22.63546,32.47529 41.73673,50.56102 l 17.40676,16.48131 -150.06136,-0.006 c -143.28061,-0.005 -150.27949,-0.13376 -154.88832,-2.84643 z m 0.83655,-136.28287 c -3.07964,-1.47435 -7.24288,-5.02489 -9.25163,-7.89008 -3.41473,-4.87062 -3.65228,-6.79515 -3.65228,-29.5892 0,-27.20935 1.14254,-31.33057 10.13424,-36.55471 4.96902,-2.88699 8.84731,-2.99305 109.73487,-3.00066 l 104.5838,-0.007 -0.5245,22.43918 c -0.45784,19.58693 0.97422,38.35064 4.04268,52.96976 l 0.90651,4.31876 -105.18715,-0.003 c -96.93199,-10e-4 -105.62661,-0.21276 -110.78654,-2.683 z m 2.61077,-135.34103 c -2.52868,-0.72204 -6.042,-2.55839 -7.80739,-4.08074 -6.8194,-5.88061 -7.70756,-9.94916 -7.70128,-35.27839 0.007,-26.61753 1.24761,-30.88181 10.70618,-36.78834 4.16942,-2.60364 12.56032,-2.7908 142.69118,-3.18297 135.17528,-0.40734 138.21148,-0.35218 136.03054,2.47148 -1.2269,1.58846 -6.7723,8.22243 -12.3231,14.74214 -11.81671,13.87937 -25.18499,35.05297 -32.71183,51.81133 l -5.33663,11.88189 -109.47504,-0.13186 c -60.21127,-0.0725 -111.54396,-0.72255 -114.07263,-1.44462 z m -5.38044,-139.41099 c -8.9917,-5.22415 -10.13424,-9.34537 -10.13424,-36.55471 0,-22.79405 0.23755,-24.71858 3.65228,-29.5892 2.00875,-2.86519 6.17199,-6.41573 9.25163,-7.89008 5.26263,-2.5194 21.44843,-2.68076 269.13419,-2.683 260.79092,-0.003 263.60079,0.0298 269.87347,3.07895 9.78983,4.75901 11.82769,9.93595 12.55334,31.89031 0.71996,21.78229 -0.3854,31.07027 -4.22532,35.50392 l -2.72752,3.14925 -18.50329,-4.46041 c -48.37627,-11.66162 -96.75211,-9.89447 -144.53955,5.27994 l -16.62553,5.27926 -181.27919,-0.006 c -176.9571,-0.006 -181.402,-0.0771 -186.43027,-2.99849 z m -0.85207,-137.29553 c -8.40597,-5.44278 -9.63397,-10.80714 -9.00625,-39.34267 0.50997,-23.18248 0.67013,-24.17231 4.55102,-28.12558 8.81625,-8.98073 -10.13992,-8.40579 277.06715,-8.40322 298.73904,0.003 272.10692,-1.16648 279.32744,12.26279 3.46851,6.45098 3.67754,8.39783 3.21797,29.9686 -0.54373,25.52113 -1.62811,28.79055 -11.43955,34.49099 -5.04171,2.92924 -10.32448,2.9875 -271.45696,2.99311 l -266.31516,0.006 z"
         id="path8872" />
    </g>
  </g>
</svg>
