<?xml version="1.0" encoding="UTF-8" standalone="no"?>
<svg
   viewBox="0 0 1024 1024"
   version="1.1"
   id="svg1280"
   sodipodi:docname="calendar-clock.svg"
   width="1024"
   height="1024"
   inkscape:version="1.1.2 (0a00cf5339, 2022-02-04)"
   xmlns:inkscape="http://www.inkscape.org/namespaces/inkscape"
   xmlns:sodipodi="http://sodipodi.sourceforge.net/DTD/sodipodi-0.dtd"
   xmlns="http://www.w3.org/2000/svg"
   xmlns:svg="http://www.w3.org/2000/svg">
  <defs
     id="defs1284" />
  <sodipodi:namedview
     id="namedview1282"
     pagecolor="#ffffff"
     bordercolor="#666666"
     borderopacity="1.0"
     inkscape:pageshadow="2"
     inkscape:pageopacity="0.0"
     inkscape:pagecheckerboard="0"
     showgrid="false"
     width="1024mm"
     units="px"
     inkscape:zoom="0.46809896"
     inkscape:cx="1049.9917"
     inkscape:cy="204.01669"
     inkscape:window-width="1850"
     inkscape:window-height="1136"
     inkscape:window-x="1990"
     inkscape:window-y="27"
     inkscape:window-maximized="1"
     inkscape:current-layer="svg1280" />
  <path
     d="m 617.4,559.54545 h 76.8 v 131.25819 l 124.928,65.62909 -38.4,60.50909 L 617.4,731.29818 V 559.54545 M 822.2,326.81818 H 105.4 v 512 H 344.504 C 322.488,796.46182 310.2,748.98545 310.2,699.18182 A 358.4,325.81818 0 0 1 668.6,373.36364 c 54.784,0 107.008,11.17091 153.6,31.18545 V 326.81818 M 105.4,931.90909 C 48.568,931.90909 3,890.01818 3,838.81818 V 187.18182 C 3,135.51636 48.568,94.090909 105.4,94.090909 h 51.2 V 1 H 259 V 94.090909 H 668.6 V 1 H 771 v 93.090909 h 51.2 A 102.4,93.090909 0 0 1 924.6,187.18182 V 471.10909 C 988.088,529.75636 1027,610.28 1027,699.18182 A 358.4,325.81818 0 0 1 668.6,1025 c -97.792,0 -186.368,-35.37455 -250.88,-93.09091 H 105.4 M 668.6,473.43636 A 248.32,225.74545 0 0 0 420.28,699.18182 c 0,124.74182 111.104,225.74545 248.32,225.74545 A 248.32,225.74545 0 0 0 916.92,699.18182 C 916.92,574.44 805.816,473.43636 668.6,473.43636 Z"
     id="path1278"
     style="stroke-width:48.8173" />
</svg>
