<?xml version="1.0" encoding="UTF-8" standalone="no"?>
<svg
   id="svg5"
   version="1.1"
   viewBox="0 0 1024 1024"
   height="1024pt"
   width="1024pt"
   xml:space="preserve"
   xmlns="http://www.w3.org/2000/svg"
   xmlns:svg="http://www.w3.org/2000/svg"
   xmlns:rdf="http://www.w3.org/1999/02/22-rdf-syntax-ns#"
   xmlns:cc="http://creativecommons.org/ns#"
   xmlns:dc="http://purl.org/dc/elements/1.1/"><metadata
     id="metadata11"><rdf:RDF><cc:Work
         rdf:about=""><dc:format>image/svg+xml</dc:format><dc:type
           rdf:resource="http://purl.org/dc/dcmitype/StillImage" /></cc:Work></rdf:RDF></metadata><defs
     id="defs9" /><path
     style="fill:#000000;stroke-width:2.43472"
     d="m 283.74211,830.74921 c -1.68938,-4.01584 -3.99774,-20.47124 -5.12965,-36.56756 -2.33388,-33.18781 -3.85811,-29.56945 27.07682,-64.27624 76.52395,-85.85438 153.4868,-173.59643 180.2671,-205.51465 26.18704,-31.2112 24.32796,-24.27617 14.32056,-53.42043 l -4.66719,-13.59212 13.5258,7.50193 c 32.4338,17.989 71.27558,25.36917 106.67604,20.26905 45.55396,-6.56294 78.46524,-26.58616 120.42136,-73.26448 7.3953,-8.22763 14.72211,-28.9746 12.72385,-36.02956 -0.66105,-2.3339 0.34483,-9.49894 2.23527,-15.92229 1.89048,-6.42335 3.88672,-19.01153 4.43614,-27.97375 0.54943,-8.96219 1.66304,-16.40058 2.47469,-16.52973 3.10054,-0.49331 27.3177,31.01808 34.72062,45.17854 4.57921,8.75924 9.86449,25.98467 12.91353,42.08683 5.73341,30.27837 3.28582,59.57459 -7.30426,87.42815 -8.87826,23.35125 -36.20832,57.7924 -56.14258,70.75055 -20.27978,13.18275 -47.79967,23.14343 -70.41353,25.48578 -16.89976,1.7505 -58.27945,-3.02712 -64.5483,-7.45264 -1.66896,-1.17821 -3.30708,0.0192 -4.60698,3.36736 -1.10944,2.85764 -6.03205,14.02638 -10.93908,24.81954 -9.68829,21.30958 -13.65435,24.70845 -22.03242,18.88153 -9.53232,-6.62973 -7.37439,-8.47149 -55.37156,47.25932 -10.79875,12.53872 -10.85443,12.56558 -32.01457,15.44934 -11.65835,1.58885 -21.85424,3.81978 -22.65753,4.95764 -0.80327,1.13786 -1.45114,11.06851 -1.43976,22.06812 l 0.0208,19.9993 -16.02763,2.67478 c -8.81515,1.47112 -16.62108,3.5342 -17.34653,4.58462 -0.72593,1.05014 -0.89321,8.02351 -0.37281,15.49576 0.52042,7.4722 0.0908,14.79745 -0.95459,16.27831 -1.04543,1.48088 -9.69217,4.12692 -19.215,5.88014 -9.52283,1.75319 -18.04609,4.20453 -18.94059,5.44742 -0.89656,1.2414 -0.9921,10.02123 -0.21695,19.50747 2.17363,26.59978 -1.0691,29.48073 -37.19902,33.04898 -56.81076,5.61074 -58.69526,5.37971 -64.27204,-7.87701 z m 32.42348,-30.37278 c 2.52166,-1.03922 39.1367,-41.47511 96.92795,-107.04255 21.1004,-23.93959 48.45846,-54.93568 60.79572,-68.88018 47.40832,-53.58464 55.25441,-63.26151 54.85477,-67.65449 -0.43254,-4.7542 -3.26567,-7.26399 -8.56205,-7.5848 -2.1313,-0.12912 -10.31602,7.53414 -20.12698,18.84463 -22.91325,26.4154 -71.32332,81.46538 -107.66239,122.42927 -82.11661,92.56754 -86.53097,97.77781 -86.17325,101.71018 0.40907,4.49636 6.57594,9.56689 9.94623,8.17794 z m 336.38293,186.73154 c -9.14875,-12.9133 -17.1112,-26.0703 -17.69441,-29.2379 -0.58318,-3.1675 8.92922,-59.60815 21.13864,-125.42354 25.33994,-136.59602 40.1862,-218.14984 40.08455,-220.19369 -0.0384,-0.77325 -2.86222,-3.61937 -6.27511,-6.32468 -3.41276,-2.70543 -6.36202,-5.16982 -6.5538,-5.4767 -0.19176,-0.30682 7.88569,-2.79409 17.94985,-5.52718 39.05667,-10.6065 68.47452,-31.219 91.86257,-64.36628 13.71267,-19.42952 24.68432,-45.41907 27.58566,-65.32605 1.07685,-7.38857 3.03533,-11.215 7.93867,-15.51041 8.52053,-7.46414 15.07164,-20.74312 16.0192,-32.47058 l 0.7602,-9.40875 18.88299,-3.20282 c 10.38562,-1.76154 24.55992,-5.15284 31.49839,-7.53626 6.9385,-2.3834 13.81268,-4.58506 15.27592,-4.89262 1.46328,-0.30756 5.83659,5.27892 9.71844,12.41435 46.06216,84.66877 3.69175,190.31407 -88.63219,220.99347 -7.47737,2.48472 -14.16117,5.31946 -14.85296,6.29938 -0.69176,0.97991 0.75605,12.3999 3.21742,25.37773 2.52664,13.32203 3.28496,25.28209 1.74158,27.46832 -1.50351,2.12975 -6.69597,4.59004 -11.53887,5.46731 l -8.80521,1.59509 -7.04082,41.63572 -7.04084,41.63568 -16.12543,12.32502 c -8.86901,6.77877 -16.88602,13.11203 -17.81566,14.0739 -0.9295,0.96196 2.6583,9.46936 7.97317,18.90559 5.31487,9.43624 9.95008,18.70076 10.30046,20.58785 0.43033,2.31757 -3.43801,6.56037 -11.91925,13.073 l -12.55633,9.64185 5.93897,9.45599 c 3.26647,5.2008 7.53482,11.52538 9.48525,14.05473 4.30775,5.58629 0.90941,11.0912 -14.15912,22.93597 -5.88227,4.62381 -11.05587,9.63799 -11.49694,11.14264 -0.44106,1.50464 4.25433,9.91536 10.4342,18.69047 15.61606,22.1743 15.58287,22.2443 -24.8257,52.3799 -29.49396,21.99583 -33.68809,24.39313 -40.81727,23.33093 -10.52919,-1.5688 -10.4819,-1.5233 -29.65622,-28.58743 z m 32.14663,-18.6226 c 1.60444,-1.5343 8.11319,-30.6998 14.46396,-64.81218 6.35078,-34.1124 14.43415,-77.1954 17.96301,-95.74006 3.5289,-18.54466 8.67079,-46.02725 11.42641,-61.07245 2.75562,-15.04519 7.66244,-41.36978 10.90405,-58.49911 6.03819,-31.90723 5.82013,-37.91941 -1.44471,-39.82753 -6.68767,-1.75655 -10.6164,6.79453 -15.14576,32.96525 -2.33378,13.48464 -5.11712,29.19639 -6.18517,34.91499 -27.0833,145.00881 -44.76105,242.81949 -44.46798,246.04089 0.49855,5.4801 8.84592,9.5115 12.48619,6.0302 z M 88.748451,531.47317 c -1.588323,-7.4505 -0.198884,-14.97032 5.920157,-32.04063 14.201592,-39.61811 9.932612,-35.45259 56.857142,-55.4792 88.75228,-37.87802 276.70116,-120.53838 277.88418,-122.21415 0.43804,-0.6205 0.92082,-7.79717 1.07274,-15.94811 0.15196,-8.15093 2.42082,-23.23549 5.04187,-33.52123 4.27953,-16.79399 6.58852,-21.31528 22.6394,-44.33035 15.32432,-21.97294 19.93696,-27.11026 32.33689,-36.01331 48.81407,-35.04804 110.85587,-39.31876 165.41532,-11.38657 74.62657,38.20572 106.05574,124.84241 73.26189,201.95157 -26.6458,62.65307 -93.3453,99.65453 -158.79819,88.09305 -28.56455,-5.04561 -46.14542,-12.12187 -67.40598,-27.13084 l -17.63266,-12.44784 -7.13661,5.99471 c -3.92509,3.2971 -11.91759,10.56316 -17.7611,16.14679 -18.3189,17.50421 -16.75705,17.07751 -27.5468,7.52593 l -9.55504,-8.45857 -38.59443,17.49498 -38.59437,17.495 -21.26017,-6.47871 c -24.21953,-7.38051 -24.14827,-7.41697 -33.19414,16.99785 -2.8183,7.60667 -6.11184,14.23733 -7.31892,14.73479 -1.2071,0.49748 -9.05872,-0.95989 -17.44797,-3.23862 -8.38932,-2.2787 -15.61274,-3.56537 -16.05212,-2.85919 -0.43937,0.70613 -3.21202,7.42521 -6.16146,14.93129 -2.9495,7.50605 -6.19862,13.99187 -7.22033,14.41291 -1.02176,0.42109 -9.7362,-1.09152 -19.36555,-3.36133 -9.6293,-2.26982 -18.58612,-4.0571 -19.90406,-3.97173 -1.31796,0.0853 -4.96306,8.0197 -8.10029,17.63185 -8.50673,26.06383 -10.16562,26.44006 -52.83794,11.98454 C 88.977826,541.62202 91.166999,542.81784 88.748451,531.47317 Z M 134.369,512.01324 c 2.07194,-0.56002 41.2721,-17.56939 87.11148,-37.79864 45.83937,-20.22926 109.16322,-48.13093 140.71963,-62.00365 31.5564,-13.87282 58.17813,-26.36051 59.15939,-27.75049 2.54419,-3.60391 -0.14775,-11.43741 -4.30579,-12.52954 -1.93515,-0.50828 -8.46956,1.31556 -14.5209,4.05293 -21.65748,9.79708 -73.55539,32.63027 -136.92635,60.24271 -145.90316,63.5739 -143.65628,62.47377 -142.31815,69.68043 0.68671,3.69831 7.0386,7.19867 11.08069,6.10625 z m 507.59528,-172.3797 c 13.24783,2.03117 34.14482,-5.25917 43.81754,-15.28662 14.30654,-14.83126 18.16091,-42.10106 8.35491,-59.1116 -21.09591,-36.5955 -71.59701,-39.00382 -91.27296,-4.35266 -18.31007,32.24568 1.95225,73.05525 39.10051,78.75088 z M 613.58531,303.6721 c -7.17316,-13.75032 -5.70021,-18.63555 6.55332,-21.73488 l 10.19362,-2.57832 8.31542,15.11647 c 4.57349,8.31408 11.02631,17.88291 14.3396,21.2641 7.12137,7.26727 4.95454,9.6438 -8.41319,9.22745 -12.24716,-0.38145 -24.45523,-8.77058 -30.98877,-21.29482 z m 43.68037,-4.05355 c -11.94041,-17.86341 -20.88095,-35.8814 -21.57161,-43.47344 -0.40326,-4.43236 0.75931,-5.17819 8.71728,-5.59261 15.15195,-0.78911 18.93192,1.96398 30.68626,22.34979 7.72238,13.39315 10.391,20.62889 9.39198,25.46577 -1.60612,7.77634 -10.66344,19.1733 -14.23689,17.9145 -1.32974,-0.46845 -7.17392,-7.96723 -12.98702,-16.66401 z m 157.96342,81.87136 -2.92549,-14.1141 7.40594,0.20049 c 26.40543,0.71478 61.36898,-8.31987 86.72843,-22.41082 45.19104,-25.11033 73.1631,-68.14176 80.33322,-123.58247 2.93732,-22.7116 -4.29899,-66.66183 -14.3869,-87.38001 -24.24647,-49.796469 -73.49935,-87.835649 -125.7994,-97.157829 -51.07061,-9.103072 -100.10083,2.63818 -138.74756,33.22578 -18.92172,14.97592 -42.87099,49.632299 -50.02405,72.388559 -2.95874,9.41272 -5.75607,17.64743 -6.21628,18.29932 -0.4602,0.65189 -5.20256,-0.44848 -10.53853,-2.44531 -5.33596,-1.99682 -11.26762,-4.04184 -13.18139,-4.54449 -6.76453,-1.77671 4.93274,-31.06353 24.46006,-61.241459 15.27267,-23.60275 19.90793,-29.22823 33.71862,-40.92203 55.40566,-46.9130403 130.84136,-59.5550493 199.09747,-33.366055 26.88853,10.316792 63.20662,35.349565 81.15953,55.940465 21.91025,25.12966 39.51343,60.271999 46.79353,93.416709 6.0098,27.36168 3.3797,67.29729 -6.4736,98.29352 -13.45635,42.33094 -50.77607,87.22232 -88.837,106.86096 -24.30201,12.53936 -65.41828,22.92919 -89.95497,22.73107 l -9.68612,-0.0782 z m -22.7915,-46.83215 -12.15126,-17.98736 16.83018,2.80661 c 9.25662,1.54364 22.57896,4.81096 29.60516,7.26072 16.29881,5.68273 39.1374,18.23136 37.47278,20.58933 -2.44766,3.46716 -57.2205,8.98725 -59.1852,5.96482 -0.23117,-0.35579 -5.88848,-8.74109 -12.57166,-18.63412 z"
     id="path900" /></svg>
