<?xml version="1.0" encoding="UTF-8" standalone="no"?>
<svg
   id="svg5"
   version="1.1"
   viewBox="0 0 1024 1024"
   height="1024pt"
   width="1024pt"
   xmlns="http://www.w3.org/2000/svg"
   xmlns:svg="http://www.w3.org/2000/svg"
   xmlns:rdf="http://www.w3.org/1999/02/22-rdf-syntax-ns#"
   xmlns:cc="http://creativecommons.org/ns#"
   xmlns:dc="http://purl.org/dc/elements/1.1/">
  <metadata
     id="metadata11">
    <rdf:RDF>
      <cc:Work
         rdf:about="">
        <dc:format>image/svg+xml</dc:format>
        <dc:type
           rdf:resource="http://purl.org/dc/dcmitype/StillImage" />
      </cc:Work>
    </rdf:RDF>
  </metadata>
  <defs
     id="defs9" />
  <path
     d="m 707.1895,5.3857 c -95.6,12.4 -181.8,79 -218.6,169 -25.2,61.6 -27.2,134.8 -5.4,196.4 48.2,136.8 189.2,212.4 330.2,177.2 105.4,-26.2 185.4,-113.4 204.4,-222.6 4,-22.2 3.8,-68.4 -0.2,-92.4 -17.4,-103.4 -96.4,-191.4 -197.2,-219.6 -32.6,-9.2 -79,-12.4 -113.2,-8 z m 89.6,70.4 c 80.2,21.4 139.8,85.4 155.2,166.6 4.4,24.4 3,67.2 -3.2,89.8 -20.4,75.4 -78,132.4 -153.6,152.4 -16.8,4.4 -23.4,5.2 -50.4,5.2 -27,0 -33.6,-0.8 -51,-5.4 -100.8,-26.4 -167.4,-119.8 -158.8,-222 8,-95.2 78.4,-172.2 174.2,-190.4 22.6,-4.2 63.8,-2.4 87.6,3.8 z"
     id="path4"
     style="fill:#000000;stroke:none;stroke-width:0.2" />
  <path
     d="m 723.2895,107.8857 c -34.6,7.4 -66.2,31.6 -81.8,62.8 -4.4,8.8 -8.6,19.2 -9.2,22.8 l -1.4,6.6 -16,1.2 c -25.2,2 -35.6,10.4 -37.2,30 -1,13.6 3.4,23.8 13.4,30.6 6,4 9.6,4.8 21.6,4.8 h 14.6 v 7.8 7.6 l -13.8,1 c -15.2,1.2 -24.4,5.2 -31,14.2 -3.2,4.4 -4.2,8.6 -4.2,19 0,22.8 10.8,32.4 36.4,32.4 h 13.6 l 2.6,13.4 c 6.8,35.2 32,67.6 65.4,83.4 19,9.2 32.6,12 55,11.8 44.4,-0.4 83.8,-24.6 104.4,-63.8 8.8,-16.6 14.6,-38 12.8,-47.2 -5.2,-27.8 -39.8,-37.2 -57.8,-15.8 -3,3.6 -6,9 -6.6,11.8 -6.4,30.4 -28,49.4 -55.8,49.2 -15.2,-0.2 -28,-6 -38.8,-17.8 -6.4,-7 -14.2,-20.2 -14.2,-24.2 0,-0.4 13.8,-0.8 30.6,-0.8 34,0 39.6,-1.8 47.4,-14.4 5.8,-9.4 5.4,-26.8 -0.6,-35.6 -8.6,-13 -14.8,-15 -48.8,-15.6 l -30.6,-0.8 v -7.8 -7.8 h 31.6 c 35.2,0 40.6,-1.6 48.4,-14.4 5.8,-9.4 5.4,-26.8 -0.6,-35.6 -8.2,-12.4 -15.2,-14.8 -44.8,-15.6 -14.6,-0.6 -26.6,-1.4 -26.6,-1.8 0,-3.6 13.4,-16.8 21.8,-21.2 20.6,-11.2 44.6,-8.4 61.6,7.2 10,9.2 14.6,17.2 19.4,33.8 6.6,22.8 30,32 50.2,19.6 15,-9.2 18,-29.4 8.2,-55 -21.6,-56.6 -80.2,-88.6 -139.2,-75.8 z"
     id="path6"
     style="fill:#000000;stroke:none;stroke-width:0.2" />
  <path
     d="m 19.401638,517.18528 c -3.2,1.6 -8.6,5.6 -12,9 l -6,6.4 v 201.4 c 0,198.2 0,201.4 4,206.8 2.2,3 7.8,7.4 12.2,9.6 8,4 11,4 119.399992,3.6 108.6,-0.6 111.2,-0.6 116.6,-4.8 11.6,-8.6 13.8,-13.6 14.4,-34 l 0.8,-18.8 h 11.6 c 10.8,0 19.6,3.6 135.2,55 68.2,30.4 131.4,57.40002 140.8,60.20002 21.2,6.2 49.6,8.2 71.8,5 9,-1.4 79.2,-20.40002 155.8,-42.40002 113.6,-32.6 143.2,-41.8 159.8,-49.8 39.6,-18.8 62.19997,-37.6 73.79997,-61.2 7,-14.2 7.2,-15.2 6.4,-32.2 -1,-21.2 -5.4,-30.6 -20,-45 -17.79997,-17.2 -64.79997,-35.6 -91.19997,-35.6 -4.6,0 -53.2,5.8 -108,13 -55,7.2 -101.4,13 -103.2,13 -2.8,0 -3,-1.8 -2,-13.6 2.4,-27.4 -8.4,-56.8 -26.6,-71.8 -5.2,-4.2 -52.8,-27.6 -125.6,-61.8 l -117.4,-54.8 h -80.6 -80.6 l -0.8,-19.6 c -0.8,-22.6 -4.6,-30.4 -18.4,-36.6 -7.6,-3.4 -15.2,-3.8 -116.2,-3.6 -85.799992,0 -109.199992,0.6 -113.999992,2.6 z m 182.999992,217.2 v 154 h -69 -68.999992 v -154 -154 h 68.999992 69 z m 317.8,-44.6 c 95.4,44.8 110.4,52.4 112.4,57 2.6,6.6 1,17.4 -4.4,28 l -3.8,7.4 -12.4,-4.6 c -7,-2.6 -55.2,-20.2 -107.2,-39.2 -84.6,-30.8 -95.6,-34.4 -104.2,-33.6 -5.6,0.6 -12.4,2.8 -16.2,5.6 -7.2,5.2 -13.8,18 -14,26.8 0,8.8 7.4,22.6 14.6,26.8 3.6,2.2 59,23 123.2,46.6 l 117,42.4 20,-2.4 c 11.2,-1.4 75.6,-9.6 143.2,-18.4 l 123,-16 13.8,3 c 13.2,3 33.2,12.2 33.2,15.4 0,3.8 -21,18.8 -39,27.8 -17,8.4 -40.4,15.6 -157,49 -150.6,43.2 -157,44.6 -181.8,38.2 -7.2,-1.8 -71.6,-29.4 -143.4,-61.2 l -130.2,-58 h -19.4 -19.2 v -96 -96 h 70.8 70.8 z"
     id="path8"
     style="fill:#000000;stroke:none;stroke-width:0.2" />
</svg>
