<?xml version="1.0" encoding="UTF-8"?>
<!-- Created with Inkscape (http://www.inkscape.org/) -->
<svg width="1365.3" height="1365.3" version="1.1" viewBox="0 0 1365.3 1365.3" xmlns="http://www.w3.org/2000/svg">
 <g transform="matrix(1.0171 0 0 1.0171 -156.42 -106.82)" stroke-width=".98319" style="shape-inside:url(#rect3153);white-space:pre" aria-label="N43">
  <path d="m1025.7 675.88c0-36.789 30.099-66.889 66.888-66.889 36.789 0 66.888 30.1 66.888 66.889 0 36.788-30.099 66.888-66.888 66.888-36.789 0-66.888-30.1-66.888-66.888m-468.22-66.889h334.44v-133.78h-334.44v133.78m936.44-100.33v466.21l-188.62 62.875-112.37 373.9h-367.89v-133.78h-133.78v133.78h-367.89s-167.22-565.87-167.22-769.21c0-203.34 164.55-367.89 367.89-367.89h334.44c60.868-80.935 157.86-133.78 267.55-133.78 55.517 0 100.33 44.815 100.33 100.33 0 14.046-2.6739 26.755-8.0266 38.795-9.3643 22.742-17.391 48.829-21.405 76.922l151.84 151.84h145.15m-133.78 133.78h-66.889l-234.11-234.11c0-43.478 6.0208-86.286 17.391-127.76-64.881 16.721-117.72 64.881-139.8 127.76h-412.7c-129.09 0-234.11 105.01-234.11 234.11 0 125.75 81.603 444.81 133.78 635.44h133.78v-133.78h401.33v133.78h133.78l104.35-344.47 163.21-54.848z" stroke-width=".96667" style="white-space:pre"/>
 </g>
</svg>
