<?xml version="1.0" encoding="UTF-8"?>
<svg width="1024" height="1024" fill="none" stroke-linecap="square" stroke-miterlimit="10" version="1.1" viewBox="0 0 1024 1024" xmlns="http://www.w3.org/2000/svg" xmlns:cc="http://creativecommons.org/ns#" xmlns:dc="http://purl.org/dc/elements/1.1/" xmlns:rdf="http://www.w3.org/1999/02/22-rdf-syntax-ns#">
 <metadata>
  <rdf:RDF>
   <cc:Work rdf:about="">
    <dc:format>image/svg+xml</dc:format>
    <dc:type rdf:resource="http://purl.org/dc/dcmitype/StillImage"/>
    <dc:title/>
   </cc:Work>
  </rdf:RDF>
 </metadata>
 <clipPath>
  <path d="m0 0h960v960h-960z"/>
 </clipPath>
 <text fill="#000000" font-family="sans-serif" font-size="40px" letter-spacing="0px" word-spacing="0px" style="line-height:1.25;shape-inside:url(#rect886);white-space:pre" xml:space="preserve"/>
 <path d="m358.54 925.86c-122.35-137.9-126.46-144.13-115.02-174 10.467-27.313 38.59-22.448 96.685 16.728 17.161 11.572 32.848 21.041 34.859 21.041 2.0115 0 5.4862-70.53 7.7214-156.73 3.8433-148.22 4.7166-157.29 16.086-166.99 14.567-12.424 22.507-12.838 37.401-1.9524 10.202 7.4559 11.656 17.953 14.284 103.09l2.9257 94.786 15.552-12.269c22.877-18.048 48.564-16.095 64.043 4.8684 10.638 14.408 14.86 16.298 26.507 11.863 16.63-6.3312 36.002 0.15988 51.332 17.201 6.1308 6.815 17.573 12.391 25.428 12.391 7.8547 0 22.074 5.5565 31.599 12.348l17.318 12.348-1.786 122c-2.0327 138.85-3.4891 143.6-51.643 168.24-23.016 11.776-34.33 13.183-105.99 13.183h-80.228zm-36.945-359.11c-16.796-16.818-23.192-36.782-23.044-71.923 0.38448-90.886 83.598-148.64 170.12-118.07 50.235 17.748 76.239 57.673 76.239 117.05 0 41.678-11.41 70.198-30.513 76.27-20.288 6.4478-26.301-5.2385-18.234-35.441 13.178-49.337 9.7102-70.726-15.93-98.251-21.524-23.105-24.995-24.675-54.581-24.675-25.279 0-35.72 3.1499-52.225 15.756-31.251 23.868-37.375 43.929-28.228 92.473 10.572 56.102 2.2172 72.666-23.608 46.807zm255.25-36.14c-4.3185-27.042 1.8327-133.54 7.7131-133.54 7.8855 0 82.5 71.713 82.5 79.292 0 6.548-77.257 78.908-84.248 78.908-1.1152 0-3.7994-11.095-5.9649-24.655zm111.42 6.3453c-7.9966-40.036-2.5821-139.89 7.5853-139.89 2.1604 0 22.238 16.918 44.617 37.596l40.689 37.596-40.803 41.504c-22.442 22.827-42.519 41.504-44.617 41.504-2.0977 0-5.4598-8.2395-7.4712-18.31zm-623.91-196.37c-8.0457-1.3105-25.819-5.3-39.497-8.8656l-24.869-6.4828v-66.541l43.376 14.272c61.601 20.269 102.91 10.306 102.91-24.819 0-16.859-9.7181-25.078-65.854-55.693-58.302-31.796-77.088-55.348-77.088-96.645 0-55.555 32.296-87.761 95.524-95.26 29.867-3.542 102.33 10.953 109.03 21.81 1.6309 2.6422-1.4027 15.735-6.7412 29.095-8.0888 20.243-11.764 23.702-22.05 20.753-66.269-18.993-91.925-18.195-103.37 3.2166-12.576 23.53-2.4137 37.13 48.074 64.335 63.688 34.318 72.448 41.87 84.15 72.552 16.887 44.277-1.1952 92.624-42.432 113.45-22.654 11.442-74.904 19.095-101.17 14.817zm210.65-169.09v-166.99h193.1v58.592h-122.88v70.311h111.18v58.592h-111.18v87.888h122.88v58.592h-193.1zm263.31-0.56191v-167.55l80.457 2.1586c89.339 2.3969 107.5 8.0645 130.79 40.819 17.988 25.295 21.66 73.027 8.3121 108.03-14.378 37.7-42.308 54.745-102.26 62.409l-47.083 6.0188v115.67h-70.217v-167.55zm144.82-28.883c17.504-20.145 17.019-46.329-1.1969-64.569-11.454-11.469-20.342-14.382-43.886-14.382h-29.523v101.24l30.72-3.5681c23.016-2.6733 34.022-7.368 43.886-18.721zm147.75 29.445v-166.99h193.1v58.592h-122.88v70.311h111.18v58.592h-111.18v87.888h122.88v58.592h-193.1z" fill="#000" stroke-width="5.8553"/>
</svg>
