<?xml version="1.0" encoding="UTF-8" standalone="no"?>
<svg
   xmlns:dc="http://purl.org/dc/elements/1.1/"
   xmlns:cc="http://creativecommons.org/ns#"
   xmlns:rdf="http://www.w3.org/1999/02/22-rdf-syntax-ns#"
   xmlns:svg="http://www.w3.org/2000/svg"
   xmlns="http://www.w3.org/2000/svg"
   width="1024pt"
   height="1024pt"
   viewBox="0 0 1024 1024"
   version="1.1"
   id="svg5">
  <metadata
     id="metadata11">
    <rdf:RDF>
      <cc:Work
         rdf:about="">
        <dc:format>image/svg+xml</dc:format>
        <dc:type
           rdf:resource="http://purl.org/dc/dcmitype/StillImage" />
        <dc:title></dc:title>
      </cc:Work>
    </rdf:RDF>
  </metadata>
  <defs
     id="defs9" />
  <g
     transform="translate(1410.1694,1128.1356)"
     id="g5070">
    <path
       id="path6570"
       d=""
       style="fill:#000000;stroke-width:3.88769436" />
    <path
       id="path6611"
       d="m -921.14362,-138.41013 c -31.94967,-2.72021 -40.8153,-3.7254 -57.15629,-6.48043 -175.13929,-29.52812 -318.75559,-156.43135 -369.49149,-326.49261 -18.9357,-63.47032 -24.3415,-131.59507 -15.5226,-195.61358 10.961,-79.56761 41.7,-155.1949 88.3129,-217.27546 76.3428,-101.67608 187.4863,-167.03269 312.93878,-184.02009 82.13566,-11.1219 167.35602,0.4356 244.61426,33.1744 140.7749,59.65433 245.20584,187.70058 274.80292,336.945 12.77564,64.42102 12.59101,123.14824 -0.59131,188.13805 -17.28492,85.21552 -59.88402,165.73054 -121.31127,229.28591 -77.22386,79.89912 -180.14319,129.47689 -291.64558,140.4897 -14.96767,1.47832 -55.68875,2.63762 -64.95032,1.84911 z m 80.83042,-43.23986 c 122.61175,-18.40172 227.80322,-84.77212 295.70662,-186.57526 38.69775,-58.01727 61.76083,-121.63429 69.69724,-192.25296 3.75534,-33.41443 2.09919,-83.38306 -3.91763,-118.20959 -12.31995,-71.30836 -45.0899,-142.55765 -91.34718,-198.60892 -72.04359,-87.29781 -176.49402,-142.83038 -289.72911,-154.03888 -17.32459,-1.7148 -63.58792,-1.7148 -80.91251,0 -101.86603,10.0831 -195.09793,54.95527 -266.11583,128.08057 -30.6557,31.56534 -54.6077,65.06256 -74.3682,104.00539 -31.9475,62.96025 -46.4079,123.3954 -46.4079,193.9557 0,70.73593 14.4113,130.90019 46.5044,194.14536 41.9683,82.70618 108.6752,148.41738 192.5322,189.65841 49.1499,24.17191 89.16552,35.34285 153.23841,42.77819 2.5005,0.29028 20.914,0.35004 40.9187,0.13336 28.51475,-0.30951 40.22365,-0.97287 54.20079,-3.07068 z m -244.2219,-230.95331 c -9.0941,-4.48226 -13.337,-17.36286 -8.7381,-26.52744 1.2245,-2.44023 35.7292,-38.04877 76.6772,-79.12976 l 74.45091,-74.69288 -0.98898,-6.20041 c -1.3475,-8.44874 0.61677,-19.64375 4.79299,-27.3169 3.22171,-5.91948 13.53184,-16.49444 16.08135,-16.49444 0.61591,0 1.1194,-70.29149 1.12338,-156.85503 0,-109.16383 0.43786,-158.43487 1.42354,-162.05113 4.80927,-17.64449 27.47988,-20.44117 36.81956,-4.54219 2.64738,4.50634 2.67111,5.79997 3.01803,163.99531 0.19242,87.69922 0.84071,159.45304 1.44086,159.45304 0.60014,0 3.67757,2.27656 6.83866,5.05903 19.13384,16.8424 19.15775,48.36097 0.0485,65.18085 -8.68914,7.64855 -17.97236,10.61306 -31.57884,10.08445 l -11.20939,-0.43543 -73.50714,73.71117 c -40.42873,40.54113 -75.42643,74.88132 -77.77243,76.31179 -5.1539,3.14221 -13.0761,3.33065 -18.9208,0.44997 z"
       style="fill:#000000;stroke-width:1.29900646" />
  </g>
</svg>
