<?xml version="1.0" encoding="UTF-8" standalone="no"?>
<svg
   id="svg5"
   version="1.1"
   viewBox="0 0 1024 1024"
   height="1024pt"
   width="1024pt"
   xmlns="http://www.w3.org/2000/svg"
   xmlns:svg="http://www.w3.org/2000/svg"
   xmlns:rdf="http://www.w3.org/1999/02/22-rdf-syntax-ns#"
   xmlns:cc="http://creativecommons.org/ns#"
   xmlns:dc="http://purl.org/dc/elements/1.1/">
  <metadata
     id="metadata11">
    <rdf:RDF>
      <cc:Work
         rdf:about="">
        <dc:format>image/svg+xml</dc:format>
        <dc:type
           rdf:resource="http://purl.org/dc/dcmitype/StillImage" />
      </cc:Work>
    </rdf:RDF>
  </metadata>
  <defs
     id="defs9" />
  <path
     d="m 839.38618,872.5861 c -2.98711,-15.0719 -17.81122,-24.71519 -32.78992,-21.29845 -24.30599,5.54456 -62.33811,12.30532 -103.2664,12.30532 -129.03866,0 -231.71402,-79.0877 -276.11589,-194.25023 h 258.4479 a 27.279461,27.279461 0 0 0 26.61565,-21.29843 l 14.48767,-64.47047 c 3.83277,-17.0542 -9.13636,-33.26048 -26.61566,-33.26048 H 394.99011 c -2.75068,-32.57169 -3.21444,-64.30451 0.31143,-96.03508 h 333.24818 a 27.279461,27.279461 0 0 0 26.64976,-21.4462 l 14.80366,-67.64169 c 3.72365,-17.0133 -9.23183,-33.11272 -26.64976,-33.11272 H 429.00759 c 46.90476,-102.27752 142.51246,-170.56484 267.38192,-170.56484 32.93085,0 64.9342,5.1149 86.04624,9.42277 14.13076,2.88254 28.06829,-5.67866 31.83059,-19.60255 l 27.259,-100.861258 C 845.66727,35.147552 835.92169,19.518696 820.32465,16.561147 792.80877,11.34395 748.46373,4.724134 700.55417,4.724134 c -220.92726,0 -399.20082,136.970176 -465.02388,327.353536 h -75.18903 c -15.06506,0 -27.27945,12.21437 -27.27945,27.27946 v 67.6417 c 0,15.06509 12.21439,27.27945 27.27945,27.27945 h 49.03257 c -2.29374,30.93266 -2.68474,66.5778 -0.41146,96.03508 h -48.62111 c -15.06506,0 -27.27945,12.21438 -27.27945,27.27946 v 64.47046 c 0,15.06508 12.21439,27.27946 27.27945,27.27946 h 68.45782 c 56.88905,205.3507 234.48971,353.81466 471.75509,353.81466 59.78977,0 110.39544,-10.3298 138.9002,-17.7044 14.01938,-3.6258 22.79427,-17.52251 19.97767,-31.7283 z"
     id="path529"
     style="stroke-width:2.27329" />
</svg>
