<?xml version="1.0" encoding="UTF-8" standalone="no"?>
<svg
   xmlns:dc="http://purl.org/dc/elements/1.1/"
   xmlns:cc="http://creativecommons.org/ns#"
   xmlns:rdf="http://www.w3.org/1999/02/22-rdf-syntax-ns#"
   xmlns:svg="http://www.w3.org/2000/svg"
   xmlns="http://www.w3.org/2000/svg"
   id="svg5"
   version="1.1"
   viewBox="0 0 1024 1024"
   height="1024pt"
   width="1024pt">
  <metadata
     id="metadata11">
    <rdf:RDF>
      <cc:Work
         rdf:about="">
        <dc:format>image/svg+xml</dc:format>
        <dc:type
           rdf:resource="http://purl.org/dc/dcmitype/StillImage" />
        <dc:title></dc:title>
      </cc:Work>
    </rdf:RDF>
  </metadata>
  <defs
     id="defs9" />
  <g
     transform="matrix(1.0598167,0,0,1.0650148,1451.6445,1185.2536)"
     id="g5070">
    <g
       id="text6332"
       style="font-style:normal;font-weight:normal;font-size:394.119px;line-height:1.25;font-family:sans-serif;letter-spacing:0px;word-spacing:0px;fill:#000000;fill-opacity:1;stroke:none;stroke-width:9.85298"
       transform="scale(0.98650141,1.0136833)"
       aria-label="IBAN">
      <path
         id="path6392"
         style="font-style:normal;font-variant:normal;font-weight:bold;font-stretch:normal;font-family:he;-inkscape-font-specification:'he Bold';stroke-width:9.85298"
         d="m -1259.1706,-564.7558 h -128.0888 v -33.89427 l 34.2884,-15.76477 v -182.08317 l -34.2884,-15.76478 v -33.89427 h 128.0888 v 33.89427 l -34.2884,15.76478 v 182.08317 l 34.2884,15.76477 z" />
      <path
         id="path6394"
         style="font-style:normal;font-variant:normal;font-weight:bold;font-stretch:normal;font-family:he;-inkscape-font-specification:'he Bold';stroke-width:9.85298"
         d="m -1211.088,-846.15706 h 87.4945 q 56.359,0 85.1298,15.76478 28.7707,15.76477 28.7707,55.57083 0,24.04129 -11.4295,40.5943 -11.0353,16.55302 -31.9237,20.10009 v 1.9706 q 14.1883,2.75884 25.6178,9.85299 11.4295,7.09415 18.1295,20.49421 6.7,13.40006 6.7,35.47074 0,38.22959 -27.5883,59.90615 -27.5884,21.67657 -75.671,21.67657 h -105.2298 z m 59.512,111.53579 h 34.6825 q 26.0119,0 35.8649,-8.2765 10.2471,-8.27651 10.2471,-24.04129 0,-16.15889 -11.8236,-23.25304 -11.8236,-7.09415 -37.4414,-7.09415 h -31.5295 z m 0,47.29433 v 73.30621 h 39.0178 q 26.8001,0 37.4414,-10.2471 10.6412,-10.64122 10.6412,-27.98248 0,-15.76478 -11.0354,-25.22364 -10.6412,-9.85299 -39.0178,-9.85299 z" />
      <path
         id="path6396"
         style="font-style:normal;font-variant:normal;font-weight:bold;font-stretch:normal;font-family:he;-inkscape-font-specification:'he Bold';stroke-width:9.85298"
         d="m -774.01001,-564.7558 -20.49421,-67.0003 h -102.47104 l -20.49421,67.0003 h -64.24147 l 99.3181,-282.58362 h 72.91209 l 99.71221,282.58362 z m -34.6825,-117.05346 -20.49421,-65.42383 q -1.9706,-6.70003 -5.12356,-16.94713 -3.15295,-10.24711 -6.30591,-20.88833 -3.15295,-10.64123 -5.12355,-18.52361 -1.9706,7.88238 -5.51767,19.70597 -3.15296,11.42946 -6.30591,22.07068 -2.75884,10.24711 -4.33532,14.58242 l -20.10009,65.42383 z" />
      <path
         id="path6398"
         style="font-style:normal;font-variant:normal;font-weight:bold;font-stretch:normal;font-family:he;-inkscape-font-specification:'he Bold';stroke-width:9.85298"
         d="m -424.82077,-564.7558 h -75.67092 l -122.57114,-212.82448 h -1.57648 q 0.78824,20.10009 1.57648,40.20018 1.18236,20.10009 1.97059,40.20018 v 132.42412 h -53.20612 v -281.40126 h 75.27681 l 122.17702,210.85389 h 1.18236 q -0.39412,-19.70597 -1.18236,-39.01783 -0.78824,-19.31185 -1.57648,-38.6237 v -133.21236 h 53.60024 z" />
    </g>
    <g
       id="text6336"
       style="font-style:normal;font-weight:normal;font-size:82.1161px;line-height:1.25;font-family:sans-serif;letter-spacing:0px;word-spacing:0px;fill:#000000;fill-opacity:1;stroke:none;stroke-width:2.0529"
       transform="scale(0.96384248,1.0375139)"
       aria-label="0000 1111 2222 3333 4444">
      <path
         id="path6401"
         style="font-style:normal;font-variant:normal;font-weight:600;font-stretch:normal;font-family:FreeSans;-inkscape-font-specification:'FreeSans Semi-Bold';stroke-width:2.0529"
         d="m -1389.249,-393.01651 q -4.0237,2.29925 -9.8539,2.29925 -5.8303,0 -9.854,-2.29925 -4.0237,-2.38136 -6.2408,-6.73352 -2.135,-4.35215 -3.0383,-9.52546 -0.9033,-5.25543 -0.9033,-12.07107 0,-14.86301 4.5164,-22.74616 4.5164,-7.96526 15.52,-7.96526 5.7481,0 9.6897,2.21713 4.0237,2.13502 6.2408,6.40506 2.2171,4.27004 3.1204,9.6897 0.9854,5.41966 0.9854,12.72799 0,6.56929 -0.9033,11.74261 -0.9033,5.09119 -3.0383,9.52546 -2.135,4.35216 -6.2408,6.73352 z m -1.3139,-28.24793 q 0,-11.90684 -2.2171,-16.66957 -2.135,-4.84485 -6.3229,-4.84485 -4.5985,0 -6.5693,4.68062 -1.9708,4.5985 -1.9708,16.66956 0,8.37585 1.0675,13.13858 1.0675,4.68062 2.7919,6.24082 1.8066,1.47809 4.6807,1.47809 2.7919,0 4.5163,-1.47809 1.8066,-1.47809 2.8741,-6.1587 1.1496,-4.76274 1.1496,-13.05646 z" />
      <path
         id="path6403"
         style="font-style:normal;font-variant:normal;font-weight:600;font-stretch:normal;font-family:FreeSans;-inkscape-font-specification:'FreeSans Semi-Bold';stroke-width:2.0529"
         d="m -1343.5925,-393.01651 q -4.0237,2.29925 -9.8539,2.29925 -5.8302,0 -9.8539,-2.29925 -4.0237,-2.38136 -6.2409,-6.73352 -2.135,-4.35215 -3.0383,-9.52546 -0.9032,-5.25543 -0.9032,-12.07107 0,-14.86301 4.5164,-22.74616 4.5163,-7.96526 15.5199,-7.96526 5.7481,0 9.6897,2.21713 4.0237,2.13502 6.2408,6.40506 2.2172,4.27004 3.1204,9.6897 0.9854,5.41966 0.9854,12.72799 0,6.56929 -0.9033,11.74261 -0.9032,5.09119 -3.0383,9.52546 -2.135,4.35216 -6.2408,6.73352 z m -1.3138,-28.24793 q 0,-11.90684 -2.2172,-16.66957 -2.135,-4.84485 -6.3229,-4.84485 -4.5985,0 -6.5693,4.68062 -1.9708,4.5985 -1.9708,16.66956 0,8.37585 1.0675,13.13858 1.0675,4.68062 2.792,6.24082 1.8065,1.47809 4.6806,1.47809 2.7919,0 4.5164,-1.47809 1.8065,-1.47809 2.874,-6.1587 1.1497,-4.76274 1.1497,-13.05646 z" />
      <path
         id="path6405"
         style="font-style:normal;font-variant:normal;font-weight:600;font-stretch:normal;font-family:FreeSans;-inkscape-font-specification:'FreeSans Semi-Bold';stroke-width:2.0529"
         d="m -1297.9359,-393.01651 q -4.0237,2.29925 -9.854,2.29925 -5.8302,0 -9.8539,-2.29925 -4.0237,-2.38136 -6.2408,-6.73352 -2.1351,-4.35215 -3.0383,-9.52546 -0.9033,-5.25543 -0.9033,-12.07107 0,-14.86301 4.5164,-22.74616 4.5164,-7.96526 15.5199,-7.96526 5.7481,0 9.6897,2.21713 4.0237,2.13502 6.2408,6.40506 2.2172,4.27004 3.1205,9.6897 0.9853,5.41966 0.9853,12.72799 0,6.56929 -0.9032,11.74261 -0.9033,5.09119 -3.0383,9.52546 -2.135,4.35216 -6.2408,6.73352 z m -1.3139,-28.24793 q 0,-11.90684 -2.2171,-16.66957 -2.1351,-4.84485 -6.323,-4.84485 -4.5985,0 -6.5693,4.68062 -1.9708,4.5985 -1.9708,16.66956 0,8.37585 1.0676,13.13858 1.0675,4.68062 2.7919,6.24082 1.8066,1.47809 4.6806,1.47809 2.792,0 4.5164,-1.47809 1.8066,-1.47809 2.8741,-6.1587 1.1496,-4.76274 1.1496,-13.05646 z" />
      <path
         id="path6407"
         style="font-style:normal;font-variant:normal;font-weight:600;font-stretch:normal;font-family:FreeSans;-inkscape-font-specification:'FreeSans Semi-Bold';stroke-width:2.0529"
         d="m -1252.2794,-393.01651 q -4.0237,2.29925 -9.8539,2.29925 -5.8303,0 -9.854,-2.29925 -4.0237,-2.38136 -6.2408,-6.73352 -2.135,-4.35215 -3.0383,-9.52546 -0.9033,-5.25543 -0.9033,-12.07107 0,-14.86301 4.5164,-22.74616 4.5164,-7.96526 15.52,-7.96526 5.7481,0 9.6897,2.21713 4.0236,2.13502 6.2408,6.40506 2.2171,4.27004 3.1204,9.6897 0.9854,5.41966 0.9854,12.72799 0,6.56929 -0.9033,11.74261 -0.9033,5.09119 -3.0383,9.52546 -2.135,4.35216 -6.2408,6.73352 z m -1.3139,-28.24793 q 0,-11.90684 -2.2171,-16.66957 -2.135,-4.84485 -6.3229,-4.84485 -4.5985,0 -6.5693,4.68062 -1.9708,4.5985 -1.9708,16.66956 0,8.37585 1.0675,13.13858 1.0675,4.68062 2.7919,6.24082 1.8066,1.47809 4.6807,1.47809 2.7919,0 4.5163,-1.47809 1.8066,-1.47809 2.8741,-6.1587 1.1496,-4.76274 1.1496,-13.05646 z" />
      <path
         id="path6409"
         style="font-style:normal;font-variant:normal;font-weight:600;font-stretch:normal;font-family:FreeSans;-inkscape-font-specification:'FreeSans Semi-Bold';stroke-width:2.0529"
         d="m -1196.5226,-432.7607 h -13.9598 v -7.63679 q 15.1094,0 17.8192,-10.42875 h 7.6368 v 58.22031 h -11.4962 z" />
      <path
         id="path6411"
         style="font-style:normal;font-variant:normal;font-weight:600;font-stretch:normal;font-family:FreeSans;-inkscape-font-specification:'FreeSans Semi-Bold';stroke-width:2.0529"
         d="m -1150.8661,-432.7607 h -13.9597 v -7.63679 q 15.1093,0 17.8192,-10.42875 h 7.6368 v 58.22031 h -11.4963 z" />
      <path
         id="path6413"
         style="font-style:normal;font-variant:normal;font-weight:600;font-stretch:normal;font-family:FreeSans;-inkscape-font-specification:'FreeSans Semi-Bold';stroke-width:2.0529"
         d="m -1105.2096,-432.7607 h -13.9597 v -7.63679 q 15.1094,0 17.8192,-10.42875 h 7.6368 v 58.22031 h -11.4963 z" />
      <path
         id="path6415"
         style="font-style:normal;font-variant:normal;font-weight:600;font-stretch:normal;font-family:FreeSans;-inkscape-font-specification:'FreeSans Semi-Bold';stroke-width:2.0529"
         d="m -1059.553,-432.7607 h -13.9598 v -7.63679 q 15.1094,0 17.8192,-10.42875 h 7.6368 v 58.22031 h -11.4962 z" />
      <path
         id="path6417"
         style="font-style:normal;font-variant:normal;font-weight:600;font-stretch:normal;font-family:FreeSans;-inkscape-font-specification:'FreeSans Semi-Bold';stroke-width:2.0529"
         d="m -968.32209,-433.58186 q 0,4.84485 -2.13502,8.78642 -2.0529,3.94158 -5.25543,6.65141 -3.20252,2.62771 -6.56928,4.92696 -3.36676,2.21714 -6.48718,4.92697 -3.12041,2.62771 -4.43426,5.41966 h 24.63482 v 10.26451 h -39.57996 q 0.4106,-8.04737 3.2025,-12.72799 2.8741,-4.76274 10.26455,-9.93605 9.60758,-6.73352 12.23529,-9.93605 2.62772,-3.28464 2.62772,-8.12949 0,-4.35215 -2.21714,-6.81564 -2.13501,-2.5456 -5.99447,-2.5456 -3.94157,0 -6.15871,2.70984 -2.13502,2.70983 -2.13502,7.55468 v 1.88867 h -11.00352 q -0.082,-0.90328 -0.082,-2.05291 0,-9.197 5.009,-14.2882 5.09123,-5.17331 14.124,-5.17331 9.197,0 14.53455,5.00908 5.41966,5.00908 5.41966,13.46704 z" />
      <path
         id="path6419"
         style="font-style:normal;font-variant:normal;font-weight:600;font-stretch:normal;font-family:FreeSans;-inkscape-font-specification:'FreeSans Semi-Bold';stroke-width:2.0529"
         d="m -922.66556,-433.58186 q 0,4.84485 -2.13502,8.78642 -2.0529,3.94158 -5.25543,6.65141 -3.20253,2.62771 -6.56929,4.92696 -3.36676,2.21714 -6.48717,4.92697 -3.12041,2.62771 -4.43427,5.41966 h 24.63483 v 10.26451 h -39.57996 q 0.41058,-8.04737 3.20253,-12.72799 2.87406,-4.76274 10.26451,-9.93605 9.60758,-6.73352 12.2353,-9.93605 2.62771,-3.28464 2.62771,-8.12949 0,-4.35215 -2.21713,-6.81564 -2.13502,-2.5456 -5.99448,-2.5456 -3.94157,0 -6.1587,2.70984 -2.13502,2.70983 -2.13502,7.55468 v 1.88867 h -11.00356 q -0.0821,-0.90328 -0.0821,-2.05291 0,-9.197 5.00909,-14.2882 5.09119,-5.17331 14.12397,-5.17331 9.197,0 14.53454,5.00908 5.41967,5.00908 5.41967,13.46704 z" />
      <path
         id="path6421"
         style="font-style:normal;font-variant:normal;font-weight:600;font-stretch:normal;font-family:FreeSans;-inkscape-font-specification:'FreeSans Semi-Bold';stroke-width:2.0529"
         d="m -877.00904,-433.58186 q 0,4.84485 -2.13502,8.78642 -2.0529,3.94158 -5.25543,6.65141 -3.20252,2.62771 -6.56928,4.92696 -3.36676,2.21714 -6.48718,4.92697 -3.12041,2.62771 -4.43427,5.41966 h 24.63483 v 10.26451 h -39.57996 q 0.41059,-8.04737 3.20253,-12.72799 2.87407,-4.76274 10.26451,-9.93605 9.60759,-6.73352 12.2353,-9.93605 2.62772,-3.28464 2.62772,-8.12949 0,-4.35215 -2.21714,-6.81564 -2.13502,-2.5456 -5.99447,-2.5456 -3.94157,0 -6.15871,2.70984 -2.13502,2.70983 -2.13502,7.55468 v 1.88867 h -11.00355 q -0.0821,-0.90328 -0.0821,-2.05291 0,-9.197 5.00908,-14.2882 5.0912,-5.17331 14.12397,-5.17331 9.197,0 14.53455,5.00908 5.41966,5.00908 5.41966,13.46704 z" />
      <path
         id="path6423"
         style="font-style:normal;font-variant:normal;font-weight:600;font-stretch:normal;font-family:FreeSans;-inkscape-font-specification:'FreeSans Semi-Bold';stroke-width:2.0529"
         d="m -831.35248,-433.58186 q 0,4.84485 -2.13502,8.78642 -2.0529,3.94158 -5.25543,6.65141 -3.20253,2.62771 -6.56929,4.92696 -3.36676,2.21714 -6.48717,4.92697 -3.12041,2.62771 -4.43427,5.41966 h 24.63483 v 10.26451 h -39.57996 q 0.41058,-8.04737 3.20253,-12.72799 2.87406,-4.76274 10.26451,-9.93605 9.60758,-6.73352 12.2353,-9.93605 2.62771,-3.28464 2.62771,-8.12949 0,-4.35215 -2.21713,-6.81564 -2.13502,-2.5456 -5.99448,-2.5456 -3.94157,0 -6.1587,2.70984 -2.13502,2.70983 -2.13502,7.55468 v 1.88867 h -11.00356 q -0.0821,-0.90328 -0.0821,-2.05291 0,-9.197 5.00909,-14.2882 5.09119,-5.17331 14.12397,-5.17331 9.197,0 14.53454,5.00908 5.41967,5.00908 5.41967,13.46704 z" />
      <path
         id="path6425"
         style="font-style:normal;font-variant:normal;font-weight:600;font-stretch:normal;font-family:FreeSans;-inkscape-font-specification:'FreeSans Semi-Bold';stroke-width:2.0529"
         d="m -802.03706,-433.49974 q 0,-4.51639 1.23174,-7.96526 1.31386,-3.44888 3.20253,-5.41967 1.97079,-1.97078 4.5985,-3.12041 2.62772,-1.23174 4.92697,-1.64232 2.38136,-0.41058 4.92696,-0.41058 8.45796,0 13.46704,4.35215 5.00908,4.27004 5.00908,11.49626 0,4.02368 -1.80655,6.97986 -1.80655,2.87407 -5.83024,5.41967 4.92696,2.38136 7.22621,5.91236 2.29926,3.44887 2.29926,8.54007 0,8.54007 -5.5839,13.63127 -5.50178,5.00908 -14.7809,5.00908 -8.95065,0 -14.2882,-5.09119 -5.25543,-5.17332 -5.33754,-13.87762 h 11.16779 q 0.49269,9.11488 8.7043,9.11488 3.77734,0 6.15871,-2.46348 2.46348,-2.46348 2.46348,-6.32294 0,-3.20253 -1.72444,-5.50178 -1.72443,-2.38137 -4.5985,-3.20253 -2.29925,-0.57481 -6.73352,-0.57481 v -7.71891 h 0.9854 q 10.18239,0 10.18239,-8.78642 0,-3.61311 -1.88867,-5.5839 -1.88867,-2.0529 -5.33755,-2.0529 -4.51638,0 -6.1587,2.5456 -1.64232,2.5456 -1.80656,7.71891 h -10.67509 z" />
      <path
         id="path6427"
         style="font-style:normal;font-variant:normal;font-weight:600;font-stretch:normal;font-family:FreeSans;-inkscape-font-specification:'FreeSans Semi-Bold';stroke-width:2.0529"
         d="m -756.38056,-433.49974 q 0,-4.51639 1.23174,-7.96526 1.31385,-3.44888 3.20252,-5.41967 1.97079,-1.97078 4.59851,-3.12041 2.62771,-1.23174 4.92696,-1.64232 2.38137,-0.41058 4.92697,-0.41058 8.45796,0 13.46704,4.35215 5.00908,4.27004 5.00908,11.49626 0,4.02368 -1.80656,6.97986 -1.80655,2.87407 -5.83024,5.41967 4.92697,2.38136 7.22622,5.91236 2.29925,3.44887 2.29925,8.54007 0,8.54007 -5.5839,13.63127 -5.50177,5.00908 -14.78089,5.00908 -8.95066,0 -14.2882,-5.09119 -5.25543,-5.17332 -5.33755,-13.87762 h 11.16779 q 0.4927,9.11488 8.70431,9.11488 3.77734,0 6.1587,-2.46348 2.46349,-2.46348 2.46349,-6.32294 0,-3.20253 -1.72444,-5.50178 -1.72444,-2.38137 -4.5985,-3.20253 -2.29925,-0.57481 -6.73352,-0.57481 v -7.71891 h 0.98539 q 10.1824,0 10.1824,-8.78642 0,-3.61311 -1.88867,-5.5839 -1.88867,-2.0529 -5.33755,-2.0529 -4.51639,0 -6.15871,2.5456 -1.64232,2.5456 -1.80655,7.71891 h -10.67509 z" />
      <path
         id="path6429"
         style="font-style:normal;font-variant:normal;font-weight:600;font-stretch:normal;font-family:FreeSans;-inkscape-font-specification:'FreeSans Semi-Bold';stroke-width:2.0529"
         d="m -710.72401,-433.49974 q 0,-4.51639 1.23174,-7.96526 1.31386,-3.44888 3.20253,-5.41967 1.97079,-1.97078 4.5985,-3.12041 2.62772,-1.23174 4.92697,-1.64232 2.38136,-0.41058 4.92696,-0.41058 8.45796,0 13.46704,4.35215 5.00908,4.27004 5.00908,11.49626 0,4.02368 -1.80655,6.97986 -1.80655,2.87407 -5.83024,5.41967 4.92696,2.38136 7.22621,5.91236 2.29925,3.44887 2.29925,8.54007 0,8.54007 -5.58389,13.63127 -5.50178,5.00908 -14.7809,5.00908 -8.95065,0 -14.2882,-5.09119 -5.25543,-5.17332 -5.33754,-13.87762 h 11.16778 q 0.4927,9.11488 8.70431,9.11488 3.77734,0 6.15871,-2.46348 2.46348,-2.46348 2.46348,-6.32294 0,-3.20253 -1.72444,-5.50178 -1.72444,-2.38137 -4.5985,-3.20253 -2.29925,-0.57481 -6.73352,-0.57481 v -7.71891 h 0.98539 q 10.1824,0 10.1824,-8.78642 0,-3.61311 -1.88867,-5.5839 -1.88867,-2.0529 -5.33755,-2.0529 -4.51638,0 -6.1587,2.5456 -1.64232,2.5456 -1.80656,7.71891 h -10.67509 z" />
      <path
         id="path6431"
         style="font-style:normal;font-variant:normal;font-weight:600;font-stretch:normal;font-family:FreeSans;-inkscape-font-specification:'FreeSans Semi-Bold';stroke-width:2.0529"
         d="m -665.06752,-433.49974 q 0,-4.51639 1.23175,-7.96526 1.31385,-3.44888 3.20252,-5.41967 1.97079,-1.97078 4.59851,-3.12041 2.62771,-1.23174 4.92696,-1.64232 2.38137,-0.41058 4.92697,-0.41058 8.45795,0 13.46704,4.35215 5.00908,4.27004 5.00908,11.49626 0,4.02368 -1.80656,6.97986 -1.80655,2.87407 -5.83024,5.41967 4.92697,2.38136 7.22622,5.91236 2.29925,3.44887 2.29925,8.54007 0,8.54007 -5.5839,13.63127 -5.50177,5.00908 -14.78089,5.00908 -8.95066,0 -14.2882,-5.09119 -5.25543,-5.17332 -5.33755,-13.87762 h 11.16779 q 0.4927,9.11488 8.7043,9.11488 3.77735,0 6.15871,-2.46348 2.46349,-2.46348 2.46349,-6.32294 0,-3.20253 -1.72444,-5.50178 -1.72444,-2.38137 -4.5985,-3.20253 -2.29926,-0.57481 -6.73352,-0.57481 v -7.71891 h 0.98539 q 10.18239,0 10.18239,-8.78642 0,-3.61311 -1.88867,-5.5839 -1.88867,-2.0529 -5.33754,-2.0529 -4.51639,0 -6.15871,2.5456 -1.64232,2.5456 -1.80655,7.71891 h -10.6751 z" />
      <path
         id="path6433"
         style="font-style:normal;font-variant:normal;font-weight:600;font-stretch:normal;font-family:FreeSans;-inkscape-font-specification:'FreeSans Semi-Bold';stroke-width:2.0529"
         d="m -556.83852,-415.02362 v 9.52547 h -6.07659 v 12.89222 h -11.49626 v -12.89222 h -23.32097 v -9.6897 l 21.26807,-35.63839 h 13.54916 v 35.80262 z m -17.57285,0 v -24.88118 l -15.19148,24.88118 z" />
      <path
         id="path6435"
         style="font-style:normal;font-variant:normal;font-weight:600;font-stretch:normal;font-family:FreeSans;-inkscape-font-specification:'FreeSans Semi-Bold';stroke-width:2.0529"
         d="m -511.18197,-415.02362 v 9.52547 h -6.07659 v 12.89222 h -11.49625 v -12.89222 h -23.32097 v -9.6897 l 21.26807,-35.63839 h 13.54915 v 35.80262 z m -17.57284,0 v -24.88118 l -15.19148,24.88118 z" />
      <path
         id="path6437"
         style="font-style:normal;font-variant:normal;font-weight:600;font-stretch:normal;font-family:FreeSans;-inkscape-font-specification:'FreeSans Semi-Bold';stroke-width:2.0529"
         d="m -465.52547,-415.02362 v 9.52547 h -6.07659 v 12.89222 h -11.49626 v -12.89222 h -23.32097 v -9.6897 l 21.26807,-35.63839 h 13.54916 v 35.80262 z m -17.57285,0 v -24.88118 l -15.19148,24.88118 z" />
      <path
         id="path6439"
         style="font-style:normal;font-variant:normal;font-weight:600;font-stretch:normal;font-family:FreeSans;-inkscape-font-specification:'FreeSans Semi-Bold';stroke-width:2.0529"
         d="m -419.86892,-415.02362 v 9.52547 h -6.07659 v 12.89222 h -11.49625 v -12.89222 h -23.32097 v -9.6897 l 21.26806,-35.63839 h 13.54916 v 35.80262 z m -17.57284,0 v -24.88118 l -15.19148,24.88118 z" />
    </g>
  </g>
</svg>
