<?xml version="1.0" encoding="UTF-8" standalone="no"?>
<svg
   xmlns:dc="http://purl.org/dc/elements/1.1/"
   xmlns:cc="http://creativecommons.org/ns#"
   xmlns:rdf="http://www.w3.org/1999/02/22-rdf-syntax-ns#"
   xmlns:svg="http://www.w3.org/2000/svg"
   xmlns="http://www.w3.org/2000/svg"
   width="1024mm"
   height="1024mm"
   viewBox="0 0 1024 1024"
   version="1.1"
   id="svg8">
  <defs
     id="defs2">
    <symbol
       id="SquaredBalloon"
       style="stroke-linejoin:miter;stroke-miterlimit:10">
      <title
         id="title955">Squared Balloon</title>
      <rect
         x="21.166666"
         y="17.197916"
         width="66.145836"
         height="37.041668"
         rx="4.4979167"
         style="stroke:none;stroke-width:0.264583"
         id="rect957" />
      <path
         d="m 33.3375,52.652083 6.614583,11.377084 7.9375,-11.377084"
         style="stroke:none;stroke-width:0.264583"
         id="path959" />
      <rect
         x="19.84375"
         y="15.875"
         width="66.145836"
         height="37.041668"
         rx="3.96875"
         style="fill:#eeeeee;stroke-width:0.926042"
         id="rect961" />
      <path
         d="m 31.75,51.59375 6.614583,11.377083 7.9375,-11.377083"
         style="fill:#eeeeee;stroke-width:0.926042"
         id="path963" />
      <rect
         x="21.166666"
         y="17.197916"
         width="62.177082"
         height="33.072918"
         rx="2.6458333"
         style="fill:#ffffff;stroke:none;stroke-width:0.264583"
         id="rect965" />
      <path
         d="M 31.220833,47.625 37.835417,59.002083 45.772917,47.625"
         style="fill:#ffffff;stroke:none;stroke-width:0.264583"
         id="path967" />
    </symbol>
  </defs>
  <metadata
     id="metadata5">
    <rdf:RDF>
      <cc:Work
         rdf:about="">
        <dc:format>image/svg+xml</dc:format>
        <dc:type
           rdf:resource="http://purl.org/dc/dcmitype/StillImage" />
        <dc:title></dc:title>
      </cc:Work>
    </rdf:RDF>
  </metadata>
  <g
     id="layer1">
    <g
       id="g8533">
      <path
         style="fill:#000000;stroke-width:4.33682"
         d="M 335.27664,909.6755 C 306.11028,903.95424 262.07546,888.65542 233.0635,874.16403 125.31202,820.34245 50.935235,727.53272 20.253579,608.61294 10.015469,568.93087 9.2425829,559.80318 11.076225,500.22939 13.370553,425.68744 21.005236,392.72572 49.473101,334.45573 101.50307,227.95735 199.94294,148.74561 315.99651,119.99206 c 49.52076,-12.26932 139.97744,-13.31381 185.31411,-2.13979 59.65259,14.70242 125.31734,46.67088 161.79308,78.76784 l 20.4743,18.01644 -9.21445,14.86027 c -5.06791,8.17315 -16.04731,21.46324 -24.39864,29.53356 l -15.18419,14.6733 -27.32201,-20.53833 C 539.64285,202.18726 459.01115,179.9371 377.09771,189.59769 298.0953,198.91494 242.28805,226.09113 184.95575,283.16408 121.286,346.54588 93.256033,408.1033 88.931568,494.04569 c -5.135557,102.0615 25.595892,180.18695 99.188672,252.15727 27.65882,27.04906 42.73952,37.66385 78.615,55.3344 57.91835,28.52781 97.1795,36.69514 161.4851,33.593 73.02852,-3.52294 133.63104,-26.19479 187.07353,-69.98553 88.83969,-72.79535 130.83223,-178.756 118.67218,-299.44797 l -2.16841,-21.52207 17.34728,-5.24977 c 9.54099,-2.88736 26.58005,-5.39973 37.86455,-5.58305 18.80235,-0.30532 20.79605,0.66354 23.8525,11.59296 1.83439,6.55944 3.18075,38.27245 2.99192,70.47332 -0.389,66.35071 -9.42629,109.57887 -34.05035,162.87447 -54.40049,117.74276 -161.36599,203.69535 -285.26388,229.22497 -36.20787,7.46077 -126.04604,8.68361 -159.26302,2.16781 z M 360.99965,751.50431 C 290.59833,736.3293 225.46143,686.22968 194.58629,623.50856 145.60491,524.00564 162.23009,419.52132 239.4604,341.48777 c 78.31159,-79.12606 188.50519,-96.19804 286.9653,-44.45872 16.28878,8.55952 28.63964,17.14252 27.44633,19.07332 -1.19332,1.9308 -18.67452,12.50739 -38.84718,23.50347 l -36.67752,19.99295 -24.73838,-7.19167 c -72.23029,-20.99791 -156.31773,17.49075 -190.39861,87.14956 -48.493,99.11616 12.42248,216.25954 122.80513,236.16007 49.74716,8.96876 103.62133,-8.35497 142.01029,-45.6648 19.71249,-19.15837 45.40713,-65.48982 45.54098,-82.11756 0.039,-4.77052 1.50361,-10.81893 3.25604,-13.44098 3.28869,-4.92063 71.22413,-45.10609 76.25407,-45.10609 4.5697,0 3.23895,49.65051 -1.99932,74.59667 -9.51359,45.30623 -31.33591,84.05961 -67.74285,120.30191 -62.59491,62.3118 -138.55588,85.27705 -222.33503,67.21841 z M 393.225,593.72372 c -21.12191,-5.03586 -40.14052,-18.20774 -52.92373,-36.65395 -10.21941,-14.74657 -11.82776,-21.33862 -11.82776,-48.47762 0,-28.56893 1.19961,-32.8923 13.26148,-47.79521 21.51643,-26.58421 33.77166,-33.53458 62.83715,-35.63697 18.79763,-1.3597 30.9962,0.19348 42.5935,5.42309 l 16.25167,7.32849 69.13791,-38.68333 c 38.02584,-21.27584 84.67964,-47.26145 103.67511,-57.74587 44.29224,-24.44671 82.74118,-62.42867 99.73071,-98.51933 12.32059,-26.17264 14.41403,-28.15955 52.04182,-49.39445 105.14144,-59.3356 138.06042,-77.31607 139.29367,-76.08279 0.73913,0.73911 -5.46469,28.36249 -13.78618,61.38534 -8.32149,33.02282 -14.55554,60.55175 -13.85341,61.17537 0.70214,0.62364 27.09085,8.44884 58.64157,17.38939 31.55086,8.94053 56.46809,17.70698 55.37159,19.48098 -1.0964,1.77402 -39.45015,24.32423 -85.23038,50.11161 l -83.23687,46.88608 -50.19737,0.59419 c -35.58984,0.42111 -55.87649,2.74744 -69.71306,7.99384 -10.73363,4.06984 -65.62474,33.02339 -121.98027,64.3412 l -102.46458,56.94148 -4.99506,22.32035 C 485.25476,573.4613 438.21969,604.45129 393.225,593.72372 Z"
         id="path8949" />
    </g>
  </g>
</svg>
