<?xml version="1.0" encoding="UTF-8" standalone="no"?>
<svg
   xmlns:dc="http://purl.org/dc/elements/1.1/"
   xmlns:cc="http://creativecommons.org/ns#"
   xmlns:rdf="http://www.w3.org/1999/02/22-rdf-syntax-ns#"
   xmlns:svg="http://www.w3.org/2000/svg"
   xmlns="http://www.w3.org/2000/svg"
   id="svg5"
   version="1.1"
   viewBox="0 0 1024 1024"
   height="1024pt"
   width="1024pt">
  <metadata
     id="metadata11">
    <rdf:RDF>
      <cc:Work
         rdf:about="">
        <dc:format>image/svg+xml</dc:format>
        <dc:type
           rdf:resource="http://purl.org/dc/dcmitype/StillImage" />
        <dc:title></dc:title>
      </cc:Work>
    </rdf:RDF>
  </metadata>
  <defs
     id="defs9" />
  <path
     id="path6293"
     d="m 79.724598,527.66074 0.36462,-449.484845 36.950052,-22.074198 36.95012,-22.07421 367.68986,-0.0982 367.68978,-0.0982 0.015,326.392633 c 0.015,327.24179 0.22179,342.25055 5.17644,375.65945 9.32265,62.86257 33.07535,120.67379 63.06075,153.48263 l 7.38792,8.08354 h -55.20828 -55.20828 v 39.84816 39.84816 H 466.97634 79.360118 Z M 803.87665,911.93952 V 897.44928 H 517.17041 230.46417 l -7.43315,-3.98481 c -27.79989,-14.90313 -49.87724,-56.42097 -60.29383,-113.38613 -7.24166,-39.60293 -7.05489,-30.8944 -7.92974,-369.74155 l -0.81806,-316.852172 -11.5922,6.824132 -11.5922,6.82413 -0.36476,409.64844 -0.36476,409.64844 H 466.97606 803.87665 Z M 381.6641,839.12607 C 364.41826,812.11802 352.16188,771.93476 347.0799,725.73994 l -1.91292,-17.38828 -69.14414,-0.37631 -69.14408,-0.3763 0.0157,7.62142 c 0.025,12.27078 4.05647,46.94494 7.35887,63.29255 5.43006,26.88001 13.35602,46.93255 24.24424,61.33756 l 5.2024,6.88287 h 71.41098 71.41091 l -4.85762,-7.60738 z m 174.42942,6.78169 c 0,-0.45414 -1.86847,-3.55142 -4.15214,-6.88286 -17.08076,-24.91752 -30.78905,-71.50799 -35.78329,-121.61684 l -0.97486,-9.78091 h -73.73139 -73.73139 l 0.0157,6.15835 c 0.0414,16.64259 9.33129,62.20725 16.64401,81.63527 5.97274,15.86807 16.31228,34.39558 24.02279,43.0466 l 7.36744,8.26608 h 70.16174 c 38.58895,0 70.16174,-0.37157 70.16174,-0.82569 z m 169.52628,-0.26108 c -0.007,-0.59772 -1.34434,-3.04295 -2.97567,-5.43384 -15.80634,-23.16522 -30.09698,-68.83526 -34.68629,-110.85034 -0.91401,-8.36811 -1.95315,-16.68188 -2.30914,-18.47504 l -0.64727,-3.26031 h -73.87257 c -63.53788,0 -73.87264,0.29369 -73.87264,2.09932 0,1.15462 1.0054,9.76868 2.23416,19.14232 6.69385,51.06368 20.73159,89.21779 41.54807,112.92646 l 4.33577,4.9382 h 70.12757 c 38.57011,0 70.12322,-0.48905 70.11801,-1.08677 z m 139.11583,0.61605 c 0,-0.25889 -1.65659,-5.31235 -3.68129,-11.22994 C 849.31475,800.7213 843.29699,768.57201 839.30566,718.8424 l -0.90246,-11.24461 -65.41519,0.37693 -65.41513,0.37694 0.38973,6.52061 c 0.78268,13.09335 7.79299,51.24654 12.0612,65.64225 7.8305,26.41005 17.86271,46.10383 30.43234,59.74031 l 5.97181,6.47862 h 54.1538 c 29.78465,0 54.15387,-0.21183 54.15387,-0.47072 z M 343.08699,614.88962 v -71.00217 h -68.10408 -68.10415 v 71.00217 71.00217 h 68.10415 68.10408 z m 170.6364,0.36225 -0.37603,-70.63991 -74.26251,-0.37542 -74.26245,-0.37541 v 71.01533 71.01533 h 74.63848 74.63855 z m 169.88427,-0.36225 v -71.00217 h -73.90025 -73.90018 v 71.00217 71.00217 h 73.90018 73.90025 z m 155.04552,0 V 543.88745 H 771.99809 705.343 v 71.00217 71.00217 h 66.65509 66.65509 z M 343.08699,451.14991 v -71.00217 h -68.10408 -68.10415 v 71.00217 71.00217 h 68.10415 68.10408 z m 170.6364,0.36226 -0.37603,-70.63992 -74.26251,-0.37541 -74.26245,-0.37541 v 71.01533 71.01532 h 74.63848 74.63855 z m 169.88427,-0.36226 v -71.00217 h -73.90025 -73.90018 v 71.00217 71.00217 h 73.90018 73.90025 z m 154.69709,0.36226 -0.3761,-70.63992 -66.29282,-0.37687 -66.29283,-0.37688 v 71.01679 71.01679 h 66.66886 66.66893 z M 343.08699,287.41022 v -71.00218 h -68.10408 -68.10415 v 71.00218 71.00216 h 68.10415 68.10408 z m 170.6364,0.36225 -0.37603,-70.63992 -74.26251,-0.37541 -74.26245,-0.37542 v 71.01533 71.01533 h 74.63848 74.63855 z m 169.88427,-0.36225 v -71.00218 h -73.90025 -73.90018 v 71.00218 71.00216 h 73.90018 73.90025 z m 154.69709,0.36225 -0.3761,-70.63992 -66.29282,-0.37688 -66.29283,-0.37687 v 71.01679 71.01679 h 66.66886 66.66893 z"
     style="fill:#000000;stroke-width:1.44902396" />
</svg>
