<?xml version="1.0" encoding="UTF-8" standalone="no"?>
<svg
   id="svg5"
   version="1.1"
   viewBox="0 0 1024 1024"
   height="1024pt"
   width="1024pt"
   xml:space="preserve"
   xmlns="http://www.w3.org/2000/svg"
   xmlns:svg="http://www.w3.org/2000/svg"
   xmlns:rdf="http://www.w3.org/1999/02/22-rdf-syntax-ns#"
   xmlns:cc="http://creativecommons.org/ns#"
   xmlns:dc="http://purl.org/dc/elements/1.1/"><metadata
     id="metadata11"><rdf:RDF><cc:Work
         rdf:about=""><dc:format>image/svg+xml</dc:format><dc:type
           rdf:resource="http://purl.org/dc/dcmitype/StillImage" /></cc:Work></rdf:RDF></metadata><defs
     id="defs9" /><path
     d="M 855.13286,564.29569 598.06062,821.36793 H 494.32971 v -103.7309 l 257.07225,-257.07225 103.7309,103.73091 m 153.34134,-36.08032 c 0,13.53012 -13.53012,27.06024 -27.06024,40.59035 L 868.66297,681.55671 828.07263,640.96635 945.33365,523.70533 918.27341,496.64509 886.70313,528.21537 782.97223,424.48446 882.1931,329.77364 c 9.02008,-9.02008 27.06023,-9.02008 40.59035,0 l 63.14055,63.14055 c 9.02008,9.02008 9.02008,27.06024 0,40.59035 -9.02008,9.02008 -18.04016,18.04016 -18.04016,27.06024 0,9.02008 9.02008,18.04015 18.04016,27.06023 13.53012,13.53013 27.0602,27.06024 22.5502,40.59036 M 101.95628,884.50848 V 162.90219 h 315.70277 v 225.50196 h 225.50197 v 67.65059 L 733.3618,365.85396 V 343.30375 L 462.75944,72.701399 H 101.95628 c -49.610436,0 -90.200785,40.590351 -90.200785,90.200791 v 721.60629 c 0,49.61043 40.590349,90.20079 90.200785,90.20079 h 541.20474 c 49.61042,0 90.20078,-40.59036 90.20078,-90.20079 H 101.95628 M 462.75944,753.71734 c -9.02008,0 -18.04016,4.51004 -22.5502,4.51004 l -22.55019,-99.22087 h -67.6506 l -94.71083,76.67068 27.06023,-121.77107 h -67.65058 l -45.1004,225.50197 h 67.65059 l 130.79115,-117.26103 27.06023,103.7309 h 45.1004 l 22.5502,-4.51003 z"
     id="path222"
     style="stroke-width:45.1003" /></svg>
